<svg xmlns="http://www.w3.org/2000/svg" width="719" height="73" fill="none" viewBox="0 0 719 73"><path fill="#282626" d="M421.337 10.83c-.11 1.038-.331 0-1.037-.066-1.899-.133-3.997 3.378-5.255 4.659-5.896 5.939-12.034 10.598-18.128 16.14s-12.983 12.895-18.216 18.878c-4.924 5.587-6.624 9.737-13.16 14.065-.75.486-1.126 1.81-2.296 1.17-.64-2.539 1.082-2.715 2.517-4.062 3.665-3.423 6.558-7.132 9.76-10.908 8.544-10.046 17.332-20.07 26.341-29.742 3.047-3.267 6.469-6.182 9.781-9.207-4.283-.132-8.611.861-12.894 1.259-5.697.53-12.873.375-18.349 1.7-.331.088-.574 1.744-1.766.309-1.413-1.678.596-2.959 2.296-3.135 3.621-.376 7.927-.067 11.614-.265 12.232-.729 24.332-2.672 36.52-3.688 3.577-.309 7.441-.198 10.775-.552 1.149-.132 2.297-1.015 2.871-1.082.618-.044.927.597 1.435.73.795.198 4.725-.332 2.407 1.7-8.324 1.412-16.781 1.854-25.238 2.119zm-5.718.199c-.464-.398-2.275 1.104-2.672 1.413-4.946 3.797-10.201 9.384-14.308 13.998-1.501 1.7-2.958 3.467-4.526 5.1l18.392-17.575a22 22 0 0 0 2.473-2.053c.287-.287.795-.287.641-.905zm-10.201 12.475v-.84l-.839.707z"/><path fill="#282626" d="M410.716 27.257c1.921 1.722-1.104 3.577-.773 5.564 2.981-.397 1.281 2.451 1.149 4.107-.111 1.259 1.832 7.44 2.428 8.898.597 1.457 1.612 1.237 2.959 1.325l11.879-6.668c-.221-.795-2.009-.331-2.627-.199-.972.199-3.644 1.524-4.284 1.325-1.722-.508 1.744-1.81 2.23-1.965 3.312-1.082 4.416-.088 7.066-.353.927-.089 2.738-1.634 3.775-1.833.221-.044 2.584-.066 2.716-.022.574.176.619.927.331 1.39-.375.597-5.122 3.313-6.094 3.82-5.233 2.805-11.017 4.66-15.743 8.347-.529.486 1.171 2.76 0 2.826-.529.022-1.037-1.126-1.28-1.28-.751-.486-3.776 2.009-4.615 2.494-4.416 2.562-9.318 4.792-14.219 6.735-3.202 1.28-6.713 2.826-9.914 3.952-.883.31-4.416 1.9-4.593.42s2.826-2.628 3.842-3.423c3.93-3.069 8.788-8.677 12.1-12.541 2.34-2.738 3.908-5.454 6.072-8.103 1.148-1.391 5.034-4.372 5.343-6.028.111-.663-.287-2.076-.243-3.07.044-.883.464-3.93.707-4.68.221-.707 1.038-1.7 1.766-1.038zm-2.451 11.813c-.883-.022-1.148 1.015-1.7 1.567-2.76 2.716-3.908 5.079-6.248 7.927-3.379 4.13-7.971 8.435-11.614 12.453-.287.31-.663.486-.552.994l22.543-12.166c.353-.552-1.501-3.378-1.766-4.483-.508-1.965-.618-4.283-.663-6.292m3.953 7.374.353-.772-1.501-4.041c-.089 1.678.75 3.224 1.126 4.813zm1.148 4.814c-1.479.088-3.047 1.148-3.975 2.252l1.237-.31zm-4.549 2.54c-.839.11-1.876.661-2.274 1.412.795-.11 1.789-.75 2.274-1.413M445.361 43.597c-2.075 2.274-5.851 4.968-8.412 6.602-.199.132-.243.618-.508.773-.309.176.177-1.082-.552-.84-1.214.398-3.444 2.827-4.681 3.533-.596.596-.11.552.287.287 1.259-.839 2.694-2.892 4.24-2.539-2.495 2.915-6.404 4.504-9.075 7.066-1.413 1.369-2.562 3.952-4.725 4.35-.906.176-1.524-.266-2.142-.177-.508.066-.994.795-1.612.397-1.546-.993 1.7-2.473 2.539-3.157 9.473-7.728 19.673-15.302 29.322-23.074 4.505-3.643 8.523-7.993 12.608-12.033-.066-1.082-3.047-.177-3.665 0-1.391.441-5.918 2.804-6.933 2.693-.552-.044-.906-.64-1.281-.993 0-.464 2.672-1.634 3.246-1.833 1.06-.375 3.179-.53 4.107-1.015.397-.2.419-.751.772-.994 2.451-1.678 10.709-1.943 13.8-1.987 2.893-.044 5.454-.177 8.06 1.302.883.508 3.577 3.445 3.864 4.35.353 1.148-.354 3.423-.95 4.46-.221.398-2.009 2.407-2.473 2.915-2.87 3.224-7.551 6.91-11.57 8.545-3.643 1.48-15.544 3.731-18.944 2.429-1.303-.508-2.937-1.502-2.208-3.047-1.082.618-1.987 1.39-3.114 1.987.045-.066.045-.464.265-.707.243-.287 3.732-2.34 3.136-2.959-1.987 1.436-3.997 2.849-5.653 4.681.641.067 1.104-.684 1.612-.927.221-.11.552 0 .64-.066zm27.203-20.954c-.861.066-1.855-.11-2.694 0-.419.044-.883.22-.419.574l3.113-.552zm-6.249.287v.574h1.413v-.574zm15.876 2.826c-.928-2.296-3.953-3.069-6.227-2.826l3.401 2.385zm-6.514-.574c-.11-.508-.552-.53-.971-.574-1.48-.177-3.842.088-5.344.331-1.148.199-2.826.133-3.003 1.656l9.34-1.413zm-10.201-.265c-.265-.265-1.325.618-1.126 1.126.265.265 1.325-.618 1.126-1.126m16.074 2.628c-.198-.243-1.28-.53-1.611-.928.243.883.75 3.18 1.943 1.855-.177-.243-.155-.729-.309-.927zm-18.348-.64c-.375-.376-2.318 2.23-2.826 2.406.486-.022 3.312-1.92 2.826-2.407m14.992.021c-4.703-.596-9.185 1.921-13.844.817v1.568c-2.87 1.921-5.895 3.643-8.633 5.807-1.722 1.347-5.123 4.129-6.536 5.652-.265.288-.53.398-.419.862 1.479-.265 3.003.309 4.394.309 5.409.044 17.487-2.032 21.815-5.123l2.406-2.539c-1.567.287-3.223.971-4.747 1.347-3.555.861-9.207 2.385-12.674 2.627-1.236.089-3.709.332-3.532-1.413 1.611-.066 3.267.11 4.879-.066 2.606-.31 7.176-1.413 9.848-2.053s5.078-1.678 7.639-2.407l-13.866.861c-.11-.729.442-.729.95-.905 2.539-.817 5.431-.508 7.948-.84.685-.088 5.388-1.147 5.543-1.39l-1.171-3.091zm-27.865 11.857-.419.42c0 .287.706-.177.419-.42m-1.148.861v.288c.177-.089.177-.2 0-.288m14.021 2.54c-1.17-.133-1.17.42 0 .287zm-1.413.287h-1.7v.287h1.7zm-3.952.574h-1.988v.287h1.988zm-4.262.287h-1.413v.287h1.413zm-10.753 1.7c-.309-.243-.883.22-1.148.42-1.016.728-2.694 2.075-3.577 2.936-.287.287-.795.287-.64.905.375.354 3.621-2.715 4.107-3.113.066-.066 1.7-.773 1.258-1.126zM469.738 58.876s1.634.773 1.855.84c4.239 1.148 14.065-.685 18.15-2.474 2.031-.883 3.886-2.141 5.851-3.157 1.435 1.214 1.126 2.075-.243 3.091-1.568 1.17-10.886 4.791-12.784 5.056-1.149.155-3.29.288-4.483.332-1.965.066-7.308.309-8.765-.619-.133-.088-1.943-1.832-2.01-1.943-.419-.927-.552-2.782 0-3.665 4.041-6.315 12.277-8.986 19.276-10.179 2.826.243 6.58-.64 9.296-.287 1.656.221 4.526 2.142 3.422 3.953-.353.596-6.756 2.87-7.838 3.201-3.555 1.016-8.7 2.274-12.343 2.672-1.413.154-3.422-.067-4.857.198-.839.155-5.41 1.723-4.527 2.981m4.527-5.94c2.097-.286 4.283-.087 6.381-.286 3.908-.376 7.86-1.28 11.547-2.34 1.171-.332 3.754-1.524 1.502-2.209-2.252-.684-11.614.707-14.043 1.59-1.877.684-3.776 2.075-5.387 3.246m22.367-3.664c1.17-.089.993-.795.132-1.414zM343.372 36.884c-.375-.905 1.678-1.037 1.7-.42 0 .42-1.28.509-1.7.42M131.623 52.649c-.11.132-.64.066-.905.353-4.593 4.747-7.816 13.425-12.254 18.503-.332.398-.486 2.053-1.679 1.06-1.501-1.259 2.076-4.99 2.142-6.536-1.501.265-2.716 4.902-3.268 5.079-.309.11-.64 0-.861-.265-.53-.751.641-2.628.994-3.4-3.776 1.037-7.353 3.29-11.393 2.185-2.252-.618-3.864-2.252-3.202-4.747.155-.596 2.495-5.078 2.87-5.343.442-.31 1.127-.331 1.612-.64 4.725-2.937 12.299-9.075 17.62-9.848 2.429-.353 4.306 2.01 5.454 1.347.243-.133 2.782-4.085 3.113-4.66 1.921-3.223 2.296-6.601 3.952-9.626.199-.375 2.827-3.6 2.606-3.776-4.438.53-9.207 1.06-13.336 2.959-1.789.817-3.599 2.208-5.366 3.135-.971.508-5.719 2.981-6.381 2.981-2.252 0-.177-1.634 0-2.01.199-.463.044-1.059.199-1.346.706-1.259 13.358-7.154 15.478-7.905 3.025-1.082 5.741-1.611 8.964-1.81.972-.066 2.804.309 3.378.22.597-.088 1.369-1.457 2.164-.33.177.883-.883 1.126-1.082 1.744-.242.839 0 2.23-.132 3.268-.905 6.58-6.16 11.238-9.494 16.56-.464.728-1.149 2.737-1.237 2.87zm7.706-23.162h-1.7c-.353.155 1.501 1.104 1.7 0m1.413 3.4c.685-.265.751-.684.133-1.126zm-1.7 1.7-1.656 1.877c-.066.596-1.634 3.268-1.457 3.489.419.486.618-.376.728-.53.972-1.369 2.208-3.157 2.385-4.858zm-17.553.574a12.2 12.2 0 0 0-4.24 2.54c1.457-.53 3.29-1.325 4.24-2.54m17.288 3.666c.111.132.751-.486.552-.84-.11-.132-.751.486-.552.84m-.574 1.148c-.618-.155-.64.353-.905.64-1.215 1.303-3.047 3.158-3.047 5.012.64-.42 4.217-5.41 3.952-5.652m-11.614 13.027c-3.334.353-6.646.927-9.693 2.34a171 171 0 0 0-7.551 3.776c-.729.398-4.085 3.445-4.24 3.997-.706 2.495 4.681 1.104 5.741 1.214.64.066 2.561.464 3.378.64.883.177.972 1.038 1.193 1.06.529.044 3.024-2.428 3.554-2.958 2.186-2.253 5.741-6.47 7.309-9.12.177-.309.419-.53.331-.949zm-2.848 7.066c-.287-.287-1.458 1.104-1.678 1.347-.265.264-1.943 2.097-1.723 2.318l1.281-.84 2.12-2.847zm-12.851 5.785c-.883-.464-3.224.044-4.548-.133-.596-.088-2.54-1.192-2.738-.375-.685 3.025 6.845 2.804 7.949.971-.42.133-.53-.397-.663-.463M159.023 26.241c-4.879 7.353-9.163 15.147-14.042 22.434a5.7 5.7 0 0 0-.575 1.347c1.281 0 2.275-1.634 3.268-2.407 3.334-2.65 6.911-5.564 10.996-7.132 1.413-.552 3.378-1.303 4.814-.464.441.265.529.795.75.95.994.662 1.678-.707 1.833-.707.066 0 .883.795.905.972.022.309-.397.817-.419 1.192 0 .486.243.927.198 1.325-.53 5.321-4.681 13.8-8.059 17.995-.265.331-.949.883-1.258.574-.376-.397 3.267-5.432 3.731-6.315.773-1.48 1.921-4.129 2.517-5.696.398-1.038 1.038-2.495.707-3.555-1.568 1.832-2.871 4.018-4.063 6.138-1.634 2.87-2.981 6.558-4.615 9.251-1.059 1.745-3.665 4.13-3.356.464l-1.258 1.148-.95-.95 12.431-18.745c.133-.685-.53-.42-.949-.376-7.596.707-13.403 5.256-18.017 10.864-1.325 1.612-3.136 4.968-4.792 6.249-.662.53-1.214.265-1.722.552-.309.176-1.126 1.678-1.568 2.12-.795.816-4.769 4.371-4.813 1.721-.022-1.413 5.122-6.447 6.204-7.992 3.423-4.836 6.404-11.261 9.693-16.362 3.71-5.763 7.839-11.238 11.592-17.023 4.24-6.536 7.221-10.091 12.453-15.876 1.127-1.236 4.836-6.447 6.249-6.513.442-.023 1.082.176.972.706s-5.101 5.542-5.94 6.514c-4.681 5.564-8.854 11.503-12.872 17.575zm-20.269 29.013c.574.11.795-.375 1.126-.706 3.29-3.445 8.567-13.027 11.106-17.51.508-.883 1.193-2.009 1.369-3.024l-2.958 3.422c-3.622 5.895-7.287 11.79-10.643 17.818m24.089-13.027c.044-2.141-5.785.42-5.652.707.221.508.728.375 1.148.309 1.435-.177 3.069-.817 4.526-1.016zM124.89 7.96c.618.905-3.334 3.798-3.975 4.394-13.468 12.652-22.543 21.373-32.126 37.558-1.457 2.45-4.88 7.75-4.99 10.333-.044 1.038.53 1.877 0 2.959.883.265 2.186-.508 2.915-.243.839.287.132 1.722 2.517.442.375-.2.53-.707.706-.751 1.148-.265 2.584 0 1.921 1.413-3.135 2.252-6.756 3.82-10.576 4.173-.464-1.656-4.04 0-3.974-2.053.022-1.259 3.62-6.028 4.548-7.596 3.003-5.189 5.63-12.21 8.92-16.869.177-.243.354-.574.663-.596l-.133 1.413 2.407-3.246c-1.259-.485-.927 2.208-2.252 1.413.95-1.634 2.186-2.848 3.135-4.526.243-.42.199-1.082.331-1.236.11-.133.707-.089 1.082-.464.817-.817 1.678-2.451 2.54-3.4.64-.707 1.545-2.054 2.539-1.568-.751-1.59.75-.773.839-.84.176-.11 0-1.17.132-1.412.243-.398.751-.464.994-.729 5.807-6.977 13.115-12.254 19.982-18.238.596-.464 1.148-.508 1.833-.287zM98.813 32.6s1.06-1.678 1.126-1.987l-1.7 1.832c-.044.243.53.177.552.133zm-2.12 1.7v.287c.177-.088.177-.199 0-.287m-.419.861c-.243-.287-.728.155-.728.53l-1.811 3.158c.596-.287 2.826-3.357 2.54-3.688M82.96 60.356c-.706.971-2.186 2.693-2.694 3.687-.596 1.148 1.435.927 2.098-.177.552-.927.64-2.45.596-3.51m3.687 3.974c-1.104-.044-2.186.442-3.113.993-.375.221-.707-.044-.552.707.75 0 1.413-.31 2.098-.596.42-.177 1.369-.662 1.59-1.104zM56.904 17.873c-.486.42-3.025 2.517-3.113 2.694-.155.31.066.552.42.42l8.853-5.3c.751-.42 2.363-.706 1.7.442-.154.265-4.393 2.87-5.056 3.29-4.283 2.627-9.362 4.835-13.38 7.86-1.391 1.06-2.628 1.965-3.312 3.622.86.264 1.214-.972 1.59-1.082.728-.221 2.141-.133 3.29-.42C57.3 27.014 77.88 17.586 83.82 10.013c1.015-1.303 3.422-5.079 2.097-6.58-.795-.883-4.173-1.325-5.365-1.369-11.327-.464-24.2 4.04-34.975 7.463-3.135.994-6.27 2.495-9.583 3.158-1.943.397-4.791 1.192-5.012-1.612C29.57 12 27.935 12.53 26.5 13.39c-1.038.618-4.593 3.51-5.145 3.621-.154.022-.463.066-.42-.154.663-.663.818-1.502 1.546-2.12 5.388-4.703 16.627-7.706 23.538-9.605C60.149 1.247 69.644-.807 84.526.32c2.495.198 5.432 1.126 6.955 3.246.486.684.53 1.368.884 1.943 1.5 2.362 3.356 2.141.353 5.255-3.577 3.731-14.772 9.406-19.74 11.967-.905.464-6.491 2.826-6.712 3.201-.464.884 2.164.2 2.407.2 4.283.132 6.072.706 8.633 4.062.353.464.375 1.082.729 1.546 1.192 1.5 2.56 1.148 3.378 3.974 3.312 11.349-12.41 23.758-21.285 27.997-12.564 5.984-28.152 10.201-42.173 9.12-.442-.045-3.334-.53-3.489-.619-.552-.331.023-1.678.729-1.899.795-.243 2.031.044 3.003-.132a56 56 0 0 0 4.615-1.06c.375-.11.883-.022.971-.574-.839.11-1.546.287-2.407.309-2.627 0-6.756-.22-8.986-1.501-2.495-1.458.066-3.048.64-2.474.044.045-.132.795.287 1.281.221.243 1.789.861 2.186.927 11.482 1.921 29.61-4.195 40.583-8.28 7.22-2.693 17.443-8.831 19.188-17.067.927-4.416-2.451-10.797-7.42-10.532-5.828.287-14.594 3.841-20.313 5.74-1.016.332-7.242 2.385-7.463 2.738-.265.442.177.994.11 1.502-.198 1.656-3.09 1.126-4.283 1.39-.839.177-4.747 2.783-5.3 2.209-.33-1.502.73-1.126 1.745-1.789 1.104-.728 2.716-1.92 3.732-2.782.508-.397 2.583-2.716 2.914-2.76s.552.464.972.42c.574-.066 1.788-.751 2.473-.928 4.04-.95 8.147-1.766 11.945-3.488l-7.22.287c-1.921.176-5.785 1.148-7.42 1.06-1.324-.067-.75-1.104-2.76.353-5.784 4.24-13.865 12.166-18.7 17.554-3.71 4.106-6.536 9.03-9.274 13.821-1.943.906-1.678-1.369-1.06-2.539.199-.353.817-.485 1.126-.905.441-.596 3.378-4.637 3.113-4.968-.883.353-3.82 3.003-4.504 2.517-.22-.154-.088-1.369-.729-1.104-.53.221-.993 1.237-1.369 1.59-1.126 1.06-2.936 2.782-4.173 3.621-.331.22-.905.729-1.258.177-.574-.906.552-1.723 1.126-2.275 2.848-2.782 6.248-5.1 9.207-7.772 5.365-4.857 10.069-9.936 15.72-14.572.95-.773 7.398-5.344 7.42-5.808 0-.22-.398-.552-.398-.839 0-1.501 1.126-1.103 1.656-1.346 1.325-.619 3.047-1.149 4.173-1.789 2.584-1.457 7.044-6.182 9.583-8.324 1.104-.927 6.072-5.498 6.58-5.807.42-.243 1.082-.155 1.744-.53.928-.508 3.29-3.71 4.483-2.892 1.103.75-.795 1.611-1.149 1.987-1.214 1.236-2.12 1.877-3.378 2.98 0 0 .11-.596-.132-.573l-.707.706c.155.044.817-.11.84-.154zm33.65-14.396c-.133-.243-2.407-1.634-2.87-1.81-.884-.332-1.789-.574-2.738-.508l5.52 3.113c.265-.044.176-.618.088-.795M65.67 2.02c-4.35.684-8.766 1.258-13.027 2.407-5.167 1.369-11.394 3.312-16.472 5.056-.75.265-2.34.729-2.892 1.082-.95.596-1.082 1.369.198 1.347 3.246 0 9.804-3.003 13.226-4.085 3.952-1.259 7.905-2.54 11.88-3.687 1.942-.552 3.974-.928 5.895-1.48.33-.088 1.192-.243 1.192-.64m19.276 8.214c.596.485 5.21-3.953 5.365-4.703s-2.274-1.789-2.517-1.524c.088 2.429-1.634 4.328-2.826 6.227zm7.065-3.975c-.441-.309-3.62 3.29-4.261 3.798-7.375 6.072-16.87 11.018-25.282 15.5l-1.899 1.37c4.195-1.856 8.39-3.71 12.475-5.808 4.858-2.473 9.716-5.189 14.176-8.192 2.097-1.413 6.867-3.62 4.791-6.668M76.445 30.901c-2.363-5.211-9.848-3.71-14.396-2.915l-9.693 4.04c8.08-.75 15.985-3.82 24.067-1.126zm.839 8.213c.066-1.899.706-4.416-.155-6.204-.552-1.148-3.488-1.347-4.659-1.722-.463.463 1.48 1.633 1.7 1.92 1.524 1.877 1.9 3.379 2.54 5.609.11.42-.155.486.574.42zm1.148-5.387v4.394c0 .684-1.303 4.57-1.634 5.431-4.813 11.99-19.85 16.582-30.757 21.087-8.148 3.356-12.32 4.062-20.91 5.41-.464.066-4.195.993-4.173 1.191.662.089 1.48.354 2.12.376 14.175.088 35.305-6.028 46.323-15.08 5.432-4.46 13.734-13.27 10.731-20.933-.132-.309-1.192-2.406-1.656-1.876zM38.202 39.4c-.198-.243-2.45 1.546-2.539 1.987 1.502.376 2.849-.176 2.54-1.987m-25.48 15.854c2.208-.332 3.997-2.805 5.211-4.57.199-.266.971-1.127.75-1.392-.706.22-6.314 5.653-5.939 5.94zm30.294 9.362-5.873 1.611-3.754 1.48c1.943-.442 3.753-.663 5.652-1.28 1.17-.376 3.136-1.017 3.975-1.834zm-10.201 2.826c-.353-.199-.994.463-.84.552.354.198.994-.464.84-.552m-2.959.574v.287c.177-.088.177-.199 0-.287"/><path fill="#282626" d="M66.243 14.76v.574h-.839c.089-.42.464-.64.84-.552zM314.36 52.65c-.111.133-.641.067-.906.354-4.592 4.747-7.816 13.424-12.254 18.503-.331.397-.486 2.053-1.678 1.06-1.502-1.26 2.075-4.99 2.142-6.536-1.502.265-2.716 4.901-3.268 5.078-.309.11-.641 0-.861-.265-.53-.75.64-2.627.993-3.4-3.775 1.038-7.352 3.29-11.393 2.186-2.252-.618-3.864-2.252-3.202-4.747.155-.597 2.495-5.079 2.871-5.344.441-.309 1.126-.331 1.612-.64 4.725-2.937 12.298-9.075 17.619-9.848 2.429-.353 4.306 2.01 5.454 1.347.243-.132 2.782-4.085 3.113-4.659 1.921-3.223 2.297-6.602 3.953-9.627.198-.375 2.826-3.599 2.605-3.775-4.438.53-9.207 1.06-13.336 2.958-1.789.817-3.599 2.209-5.366 3.136-.971.508-5.718 2.98-6.381 2.98-2.252 0-.176-1.633 0-2.009.199-.463.045-1.06.199-1.346.707-1.26 13.358-7.154 15.478-7.905 3.025-1.082 5.741-1.612 8.965-1.81.971-.067 2.804.308 3.378.22.596-.088 1.369-1.457 2.164-.331.176.883-.884 1.126-1.082 1.744-.243.84 0 2.23-.133 3.268-.905 6.58-6.16 11.239-9.494 16.56-.464.729-1.148 2.738-1.237 2.87zm7.705-23.162h-1.7c-.353.155 1.502 1.104 1.7 0m1.414 3.4c.684-.264.75-.684.132-1.125zm-1.701 1.7-1.656 1.878c-.066.596-1.633 3.267-1.457 3.488.42.486.618-.375.729-.53.971-1.368 2.208-3.157 2.384-4.857zm-17.553.575a12.2 12.2 0 0 0-4.239 2.54c1.457-.53 3.289-1.326 4.239-2.54m17.266 3.665c.111.133.751-.486.552-.839-.11-.132-.75.486-.552.84m-.552 1.148c-.618-.154-.64.354-.905.64-1.214 1.303-3.047 3.158-3.047 5.013.64-.42 4.217-5.41 3.952-5.653m-11.614 13.028c-3.334.353-6.646.927-9.693 2.34a172 172 0 0 0-7.551 3.776c-.729.397-4.085 3.444-4.239 3.996-.707 2.495 4.681 1.104 5.74 1.215.641.066 2.562.463 3.379.64.883.176.971 1.038 1.192 1.06.53.044 3.025-2.429 3.555-2.959 2.186-2.252 5.741-6.47 7.308-9.119.177-.31.42-.53.331-.95zm-2.848 7.065c-.287-.287-1.457 1.104-1.678 1.347-.265.265-1.943 2.098-1.722 2.318l1.28-.839 2.12-2.848zm-12.851 5.785c-.883-.464-3.223.044-4.548-.132-.596-.089-2.539-1.193-2.738-.376-.684 3.025 6.845 2.804 7.949.972-.42.132-.53-.398-.663-.464M341.76 26.242c-4.88 7.353-9.164 15.147-14.043 22.434a5.6 5.6 0 0 0-.574 1.346c1.28 0 2.274-1.633 3.268-2.406 3.334-2.65 6.911-5.564 10.995-7.132 1.413-.552 3.379-1.303 4.814-.464.441.265.53.795.751.95.993.662 1.678-.707 1.832-.707.066 0 .883.795.905.972.023.309-.397.817-.419 1.192 0 .486.243.927.199 1.325-.53 5.321-4.681 13.8-8.06 17.995-.264.331-.949.883-1.258.574-.375-.398 3.268-5.432 3.731-6.315.773-1.48 1.921-4.129 2.518-5.696.397-1.038 1.037-2.495.706-3.555-1.568 1.832-2.87 4.018-4.063 6.138-1.634 2.87-2.98 6.558-4.614 9.251-1.06 1.745-3.666 4.13-3.356.464l-1.259 1.148-.949-.95 12.431-18.745c.132-.685-.53-.42-.95-.376-7.595.707-13.402 5.255-18.017 10.864-1.325 1.612-3.135 4.968-4.791 6.249-.663.53-1.215.264-1.723.551-.309.177-1.126 1.679-1.567 2.12-.795.817-4.77 4.372-4.814 1.722-.022-1.413 5.123-6.447 6.205-7.993 3.422-4.835 6.403-11.26 9.693-16.36 3.709-5.764 7.838-11.24 11.592-17.024 4.239-6.536 7.22-10.091 12.453-15.876 1.126-1.236 4.835-6.447 6.248-6.514.442-.022 1.082.177.972.707s-5.101 5.542-5.94 6.514c-4.68 5.564-8.854 11.503-12.872 17.575zm-20.27 29.013c.574.11.795-.375 1.126-.706 3.29-3.445 8.567-13.027 11.107-17.51.507-.883 1.192-2.009 1.369-3.025l-2.959 3.423c-3.621 5.895-7.287 11.79-10.643 17.818m24.089-13.027c.045-2.142-5.784.42-5.652.707.221.508.729.375 1.148.309 1.435-.177 3.069-.817 4.527-1.016zM307.626 7.96c.618.905-3.334 3.798-3.974 4.394-13.469 12.652-22.544 21.373-32.127 37.558-1.457 2.45-4.879 7.75-4.99 10.333-.044 1.038.53 1.877 0 2.959.884.265 2.186-.508 2.915-.243.839.287.132 1.722 2.517.442.375-.2.53-.707.707-.751 1.148-.265 2.583 0 1.921 1.413-3.136 2.252-6.757 3.82-10.577 4.173-.463-1.656-4.04 0-3.974-2.053.022-1.259 3.621-6.028 4.548-7.596 3.003-5.189 5.631-12.21 8.921-16.869.176-.243.353-.574.662-.596l-.132 1.413 2.406-3.246c-1.258-.485-.927 2.208-2.252 1.413.95-1.634 2.186-2.848 3.135-4.526.243-.42.199-1.082.332-1.236.11-.133.706-.089 1.082-.464.817-.817 1.678-2.451 2.539-3.4.64-.707 1.545-2.054 2.539-1.568-.751-1.59.751-.773.839-.84.177-.11 0-1.17.132-1.412.243-.398.751-.464.994-.729 5.807-6.977 13.116-12.254 19.982-18.238.597-.464 1.149-.508 1.833-.287zM281.55 32.6s1.06-1.678 1.126-1.987l-1.7 1.832c-.045.243.53.177.552.133zm-2.12 1.7v.287c.177-.088.177-.199 0-.287m-.419.861c-.243-.287-.729.155-.729.53l-1.811 3.158c.597-.287 2.827-3.357 2.54-3.688m-13.315 25.194c-.706.971-2.186 2.693-2.693 3.687-.597 1.148 1.435.927 2.097-.177.552-.927.64-2.45.596-3.51m3.688 3.974c-1.104-.044-2.186.442-3.114.993-.375.221-.706-.044-.552.707.751 0 1.414-.31 2.098-.596.42-.177 1.369-.662 1.59-1.104zM239.642 17.874c-.485.42-3.025 2.517-3.113 2.694-.154.309.066.551.42.419l8.854-5.3c.75-.419 2.362-.706 1.7.442-.155.265-4.394 2.87-5.057 3.29-4.283 2.628-9.361 4.836-13.38 7.86-1.391 1.06-2.627 1.966-3.312 3.622.861.265 1.214-.972 1.59-1.082.728-.22 2.142-.133 3.29-.42 9.406-2.384 29.984-11.812 35.924-19.386 1.015-1.302 3.422-5.078 2.097-6.58-.794-.883-4.173-1.324-5.365-1.368-11.327-.464-24.2 4.04-34.975 7.463-3.135.993-6.27 2.495-9.582 3.157-1.943.397-4.792 1.192-5.013-1.612-1.413.928-3.047 1.457-4.482 2.319-1.038.618-4.592 3.51-5.144 3.62-.155.023-.464.067-.42-.154.662-.662.817-1.501 1.546-2.12 5.387-4.703 16.626-7.705 23.537-9.604 14.131-3.909 23.625-5.962 38.507-4.836 2.495.199 5.432 1.126 6.956 3.246.485.684.529 1.369.883 1.943 1.501 2.362 3.356 2.142.353 5.255-3.577 3.731-14.771 9.406-19.739 11.967-.906.464-6.492 2.826-6.713 3.202-.463.883 2.164.199 2.407.199 4.283.132 6.072.706 8.633 4.062.353.464.376 1.082.729 1.546 1.192 1.501 2.561 1.148 3.378 3.974 3.312 11.35-12.409 23.758-21.285 27.998-12.563 5.983-28.152 10.2-42.173 9.119-.441-.044-3.334-.53-3.488-.619-.552-.33.022-1.678.728-1.898.795-.243 2.032.044 3.003-.133a56 56 0 0 0 4.615-1.06c.375-.11.883-.022.971-.574-.839.11-1.545.287-2.406.31-2.628 0-6.757-.221-8.987-1.502-2.495-1.457.066-3.047.64-2.473.045.044-.132.795.288 1.28.22.243 1.788.862 2.185.928 11.482 1.92 29.61-4.195 40.583-8.28 7.221-2.694 17.444-8.832 19.188-17.068.927-4.416-2.451-10.797-7.419-10.532-5.829.287-14.595 3.842-20.314 5.74-1.015.332-7.242 2.385-7.463 2.739-.265.441.177.993.111 1.501-.199 1.656-3.091 1.126-4.284 1.391-.839.177-4.747 2.782-5.299 2.208-.331-1.501.729-1.126 1.744-1.788 1.104-.729 2.716-1.921 3.732-2.782.508-.398 2.583-2.716 2.914-2.76.332-.045.553.463.972.42.574-.067 1.789-.752 2.473-.928 4.041-.95 8.147-1.767 11.945-3.489l-7.22.287c-1.921.177-5.785 1.148-7.419 1.06-1.325-.066-.75-1.104-2.76.353-5.785 4.24-13.866 12.166-18.701 17.554-3.71 4.107-6.536 9.03-9.274 13.822-1.943.905-1.678-1.37-1.06-2.54.199-.353.817-.485 1.126-.905.442-.596 3.378-4.636 3.113-4.968-.883.354-3.819 3.003-4.504 2.517-.221-.154-.088-1.368-.728-1.103-.53.22-.994 1.236-1.369 1.59-1.127 1.06-2.937 2.781-4.174 3.62-.331.221-.905.729-1.258.177-.574-.905.552-1.722 1.126-2.274 2.848-2.782 6.249-5.1 9.207-7.772 5.366-4.858 10.069-9.936 15.721-14.573.95-.773 7.397-5.343 7.419-5.807 0-.22-.397-.552-.397-.84 0-1.5 1.126-1.103 1.656-1.346 1.324-.618 3.047-1.148 4.173-1.789 2.583-1.457 7.043-6.182 9.582-8.324 1.104-.927 6.072-5.498 6.58-5.807.42-.243 1.082-.154 1.745-.53.927-.507 3.29-3.709 4.482-2.892 1.104.75-.795 1.612-1.148 1.987-1.215 1.237-2.12 1.877-3.379 2.98 0 0 .111-.595-.132-.573l-.707.706c.155.045.817-.11.839-.154zm33.65-14.396c-.132-.243-2.407-1.634-2.87-1.81-.883-.332-1.789-.575-2.738-.509l5.52 3.114c.265-.045.177-.619.088-.795M248.408 2.02c-4.35.685-8.766 1.259-13.027 2.407-5.167 1.369-11.393 3.312-16.472 5.056-.75.265-2.34.729-2.892 1.082-.95.597-1.082 1.37.199 1.347 3.245 0 9.803-3.003 13.225-4.085 3.953-1.258 7.905-2.539 11.879-3.687 1.943-.552 3.975-.927 5.896-1.48.331-.088 1.192-.242 1.192-.64m19.276 8.214c.596.486 5.211-3.952 5.365-4.703.155-.75-2.274-1.788-2.517-1.523.089 2.428-1.634 4.327-2.826 6.226zm7.065-3.974c-.441-.31-3.621 3.29-4.261 3.797-7.375 6.072-16.869 11.018-25.282 15.5l-1.898 1.37c4.195-1.855 8.39-3.71 12.475-5.808 4.857-2.472 9.715-5.188 14.175-8.191 2.098-1.413 6.867-3.621 4.791-6.668M259.183 30.9c-2.362-5.21-9.848-3.708-14.396-2.914l-9.693 4.041c8.081-.75 15.986-3.82 24.067-1.126zm.839 8.215c.066-1.9.707-4.416-.154-6.205-.552-1.148-3.489-1.347-4.659-1.722-.464.464 1.479 1.634 1.7 1.92 1.523 1.878 1.899 3.38 2.539 5.61.11.419-.155.485.574.419zm1.148-5.388v4.394c0 .685-1.302 4.57-1.634 5.432-4.813 11.99-19.849 16.582-30.757 21.086-8.147 3.356-12.321 4.063-20.91 5.41-.463.066-4.195.993-4.173 1.192.663.088 1.48.353 2.12.375 14.175.089 35.306-6.028 46.324-15.08 5.431-4.46 13.733-13.27 10.73-20.932-.132-.31-1.192-2.407-1.656-1.877zm-40.229 5.675c-.199-.243-2.451 1.545-2.54 1.987 1.502.375 2.849-.177 2.54-1.987m-25.503 15.853c2.208-.331 3.997-2.804 5.211-4.57.199-.265.972-1.126.751-1.392-.707.221-6.315 5.653-5.94 5.94zm30.316 9.362-5.873 1.612-3.754 1.48c1.943-.442 3.754-.663 5.653-1.281 1.17-.376 3.135-1.016 3.974-1.833zm-10.201 2.826c-.353-.198-.993.464-.839.552.353.199.994-.463.839-.552m-2.981.574v.287c.177-.088.177-.198 0-.287"/><path fill="#282626" d="M248.98 14.76v.574h-.839c.088-.42.463-.64.839-.552zM535.621 36.796c-.088.198-.485-.177-.287-.575.089-.198.486.177.287.575"/><path fill="#282626" d="M558.759 20.192c-.972.176-1.502-.861-2.407-.861-1.148 0-3.378 1.832-4.968 1.435-.066.728 0 .441.42.574.816.243 2.958.353 2.715 1.546-.287 1.39-1.479-.045-2.715-.133-2.164-.155-4.968.75-7.11 1.104-2.959.795-7.64.265-10.378 1.236-1.501.53-.861 1.833-1.082 2.893-.176.883-.817 1.17-.552 2.561.133.618 1.568 2.252 2.12 2.694 1.104.905 5.741 3.886 6.977 4.35 3.29 1.28 7.198.132 9.605 3.71 2.098 3.112.795 5.254-.287 8.345.11.133 2.76-1.501 2.981-1.7.728-.64.927-1.59 1.832-2.407 2.098-1.92 4.041-2.693 6.227-5.1.662-.729 2.914-3.224 3.202-3.908.728-1.789-1.414-3.136 1.435-4.504 2.848-1.37 12.1-2.164 15.345-2.208 2.208-.045 5.123.287 7.22.993.817.287 1.126.508 1.568 1.259 3.489-3.202-4.725-2.451-6.536-2.54-7.551-.33-15.809-.264-22.212 4.394-.287.2-1.833 2.451-2.274.817-.508-1.898 4.151-3.864 5.52-4.371 6.359-2.451 14.197-2.694 20.976-2.275 1.457.089 5.476.552 6.359 1.568 1.81 2.053-1.259 3.467-2.385 4.703-2.318 2.517-2.605 3.29-5.917 5.123-3.599 1.987-14.485 5.034-18.349 4.084-.773-.198-1.28-.905-1.59-.971-.839-.177-1.28 1.104-1.81 1.501-4.195 3.268-8.633 6.094-13.027 9.053-1.281.53-1.678-.552-2.341-.397-.375.11-2.495 1.479-3.312 1.81-5.188 2.098-12.983 2.915-18.547 2.407-2.539-.22-5.387-1.391-7.971-1.656-1.457-.155-4.857.464-5.63-.883-.486-.84 1.126-1.988 1.987-1.988 1.413 0 3.224.972 4.681 1.281 8.788 1.877 17.509 2.252 25.48-2.583.928-.552 4.527-4.13 4.902-5.012.442-.994.022-1.634-.508-2.451-1.347-2.054-5.873-4.13-8.258-4.77-1.435-.397-3.356-.596-4.901-1.06-1.679-.507-5.984-1.986-6.867-3.333-3.644-5.653.971-9.804 5.476-12.763 6.16-4.04 13.822-5.32 21.064-5.85 1.17-.09 6.315-.266 6.8.551 1.082 1.81-1.678 1.325-2.539 1.435-2.539.354.155 1.634-.441 2.253zm-5.101-1.413c-4.747.42-10.112 1.302-14.683 2.738-.883.287-2.34.75-2.892 1.5 2.362-.352 5.233 0 7.485-.286.795-.11 5.365-.972 5.917-1.17.375-.133.729-.928 1.237-1.325 1.081-.861 2.053-.64 2.936-1.457m-16.14 17.553c-2.23-1.082-6.05-3.687-6.249-6.381-.088-1.28.64-2.561.155-3.82-.707.883-3.091 3.312-2.937 4.328.155.927 2.561 3.952 3.356 4.305.552.243 1.193.067 1.7.287.928.398 2.01 1.215 3.025 1.502.265.066.994.265.928-.22zm32.568 2.826c4.195-.794 9.008-1.523 13.027-2.98 2.097-.751 4.063-2.208 6.226-2.849 1.436-1.015-1.678-1.7-2.428-1.81-4.107-.508-14.684.154-18.525 1.545-2.297.84-1.347 1.082-1.436 2.54-.044.618-.618.949-.552 1.567l5.277-2.937c.552-.441.884-1.457 1.656-1.324 1.833.353-.066 1.92-.11 2.164-.044.33.42.596.508.883.375 1.325-3.069 2.186-3.643 3.18zm17.134-3.4v.287c.176-.088.176-.199 0-.287m-.994.574c-2.583.707-5.056 1.722-7.64 2.407-3.908 1.06-7.992 1.59-11.923 2.54-.419.087-1.015.242-1.126.728 1.435.309 2.915.397 4.394.287 3.577-.287 10.51-1.921 13.557-3.732.839-.508 2.076-1.457 2.738-2.23m-35.129 9.914c.817-2.76-.839-5.962-3.952-5.94l2.782 3.026zm13.049-5.94c-.397-.198-.751.177-.574.288.398.198.751-.177.574-.288m-14.838 8.943c.31-.375 1.104-1.347.817-1.877l-4.106 4.394c1.192-.486 2.495-1.523 3.289-2.517M615.219 44.083c-.684.508-3.511 3.29-3.467 3.996.155 1.943 8.855.044 10.157-.287 2.562-.662 6.668-2.031 9.075-3.113.795-.354 3.29-2.451 3.975-1.546.618.84-3.489 3.047-4.152 3.356-4.438 2.142-12.342 4.549-17.222 4.306-1.479-.066-4.747-1.987-5.343-1.943-.552.044-1.259.773-1.833.994-8.412 3.179-15.743 5.85-24.818 3.466-.596-.154-1.148-.706-1.788-.795-.95-.132-2.363.53-3.467.243-.221-.971.95-1.369 1.082-2.186.133-.905-.751-1.899-.176-3.555.22-.596 2.384-2.142 3.069-2.583 5.409-3.621 12.74-6.094 19.253-4.858 3.975.751 2.098 4.107-.198 5.763-1.789 1.303-3.445 1.524-5.344 2.319s-3.797 2.163-6.072 2.274c-1.17 1.435 3.776 1.148 4.35 1.104 4.438-.42 11.106-2.451 15.169-4.372.662-.31 1.877-2.274 2.672-2.848 2.075-1.524 12.961-5.322 15.676-5.719.839-.11 4.24-.397 4.946-.287.42.066 1.568.552 1.634.95.199 1.037-1.214.463-1.545.485-4.262.287-12.233 2.296-15.611 4.858zm-14.816-2.65-1.987-.287c.398 1.082-.044 2.142-.574 3.113.508.398 3.003-2.186 2.539-2.826zm-20.976 6.514c.133.154 1.171-.287 1.546-.287 3.599.088 6.867-.243 10.444-.884 2.782-.485 4.04-1.435 5.829-3.532.243-.287.419-.354.287-.817-.265-.442-.773-.64-1.281-.707-4.526-.706-11.216 1.744-14.992 4.217-.397.265-2.451 1.347-1.833 1.988zm31.155 0c-.331-.84 2.252-3.4 1.987-3.688-1.457.486-5.343 3.202-1.987 3.688m-21.241.574c-.795-.044-1.876 0-2.274.839.685-.11 1.921-.11 2.274-.84m-6.513 2.252c-.42-.795-2.782-1.215-3.114-.42-.596 1.413 2.385.089 3.114.42m4.548 1.126c-.883-1.7-2.671-1.016-3.974-.133 1.214.795 2.671.354 3.974.133M669.71 31.873c1.192 1.148-.199 2.495.066 2.76.839.816 5.763-2.716 6.713-2.76 1.082-.045 1.965.883 1.744 1.987-.044.199-1.744 3.312-1.987 3.71-.574.882-1.789 2.273-2.517 3.157-2.628 3.201-5.697 6.05-8.501 9.075-1.082.33-1.524-.773-.994-1.59.221-.31 1.016-.332 1.391-.597.574-.397 1.877-2.163 2.54-2.715.154-.133.618 0 .706-.11.155-.177-.066-.73.11-1.038.067-.11 1.369-.994 1.789-1.48 2.274-2.672 4.725-5.365 5.807-8.788-1.612.177-2.495 1.855-4.239 1.127-.089.088.419.684.287.839-.177.242-4.129 1.987-5.123 2.98-1.104 1.104-2.407 3.158-3.555 4.372-1.7 1.789-3.643 3.356-5.343 5.145-2.782 1.06-.883-1.789 0-2.827 2.694-3.046 8.412-7.153 9.87-10.797.176-.42.375-.816.441-1.258.022-1.502-8.081 3.003-8.589 3.312-4.305 2.65-6.337 7.021-10.112 10.576-.486.442-2.871 2.606-3.202 2.76-1.524.663-2.098-.773-1.281-2.142 2.628-4.482 9.738-9.472 13.844-12.784 1.436-1.148 1.325-.596 2.54-.839 1.479-.31 6.138-3.444 7.573-2.076zm-15.633 8.986v.287c.177-.088.177-.199 0-.287m-.419.574c-1.744.221-2.296 1.7-3.246 2.849-.375.441-.993.507-1.302 1.236-.133.31-.42 1.082.154 1.016.155 0 1.612-1.988 2.12-2.43.353-.33.927-.33 1.082-.485.22-.22.507-1.788 1.214-2.186zm11.747 7.353v.287c.176-.089.176-.199 0-.287M697.201 39.358c-3.732 2.914-10.488.971-14.219 2.362-.884.331-3.335 2.186-3.246 3.224.176 2.075 2.649 2.76 4.394 2.583 1.037-.11 5.785-1.943 7.021-2.473.861-.375 6.072-3.334 6.425-3.047.486.375.199 1.877-.574 2.12-4.239 1.656-8.589 4.88-13.204 5.21-3.135.221-6.999-2.472-5.917-5.917.508-1.612 3.29-1.832 2.429-3.665.773 0 1.479.11 2.252-.155.905-.309 2.892-2.428 3.864-2.936 1.369-.707 2.892.154 3.93-1.745.574 1.48.618.133.994-.132.883-.618 4.703-.331 5.939-.287 1.48 1.258 1.48 3.665-.066 4.858zm-5.167-3.864v.287c.177-.089.177-.2 0-.288m1.833 1.126c-1.899-.11-7.066.86-8.302 2.252-.287.309-.199.486-.177.86 1.855-.087 3.334-1.103 5.034-1.633.508-.155 3.357-.508 3.467-.64.044-.067-.044-.619 0-.84zM710.845 33.24c.463.31.287 2.23.022 2.805 1.258-.177 1.987-.905 3.356-1.06.795-.088 2.848-.066 3.444.375 1.458 1.06.663 4.483 0 5.962-.132.331-2.031 3.157-2.252 3.4-.795.883-.397-.044-1.303 1.502-.309.552-1.192 1.634-1.722 1.965-1.325.817-3.643 1.104-3.091-1.104 1.7-1.678 6.734-6.249 7.176-8.413.419-1.965-3.29-1.126-4.438-.75-3.599 1.214-9.804 8.125-11.879 11.349-.199.309-.133.64-.773.353-1.17-.486.464-2.429.133-2.826-.133-.155-2.12-.133-1.082-1.524l7.22-6.513c.287-.663 2.009-3.776 2.362-4.019.287-.198.839-.088 1.126-.287s.552-1.987 1.678-1.236zM646.481 39.093c-3.29 2.164-6.16 5.255-9.273 7.573-1.281.95-3.312 1.855-4.703 2.804-.751.508-3.423 3.644-4.218 1.877-.419-.927 1.458-1.325 1.833-1.59 3.974-2.848 8.987-7.22 12.784-10.443 1.016-.861 1.7-2.517 2.959-2.451 1.369.066 1.17 1.258.618 2.208z"/><path fill="#282626" d="M688.633 35.758c.176.088.176.198 0 .287z"/></svg>