<svg xmlns="http://www.w3.org/2000/svg" width="872" height="63" fill="none"><path fill="#282626" d="m718.636 20.432-4.746 7.932c2.949 1.83 5.254 1.356 7.492 4.475 2.508 3.491 4.644 9.763-.577 11.797-5.22 2.033-10.508.847-15.729.101.712-3.424 5.492-1.66 7.865-1.83 1.762-.136 7.695-1.797 8.135-3.695.339-1.492-1.762-5.797-3.389-6.272-1.289-.372-4.441-.203-5.797.238-1.865.61-2.102 2.813-3.458 2.78-3.22 0-2-3.73-.78-5.458 1.458-2.034 3.594-4.407 5.255-6.678.779-1.051 3.424-2.475 2.983-4.136-.136-.509-2.305-2.034-.915-2.915.576-.34 5.559.101 6.949-.068 2.373-.238 10.034-2.882 11.424-.543.373.61.441 1.526 0 2.136-.441.644-12.848 1.729-14.746 2.102l.034.034ZM691.282 31.957c-2.475 2.949-5.695 5.728-7.966 8.542-.373.44-1.966 2.34-1.559 2.678l13.491-2.576c-1.83 2.746-6.339 3.83-9.457 4.813-1.187.373-8.984 2.509-9.458 2.475-1.119-.102-1.966-1.186-1.865-2.339.17-1.695 9.458-9.254 10.645-11.729 2.169-1.017 3.864-3.05 5.457-4.915.983-1.153 5.255-6.407 4.17-7.526-4.678-.034-12.373.983-16.272 3.695-.949.644-1.661 2.509-2.678 2.373-.508-.068-2.61-2.203-2.305-2.915.068-.136 2.034-1.661 2.17-1.73 4.542-2.338 11.898-3.796 17.254-4 10.882-.44 1.187 9.831-1.627 13.154ZM864.982 36.096c.17.27 1.255.305 1.39.915.305 1.22-1.83 2.983-2.068 4.61-.237 1.898.373 11.763 2.373 12.238.882-.136 4.441-4.475 4.916-1.797.034.271-1.933 4.678-2.136 4.848-.61.542-4.542-.78-5.356-1.526-.474-.44-2.373-3.458-2.644-4.102-1.864-5.05 1.763-8.508-5.865-8.712-3.322-.068-.339 2.78-.711 4.678-.577 2.746-7.356 11.39-8.17 4.34 1.763-3.933 2.814-8.238 4.407-12.204 3.457-8.577 7.729-16.068 12.407-23.899 1.186-2 2.508-8.78 6.034-5.424 1.356 1.288-.509 2.644-.814 3.865-.508 2.068-1.22 4.644-1.661 6.644-.407 1.864-2.508 14.915-2.102 15.593v-.067Zm-3.728-6.645c-1.39-.27-.882.34-1.289 1.017-1.661 2.814-2.813 6-4.406 8.814 7.356 1.017 4.576-4.95 5.695-9.864v.033ZM795.86 35.687c.238 2.746-.712 5.356-1.017 8.034-.237 1.966.17 4.034-.135 6.102-.576 3.864-3.865 6.305-3.831 1.763.068-11.865 2.644-25.662 7.492-36.51.78-1.728 3.356-8.508 5.831-6.678l.474 2.61c-2.136 3.865-8.712 16.204-7.797 20.17.441 1.933 12.611.441 14.509-1.017 2.237-1.66 3.898-9.084 5.119-12 1.152-2.712 2.644-5.39 3.83-8.102.678-1.525.441-4.237 2.746-4.034.644.068 1.017.272 1.221.882.983 2.983-4.441 12.542-5.662 15.966-1.22 3.424-6.847 24.034-5.152 25.696.135.135 2.203-.068 2.847 0 1.695.203-1.559 4.339-5.186 1.559-3.288-2.509.305-12.17-.238-16.068-.203-.237-4.678 1.56-5.457 1.56h-9.594v.067ZM825.963 50.197c6-.373 9.864-7.492 11.288-12.848.203-.78 0-2.644.136-2.745.101-.102 2.745-.102 3.05.067 2.678 1.661-3.389 12.475-4.881 14.407-4.848 6.407-12.543 8.272-13.153-1.864-.237-3.661 1.899-5.966 1.492-9.526.373.068 2.068-.101 2.068 0v12.509ZM321.747 57.417c2.068 1.322 5.831-2.136 6.678-1.492-9.356 12.916-11.695-4.95-12.915-12.271-.17-1.085-.373-6.509-.644-6.882-.034-.067-1.254-.542-1.526-.339-.44.305-2.135 3.865-2.915 4.916-2.068 2.847-8.305 9.864-12.136 8.102-3.627-1.696-4.746-10.713-6.305-11.594-.441-.237-1.424.034-1.864.271-.644.305-3.085 6.373-3.831 7.627-1.119 1.831-3.051 5.085-5.288 4.509-1.966-.508.407-9.051.169-11.187-.135-1.288-1.22-3.288-1.051-4.135.339-1.73 2.543.847 2.848 1.322.983 1.593.61 2.61 1.051 4.136 1.051 3.593 2.712-2.78 3.152-3.594 1.289-2.339 3.899-4.407 6.611-2.678.305.204 2.678 5.051 3.051 5.899 1.22 2.949.779 8.135 5.796 5.423.611-.339 5.933-5.152 6.543-5.898 1.457-1.763 2.373-8.34 4.508-8.407 1.526-.034 2.645 1.56 3.153 2.881 1.39 3.628 3.186 22.272 4.915 23.357v.034ZM247.407 3.078c.305.508 0 1.796.067 2.508-7.695 1.254-15.797 2.61-22.475 6.848-2.576 1.627-6.779 6-7.864 8.746-2.373 5.966 3.966 11.695 8 15.288 2.508 2.237 8.78 4.61 7.017 9.051-.169.475-4.61 5.322-5.187 5.729-1.254.881-8.542 4.034-9.593 3.39-3.153-1.966 4.102-4.17 5.424-4.983 1.119-.644 6.508-4.916 6.441-5.865-.136-1.763-3.153-2.949-4.339-4-6.034-5.288-14.034-11.898-10.034-20.915 4.271-9.628 20.542-15.458 30.407-16.306.508-.034 1.932.17 2.136.475v.034ZM354.868 32.06c.712 3.017 2.915 14.068 4.814 15.932 2.034 1.967 3.39-2.542 6.102-1.423-2.373 8.068-9.051 6-11.153-1.051-2.102 0-3.017 7.458-9.119 5.492-.576-.204-3.119-2.102-3.627-2.61-.576-.577-.644-1.492-1.051-1.967-.746-.881-5.526-7.085-6-7.153-2.475-.339-1.526 2.373-1.898 3.797-.272 1.051-1.933 6.78-2.204 7.119-.61.78-2.474.373-2.78-.102-.237-.407-.169-5.932 0-6.813.272-1.153 1.424-1.967 1.729-2.95.712-2.339-.101-7.05 4-6.17 3.492.78 9.356 10.103 12.001 12.916 1.627 1.288 2.915-.068 3.932-1.322 2.576-3.186 2.61-8.61 2.678-12.61l2.508-1.153.068.068ZM267.811 52.196c.882.543 5.255-.203 6.645.102 1.118.983-4.95 3.898-7.255 2.847-2.508-1.152-4.237-7.932-4.169-10.61-.712-.847-2.339 2.542-2.983 3.119-.746.678-5.526 3.525-6.441 3.796-9.322 2.712-11.153-4.78-10.306-12.373.204-1.762 2.746-9.627 4.882-9.05 2.441 2.745-.78 5.965-1.559 8.779-.611 2.237-1.458 9.322 1.593 9.865 1.118.203 3.898.135 5.085-.102 2.271-.475 8.135-4.915 9.051-7.017.678-1.526.406-4.644.881-5.322.678-1.017 2.576-.78 2.881.813.475 2.509-.203 14.102 1.661 15.22l.034-.067ZM381.848 36.74c-.373.679 2.068.408.509 1.289-3.695 2.068-7.051.61-7.289 6.78-.101 2.271 2.441 4.78 4.407 4.881.373 0 6.373-1.864 7.153-2.17.237-.101 3.322-2.643 2.474-.643-.339.813-4.203 3.728-5.186 4.17-3.526 1.525-7.492.982-10.339-1.594-3.322-3.017-.678-6.373-1.051-9.288-.136-.983-1.221-1.322-1.051-2.373 3.356 1.22 4.305-3.763 6.678-5.153 1.831-1.085 6.373-2.542 7.593-.034 1.39 2.814-1.491 4.102-3.898 4.17v-.034ZM418.157 29.994c-8.678-3.695-11.899 3.932-15.424 10.27-.78 1.425-3.729 10.51-6.407 7.153-1.119-1.39.305-2.305.542-3.695.475-3.05-1.457-4.034 2.644-4.101 2.95-4.102 5.662-12.204 10.95-13.424 3.39-.78 8.339-.78 7.695 3.83v-.034Zm-2.068-3.12c-2.169-.27-2.169.78 0 .51v-.51ZM491.409 55.008c5.593.983 10.136-1.898 14.95-3.83-1.356-1.085-1.187-2.373-.78-3.898.169-.577 4.339-6.814 4.949-7.526 1.898-2.237 6.237-5.661 9.187-5.898 4-.34 2.034 3.796 2.237 5.864.136 1.424 1.661 3.593 1.966 4.848.407 1.728-1.627 3.66 3.153 2.373 1.525-.407 7.254-4.679 8.135-5.865 1.628-2.237 2.78-8.915 6.984-6.983 4.203 1.932-.238 8.203 0 11.661.542.61 6.271-4.034 6.983-4.678 1.763-1.526 4.474-6.61 7.83-4.17 1.492 1.085 4.238 6.882 5.255 7.22 2.339.814 4.644-1.457 6.915-1.49.475 3.084-2.339 3.49-3.356 6.101-3.39-.44-5.898-2.034-7.864-4.78-.712-.983-1.594-4.44-2.983-4.407-1.255.034-9.187 10.577-14.035 10.136-4.847-.44-1.525-5.593-1.864-8.407-.339-2.644-1.526.882-1.831 1.255-1.525 1.932-4.508 5.22-6.61 6.373-.542.305-4.915 2-5.322 2-4.237-.068-3.831-5.458-5.39-7.526-.949-1.254-4.542 3.085-5.797 4.034-3.83 2.915-11.932 8.61-16.339 9.593-1.661.373-4.441.848-6.068.475-.644-.136-3.966-2.61-4-2.847-.644-2.577.712-9.56 1.695-12.238 1.898-5.153 10.814-15.594 17.017-12.577 4.407 2.17-5.017 9.526-7.017 10.645-1.627.881-5.932 1.796-6.712 3.152-.373.645-1.796 7.085-1.864 8.068-.068 1.153.101 2.238.61 3.288l-.034.034Zm11.322-21.695c-.339-.407-4.779 2.881-5.186 3.356-.61.678-2.339 3.288-.746 3.899.983.372.814-1.356 1.492-2.136.983-1.119 3.22-2.102 3.932-2.78.508-.474.746-2.068.508-2.339Zm15.051 5.695-2.847 1.017-3.865 5.187c.848.813 7.187-5.865 6.746-6.204h-.034ZM485.006 26.975c-.543.305-1.356.068-1.967.102-.271.847 1.017.237 1.085.813-3.559 7.085-4.915 15.12-8.339 22.272 1.492 1.797 2.576-2.61 4.644-1.83-1.152 1.322-1.356 3.491-2.305 4.712-.441.576-9.051 5.66-10.305 6.27-9.695 4.747-21.255 7.153-22.136-7.118-.644-10.237 6.949-24.475 15.153-30.509.983-.746 2.915-1.05 3.389-1.526.441-.406.407-1.491 1.187-2.203 2.136-1.966 12.882-6.678 15.797-7.017 1.051-.136 4.746-.237 5.593 0 .678.17.61 1.83 1.661 1.56 2.882-4 5.458-8.814 9.39-11.9 1.865-1.457 3.526-.067 2.543 2.035-3.051 3.796-6.475 7.56-8.984 11.763-1.017 1.695-5.796 12.17-6.406 12.508v.068Zm-34.137 33.831c3.153-1.017 7.458-.17 10.509-1.152.644-.204.983-.95 1.458-1.153 1.322-.508 9.152-3.864 9.559-4.44.576-.848.068-3.018.373-4.306.78-3.56 3.017-10.237 4.305-13.864 2.271-6.543 5.627-12.543 8.983-18.543-.644-4.136-1.389-4.407-5.661-3.525-6.712 1.355-19.085 10.983-23.526 16.407-5.627 6.881-11.051 20.271-6.508 28.644.339.644 1.525-.17.508 1.932ZM577.178 32.298c5.051 2.712-3.559 14 1.289 16.339 2.61 1.254 9.695-4.407 10.644-6.509.61-1.356-.848-2.339-.678-4.237.169-2.034 1.627-7.085 4.339-5.119 2.712 1.966.068 6.136.203 8.577.238 4.678 6.136 8.644 9.899 5.22.576-.509 4.271-7.187 5.051-3.085.406 2.102-2.339 5.56-4.068 6.644-5.492 3.424-10.814 0-13.695-4.881-4.238 7.254-16.611 10.678-16.373-1.322 0-1.729 1.627-11.661 3.423-11.661l-.034.034ZM618.567 31.11c-2.406-1.898 3.526-2.813 4.882-3.423.915-.407 2.712-1.56 3.559-2.17.848-.61.407-2.135 2.78-1.593-.237-2.576 2.542-4.407.814-6.678-2.814-3.729-14.713-2.068-17.153 1.492-1.322 1.966-.272 4.983-3.831 3.898-6.678-2.068 4.543-9.695 7.56-10.577 4.101-1.186 12.169-.881 15.525 2 5.56 4.78 0 13.051-5.152 15.594-1.831.881-7.289 2.746-8.984 1.39v.067ZM609.655 29.178c.712-.508 2.813.271 2.949 1.39l4.814 18.034c0 2.068-3.017 1.119-4.102.441-3.153-1.932-2.237-7.39-2.644-10.34-.204-1.626-1.966-8.88-.983-9.559l-.034.034ZM771.891 32.433c-7.933.983-15.797 2.204-23.764 1.661 0-.949-.237-2.17.848-2.508 6.339-.17 14.034-2.644 20.17-2.712 2.712 0 4.169.848 2.746 3.593v-.034Z"/><path fill="#282626" d="M673.415 27.144c.373.373-1.593 9.628-4.407 8.814-2.237-.644.949-7.458 1.729-8.509.576-.711 1.898-.203 2.644-.305h.034ZM147.679 42.299c.271-.17.136-1.153.949-.814 2.034.78.949 9.492 6.611 6.712.915-.44.983-2.576 2.474-1.83 2.238 1.152.339 1.83.238 2.033-1.051 1.695-2.984 3.797-5.187 3.933-2.814.17-4.271-3.56-4.712-3.661-1.593-.34-3.763 2.17-5.424 2.813-10.339 4.136-8-6.78-2.779-11.627 1.762-1.627 8.406-5.729 7.864-.746-.136 1.187-2.847 1.39-3.966 2.068-.644.407-2.61 2.44-3.119 3.085-5.152 6.813 1.288 6.068 4.882.745 1.05-1.593-.407-1.186 2.203-2.78l-.034.069ZM137.849 21.62s-.61.204-.814.577c-2.203 4.407-4.373 6.78-6.949 10.61-.78 1.153-3.288 4.814-3.492 5.83-.305 1.526 3.288.374 4.678 1.052 2.102.983.848 3.152-1.356 3.356-1.695.135-3.661-1.22-5.39-.238-1.254.678-3.457 5.594-3.152 7.22 8.949 1.085-1.322 3.831-3.119 2.645-.644-.44-.915-2.034-.78-2.881.712-4.543 9.221-17.797 12.204-22.069 1.39-2 3.627-4 5.085-6.305.576-.915 1.152-3.186 1.627-3.56 1.627-1.287 1.864 2.51 1.39 3.764h.068ZM174.356 12.432c1.797-1.22 2.136 1.797 2.068 2.814-.475 8.915-6.475 29.967-11.322 37.492-1.526 2.373-4.204 2.238-3.661 0 .271-1.118 3.491-5.39 4.271-7.186.847-1.932.813-4.17 2.271-6.034l6.339-27.12.034.034ZM106.359 37.349c-.542 1.491-.339 3.186-.746 4.712-.542 2.101-4 10.135-6.712 9.254-2.847-.915 1.56-4.95 1.967-5.695 1.525-2.78 2.169-6.983 5.491-8.237v-.034ZM115.035 22.873c2.237-.339 3.661 5.255-.576 4.61-3.594-.542-1.695-4.27.576-4.61ZM68.187 23.01c4.271-5.289 9.56-10.51 2.102-16.306-6.271-4.881-14.848-4.17-22.238-3.05-12 1.796-30.746 8.372-40.916 14.983-.678.44-.712 1.457-1.898 1.864-2.915.983-4.882-1.153-2.373-3.424 3.322-3.017 14.068-7.695 18.61-9.424C34.627 2.67 60.764-4.82 72.662 4.873c8.712 7.12 3.356 14.679-2.577 21.29-8.203 9.152-35.661 29.457-48.034 27.762-1.153-.17-1.627-.406-2.305-1.322 0-1.152 9.763-2.237 11.322-2.678 5.22-1.491 14.61-7.66 19.254-10.847 7.39-5.051 12.306-9.187 17.899-16.102l-.034.034ZM94.967 30.604c-.136.745.17 4 0 4.17-.102.1-2-.069-2.746.1-3.56.882-7.153 4.882-9.695 7.39-.034 2.069 7.322-1.864 8.712 2.713 1.39 4.576-5.322 10.61-8.475 13.119-4.407 3.525-7.56 6.17-13.661 4.101-.373-1.118.034-4.847 1.254-5.118 1.22-.272 1.695 1.966 2.34 2.373 1.898 1.186 9.457-4.78 10.915-6.373.678-.746 4.746-6.272 4.135-6.882-2.372-.915-5.593 1.22-7.39.95-2.27-.374-2.983-1.357-2.17-3.526 1.187-3.255 10.272-12 13.594-12.882 1.051-.27 2.17-.102 3.255-.135h-.068Z"/><path fill="#282626" d="M32.186 11.927c.881 1.288-1.661 2.339-2.305 3.118C19.914 27.351 12.389 40.47 4.93 54.402c-.983 1.898-5.22 3.458-4.915.305.17-1.525 3.254-2.95 4.17-4.305 5.423-8.204 9.287-17.73 15.05-25.797 2.238-3.119 5.085-5.73 7.458-8.61.746-.916 2.068-3.865 2.915-4.407.577-.373 2.475.135 2.577.305v.034ZM68.996 40.977c1.119 1.085-2.102 3.83-2.678 4.814-1.051 1.763-2.305 7.763-4.576 6.339-1.763-1.119.339-4.305 1.152-5.627.61-1.051 4.644-6.983 6.136-5.526h-.034ZM75.335 33.587c-.78-.44-2.068-4.068.17-4.068 3.016 0 3.016 5.865-.17 4.068Z"/></svg>