<svg xmlns="http://www.w3.org/2000/svg" width="755" height="57" fill="none"><g fill="#282626" clip-path="url(#a)"><path d="M220.556 19.57c-.87.84-2.941 2.071-3.542 3.122-1.05 1.83-.27 6.904.06 9.185.09.66-.42 1.35.661 1.17 1.38-1.05 1.801-3.181 2.581-4.322 3.932-5.703 9.155-12.126 14.768-16.359.45-.33.66-1.2 1.05-1.38.931-.45 1.501.24 1.141 1.14-.09.21-.84.39-1.081.72-6.003 7.925-10.685 12.037-15.518 21.252-1.05 2.011-3.572 4.953-2.971 7.174.39 1.47 2.671 2.791.48 3.211-5.223.96-3.332-5.432-3.452-8.494-.06-1.831-.24-4.682-.42-6.453-.06-.45-.21-1.591-.721-1.591-.75 0-3.752 5.012-4.142 5.943-.99 2.221-1.681 7.564-3.902 8.494-.75.33-2.131.15-2.251.27-.12.12 0 1.201-.27 1.771-.781 1.471-3.362 4.503-4.262 1.561-.691-2.251.66-2.401 1.17-3.692 3.662-9.245 9.575-15.188 13.928-23.292.69-1.29 1.2-4.022 2.071-4.832.18-.18 3.482-1.861 3.692-1.861 1.02 0 1.11 1.77 2.281 1.77 1.261-1.17 2.071-2.731 3.452-3.812.42-.33.69-1.08 1.14-.24 1.471 2.612-4.142 7.774-5.913 9.485l-.03.06ZM251.053 19.09c3.392.36 6.333-1.2 9.545-1.71 3.362-.57 11.616-1.921 14.618-1.531.69.09 1.2 1.71 2.941.96.24-.66-1.831-.39-.9-1.38.27-.3 4.472-.69 5.613-1.051 1.741-.57 5.763-3.842 5.763.45 0 1.32-2.101 1.891-3.092 2.221l-14.708 2.282.901.9c-2.461 3.152-5.013 6.483-7.084 9.935-2.401 3.992-5.763 9.875-6.213 14.468-.09.99.66 4.142-.27 4.322-2.071.36-1.411-3.452-1.591-4.262-.15-.69-3.482-1.14-1.801-3.722 1.411-2.131 1.861-3.422 3.092-5.613 1.5-2.731 3.601-6.543 5.192-9.035 1.471-2.28 4.533-4.262 4.533-7.204-.661-.69-16.509 3.062-18.82 2.072-.751-2.732-5.643-2.162-4.533-5.433.06-.21 2.732-2.882 3.152-3.272.45-.45 3.452-3.092 3.692-3.212 1.171-.51 3.062-.21 4.382-1.17.541-.06.901.27 1.051.78 1.321 4.082-6.664 9.095-5.433 10.266l-.03-.06ZM659.898 11.076c.33 2.462-.33 3.692-2.731 4.383-1.021.3-2.732-.18-3.152.96-.931 2.491-1.351 7.054-2.041 9.875-.751 3.122-3.932 13.177-3.032 15.699.09.24 2.792 2.22 3.182 1.44l7.684-11.616c.63-1.62-.87-2.551-1.351-3.902-.69-1.92-1.951-7.984 1.231-7.714 2.041.18.6 2.732.78 4.262.09.75 1.261 3.962 1.981 3.992 1.471 0 7.834-9.935 11.857-8.614.75.24 1.53 1.981 1.17 2.641-.09.15-2.551 1.291-3.121 1.711-.871.63-1.951 1.561-2.792 2.251-1.11.96-5.163 4.743-5.073 5.944l10.476 16.208c3.692 6.724-4.863 6.123-5.403 1.05.48-.48 2.822 1.772 1.471-1.26l-8.645-12.967-1.14.24c-2.972 4.533-5.403 9.695-9.485 13.417-2.191-.24-14.918-.93-15.308-2.491-.09-.42.09-1.05 0-1.56 2.431-.361 4.592.99 6.903 0 .12-.15-.72-1.141-.81-1.682-.3-1.74.39-10.895.93-12.666.751-2.432 2.162-1.771 2.672-2.492.6-.84 3.091-9.665 3.181-10.955v-1.141c-.6-.12-2.521.21-2.731 0-.09-.09-.57-2.161-.48-2.251.45-.57 4.622-.81 5.072-1.11.901-.631-.15-3.002 1.171-3.453 1.951-.63 5.343 2.942 7.504 1.801h.03ZM624.539 28.995c2.101.15 8.524-4.262 9.875-3.241 1.681 1.23-.691 2.581-1.891 3.211-1.291.66-8.495 3.002-8.825 3.362-.54.63-1.02 8.675-.3 8.645l2.041-.93c.33 3.871-6.393 8.974-6.423 2.52 0-1.95.66-6.993.96-9.154.721-4.953 2.251-10.446 3.572-15.308l-1.771-2.191c.66-1.201 2.551-1.771 3.212-2.762 1.29-1.92.9-6.934 4.832-4.862 1.081 1.47-1.711 2.61-.03 3.691l16.299-8.494c4.622-.42 3.992 2.221.63 4.292-5.192 3.182-12.636 4.563-17.469 7.354-3.542 2.041-3.752 10.145-4.742 13.867h.03ZM740.249 8.765c.42.36.39 3.482.51 3.632.421.45 10.926.06 12.547.45l.75 2.761c-5.132 1.411-10.445-.81-15.488 1.05l-5.973 14.468-3.542 11.617c-1.14-.75-3.091-1.831-3.001-3.392l8.734-23.232c-4.772 0-9.485 2.01-13.807 3.872-.78.33-2.311 2.04-2.191.12.15-2.432 3.152-4.112 5.253-4.863 1.23-.45 4.172-1.53 5.102-1.77 2.161-.571 4.923-.961 7.144-1.111 1.591-.45 1.291-3.242 1.771-3.512.27-.18 1.981-.18 2.191 0v-.09Z"/><path d="M706.301 44.514c.18.18 2.942-.63 3.152 1.68.09 1.111-1.681 1.711-2.552 1.861-1.621.3-10.685.78-11.136-1.05-.39-1.651 5.884-1.591 6.874-2.071.42-9.245 3.632-17.89 6.904-26.384 0-1.2-5.763 1.38-5.973 1.14-.931-3.842 5.523-4.052 8.374-5.162.72-.27 1.291-1.2 1.501-1.26.93-.211.9 1.11 1.2 1.29 1.561.93 6.754-4.473 7.294-1.05.601 3.661-6.033 3.12-7.804 4.592-.3.24-2.521 4.652-2.851 5.402-1.501 3.422-3.032 8.615-3.812 12.247-.271 1.23-1.561 8.344-1.141 8.735l-.03.03ZM113.22 16.779c-.93.3-8.944.69-5.973-1.17.361-.211 6.124-1.052 7.354-1.352 5.043-1.2 2.642-.57 7.234.09 2.191.33 8.705-.18 10.716-1.02.9-.36.99-1.17 1.14-1.17 1.021 0 3.332 1.17 2.912 2.49-1.141 3.783-15.008 2.132-18.13 2.552-1.771.24-5.223 4.442-6.363 6.033-2.161 3.002-3.812 6.994-6.243 9.845-.661.78-2.282 1.501-2.552 2.071-.3.6.27 1.321.15 1.951-.39 2.222-3.211 3.993.09 6.064-2.491 2.671-4.892 2.13-4.592-1.831.42-5.493 5.403-10.536 7.654-15.338l6.603-9.245v.03Zm7.144-1.381v.45c.3-.15.3-.3 0-.45ZM83.385 16.328s.42-2.16.51-2.251c.36-.3 6.033.12 7.444-.18 1.5-.3 1.44-1.741 2.581-1.981.51-.12 3.302 1.68 3.242 1.86-.57 2.222-2.822 1.802-3.452 2.522-.48.54-.57 2.402-1.14 3.452-2.432 4.412-9.485 12.967-12.877 17.44-.69.93-5.073 4.652-2.942 5.282 1.23.36 6.904-2.912 7.744-2.701.84.21.9 1.56.51 2.28-.24.451-3.151 1.952-3.811 2.162-2.852.9-10.656 1.68-12.427-1.14-.51-.811-.45-2.222.6-2.312.66-.06 1.651 1.59 3.242.36l18.1-23.712c.18-.39-.54-1.14-.69-1.14h-6.664l.03.06ZM177.543 11.466l-9.365 18.43c-1.08 3.752-4.292 8.104-5.132 11.856-.421 1.801.57 5.013-2.042 3.482-2.401-1.41 1.741-7.084 2.252-9.245.18-.81.03-.6-.661-.66-2.821-.15-6.243 1.29-10.085.9-1.171-.12-1.501-1.08-3.002-.72-.51.12-4.532 2.821-5.012 3.301-.991.901-1.171 2.252-1.861 3.182-1.621 2.131-7.384 5.763-6.003.45 1.56-1.83 8.224-5.793 9.004-7.563.691-1.531-1.53-2.402-1.17-4.113 1.531-.57 3.392 1.651 4.562 1.17.751-.3 5.223-3.691 6.153-4.471 4.743-3.872 9.515-7.534 14.288-11.407 2.641-2.13 3.812-5.162 8.044-4.562l.03-.03Zm-22.242 18.64c-1.05.93-4.322 1.981-2.281 3.362 1.801 1.2 9.365-.69 11.166-2.041 1.801-1.351 4.503-8.345 6.063-10.476.931-1.26 3.602-2.101-.51-2.371-3.182 3.062-7.114 5.163-10.535 7.864-1.501 1.2-2.582 2.491-3.903 3.662ZM189.49 18.34c-.21 1.14-.48 2.311-.991 3.362-1.981 3.962-7.564 12.126-10.295 15.878-1.261 1.711-1.531 2.942-3.872 1.861 3.452-6.964 8.585-13.297 11.916-20.47.811-.961 2.131-.661 3.242-.661v.03ZM200.955 12.367s.45 1.38.42 1.53c-.21.991-5.913 2.642-7.174 2.912-2.821.63-6.483.96-9.185-.18-1.44-.63-.48-2.731.211-2.911.24-.06 4.652-.42 4.982-.39.66.03 1.141.75 1.831.87 2.341.42 8.555-2.101 8.915-1.831ZM182.585 39.47c-.03.721.18 1.712-.21 2.312-1.351 2.041-10.716 2.041-13.267 2.161-3.662-4.112.9-2.131 3.122-2.161 3.631-.03 6.933-1.26 10.355-2.311ZM46.614 17.38c2.671.21 4.892-.751 7.234-1.261 3.241-.69 6.633-1.261 9.875-2.072 1.14-.27 3.692-2.31 4.742-.84 1.861 2.611-5.823 4.022-7.504 4.502-5.913 1.591-12.036 2.101-17.98 3.632-1.38.81-9.244 9.365-8.314 10.296 1.711-.63 4.083-.6 5.643-1.02 2.192-.601 5.343-3.333 7.204-1.052-2.671 5.373-12.126 2.552-15.758 4.803-.42.27-4.863 5.613-5.553 6.483-1.11 1.411-3.692 7.234-5.793 5.733-1.59-1.11 2.341-5.763 3.242-6.903 4.592-5.613 10.055-11.136 14.227-16.93.3-.42.9-.27.93-.33.811-1.11-1.74-1.17-2.28-1.62-2.282-1.861.87-1.41 1.56-1.62 3.392-.961 7.174-3.423 9.455-6.184.9-1.08 2.281-3.332.9-4.352 7.535-1.771-.06 6.483-1.83 8.704v.03ZM19.06 25.183c1.17 1.26-5.373 7.234-6.214 8.254-1.89 2.282-4.262 5.043-5.943 7.384-1.23 1.741-3.271 6.844-4.862 7.564-1.831.84-2.522-.96-1.711-2.641 1.71-3.572 7.294-9.005 9.995-12.066 2.071-2.342 3.542-4.773 6.123-6.964.39-.33 2.282-1.861 2.582-1.53h.03ZM29.175 15.998c1.111 1.651-3.902 3.963-5.042 2.072.24-1.831 4.142-3.392 5.043-2.072ZM510.929 18.069c.18.21 2.281 4.502 2.341 4.772.33 1.14 0 2.612.09 3.812 1.981-.06 3.512-1.83 5.373-2.19 4.383-.811 7.114-.09 9.515 3.601 1.531 2.341 1.621 4.262.721 6.874 1.05-.81.87-1.801 2.761-1.381.63.63-2.341 6.813-3.002 7.774-2.611 3.722-10.565 9.875-15.097 10.055-5.013.21-8.165-3.001-8.075-7.924 0-1.08 1.651-4.802-.21-4.382-.27.06-.93 1.08-1.381 1.38-2.101 1.411-4.142 3.272-6.483 4.503-1.711.9-6.453 2.131-7.324 2.791-.87.66-1.291 5.013-3.422 2.552-2.131-2.462.961-7.834 1.321-10.626.51-3.692.33-8.134.54-11.916-.18-1.5-4.412-1.08-5.012-3.302-.571-2.101 3.572-5.523 5.343-6.423 6.063-3.212 16.868-6.274 22.001 0v.03Zm-3.662 13.957c.871-1.41 2.942-6.333 2.942-7.894 0-2.882-2.071-5.973-4.953-6.544-2.641-.54-12.937.3-13.327 3.842 1.051 5.283-.42 10.506-.12 15.789.24.27 3.512-2.431 3.212.66-.27 2.762-4.022 3.392-4.503 4.052-.57.81-1.26 4.052 1.081 3.152 5.523-2.161 12.667-8.074 15.668-13.027v-.03Zm7.954 8.855c4.593 2.551 12.187-5.343 11.917-9.395-.21-2.972-3.362-4.833-6.124-4.683-5.973.3-10.325 7.924-11.586 13.117-.24 1.02-.81 5.343-.66 6.213.39 2.162 2.251 1.892 3.782 2.222.42.09.78.6 1.141.66 4.052.66 13.717-8.434 15.097-12.246.151-.42.601-1.501-.24-1.381-.99 2.791-5.853 7.474-8.614 8.164-1.501.39-2.972-.72-4.112-1.62-.361-.3-.841 0-.571-1.051h-.03ZM541.396 31.696c-.33 3.842-1.951 9.575-3.782 12.997-.69 1.26-1.621 2.16-3.092 1.5-2.791-1.29.3-3.481.931-5.012 2.521-5.973 2.911-12.186 4.112-18.4.27-1.35 1.561-3.121 2.941-2.04 1.291 1.02 1.321 5.852 1.771 7.863.391 1.771 1.831 8.645 3.392 9.035 2.672.69 3.032-6.273 3.482-7.864.81-2.851 3.482-8.795 2.551-11.556-.27-.81-1.651-.45-1.32-1.41.87-2.372 3.602-.511 4.022 1.47 1.621 7.234-3.242 15.728-4.863 22.992-.45 1.981.841 4.022-2.161 3.842-2.521-.15-1.651-1.8-2.311-3.242-.36-.75-1.921-1.77-2.612-2.911-1.44-2.341-1.29-5.493-3.121-7.204l.06-.06ZM598.755 11.105s.871 1.891.871 2.011c-.15 2.401-15.008 5.703-16.809 7.864-.36 2.311-1.531 4.322-2.221 6.514-.811 2.581-2.612 8.494-2.822 10.955-.09.9-.27 2.312 0 3.122.27.84 1.591.36 1.321 1.41-.75 1.712-4.082-.03-4.502-1.47-.721-2.401 2.041-12.336 2.881-15.308.39-1.38 2.701-4.893.51-5.013-1.831-.12-5.222 1.381-7.384 1.381-.54 0-1.53.21-1.14-.69.78-1.951 8.764-2.912 10.986-4.653 1.38-1.05 1.771-3.392 3.542-4.292 2.371.99 2.041 1.68 1.08 3.632.841.75 5.913-2.732 6.874-3.452.72-.57.99-1.74 1.681-1.98.54-.181 4.832-.181 5.132 0v-.03ZM566.548 25.603c-1.05 1.23-3.121.39-3.152-1.471 0-.45 2.102-8.225 2.342-8.615.78-1.38 2.641-.09 2.671 1.171 0 1.5-1.471 3.602-1.651 4.803-.18 1.2.781 3.001-.18 4.112h-.03ZM421.031 30.857c.87.21 1.081-.48 1.621-.93.81-.661 4.952-4.653 5.313-5.254 1.32-2.28.21-1.56 2.521-3.902.75-.75 4.322-4.892 4.652-4.982 3.032-1.05 2.252 1.08 2.882 1.56.99.81 2.281-.6 3.452-.75 1.23-.15 2.311.33 3.301.33 4.743-.03 9.425-1.56 13.778-1.5 2.761.06 2.671 2.61 1.651 3.061-.841.36-5.553.87-6.784.93-2.011.12-5.583-.93-7.144.21-.96.691.06 2.702 0 4.083-.15 2.641-2.251 5.493-2.731 8.104.57.51 12.727-3.692 14.557-4.022.421 0 2.432 1.41 2.432 1.56.24 2.942-3.272 2.132-5.193 2.612-3.242.78-8.014 1.801-11.016 2.762-1.11.36-1.26 1.83-3.091.81.48 2.041-.481 5.253 1.14 6.904 1.621 1.65 9.815-1.02 11.977-1.831 2.011-.75 3.721-2.792 6.183-2.312-.06.961.3 2.252-.45 3.002-1.171 1.14-7.714 2.221-9.636 3.002.421 6.693-6.513 2.1-9.545 1.47-.96-.21-4.682.18-4.712-1.26 0-.84 3.032-.48 3.212-1.381-1.501-2.852-1.681-6.513-.751-9.545.691-2.251 6.424-11.316 3.842-13.087-.39-.27-1.47-.12-2.101-.39-.81-.36-1.17-2.131-2.581-1.921l-14.018 15.878.181 1.05c1.62 2.312 9.515 10.236 9.274 12.667-.09.871-2.101 1.531-2.581 1.111-.09-.06-.15-1.32-.54-1.981-1.501-2.521-3.962-4.832-5.913-6.964-.931-1.02-1.381-3.181-3.002-3.001-.93.09-2.941 3.091-2.972 3.962-.06 1.05 1.141 2.911-.81 3.392-1.05.24-1.501-1.261-3.362-.69-1.681.51-2.671 2.55-3.662 3.241-2.371 1.59-11.616 4.412-14.437 4.412-12.937-.09-12.007-15.278-5.763-22.752 3.752-4.502 12.396-10.595 18.58-8.884.78.21.21 1.32.48 1.29.33 0 .69-.63 1.591-.24.63.27 2.401 2.522 2.791 3.242 2.762 5.223-.75 10.776-4.592 14.257-3.842 3.482-8.615 6.484-12.397 1.141 2.882 1.23 6.664.69 9.155-1.2 1.381-1.051 5.793-6.754 6.333-8.375.18-.6.541-2.011.451-2.551 0-.21-1.381-3.842-1.531-3.992-1.531-1.441-6.003-1.291-7.954-.63-8.525 2.79-14.018 10.625-15.098 19.39-.331 2.85 2.071 4.412 4.052 5.852-.511.81-1.021-.3-1.381-.45-1.891-.99-.51 1.441 1.261 1.951 2.851.84 1.59-1.17 2.191-1.29 1.561-.3 4.142.21 5.943 0 3.512-.33 9.935-3.032 12.156-5.763 1.621-1.981 2.582-5.643 3.482-8.015 1.561-4.142 5.913-14.527 6.574-18.28.3-1.71-.21-2.16 1.14-4.322.751-1.2 5.703-7.714 6.304-3.331.27 1.98-5.313 10.955-6.454 13.747-.6 1.47-3.152 7.954-2.281 8.975l.03-.18Zm20.891-12.427v.45c.3-.15.3-.3 0-.45Zm-52.378 13.327v.45c.301-.15.301-.3 0-.45Zm18.37 14.258v.45c.3-.15.3-.3 0-.45ZM358.538 10.626c.481 1.861-2.071.15-2.281 1.38.871.42 2.101.24 2.882.481.27.09 1.801 2.671 1.711-.48l-1.381-.45c3.542.54 5.673 3.841 4.262 7.263-.48 1.14-5.973 7.864-6.904 8.375-.75.42-2.011.27-2.341.54-.12.09-.99 2.401-1.471 2.881.181.81 3.272.901 4.233 1.291 3.692 1.501 6.243 5.763 3.752 9.515-6.874 10.266-21.912 13.477-33.378 10.476-1.621-.42-5.343-1.231-5.403-3.092 1.111-.99 9.275 1.861 10.956 2.041 5.883.66 15.668-2.191 20.291-5.943 5.493-4.502 9.305-9.905-1.141-10.355-7.084-.3-13.387 2.761-19.78 5.072-.961-1.74.6-3.151 1.831-4.142 3.091-2.521 8.044-2.941 11.706-3.902 2.401-.63 2.431-1.861 4.172-2.731.6-.3 1.561-.15 1.771-.3.06 0-.42-.66 0-1.111.84-.9 3.512-2.041 4.472-3.152.751-.87 4.443-6.243 4.653-7.084.69-2.881-1.291-3.541-3.812-3.812-9.515-1.05-29.116 4.773-37.16 10.176-.84.57-2.491 3.752-3.752 1.32-.69-1.35 1.441-2.881 2.401-3.601 4.143-3.062 20.801-9.545 25.694-9.215.75.06.96.69 1.561.87-.45-1.71 1.11-1.56 2.581-1.77 3.272-.511 6.544-.27 9.815-.511l.06-.03Zm-18.369 3.242h-1.831v.9c.87.12 1.591 0 1.831-.9Zm-4.143 1.8c-.15-.66-.75-1.05-1.38-.9v.9h1.38Zm-16.418 7.355c0-.3-.24-.57-.57-.57a.552.552 0 0 0-.571.57c0 .33.24.57.571.57.33 0 .57-.24.57-.57Zm19.42 28.034v.45c.3-.15.3-.3 0-.45ZM393.446 12.457c-.66-.27-3.181-.18-4.142-.45.54.78 3.062 1.71 3.902 1.83 1.321.21.42-1.32.24-1.38.21.12.901 0 1.171.45s-.27 1.38.03 2.191c.21.54.991.51 1.081.9 1.38 5.914-11.226 13.958-16.419 11.767-1.141-.48-1.051-2.311-1.021-3.362 3.782 1.68 6.604.9 9.876-1.38 2.311-1.622 7.474-7.264 3.001-8.975-4.472-1.711-16.569 3.782-19.27 7.924-1.891 2.911-5.643 14.527-5.493 17.83.18 4.051 3.062-3.873 3.362-4.983.21-.87-.18-4.383 1.441-4.023 2.341.48-.601 1.741-.691 1.831-.18.27.751.69.781 1.141 0 .36-.571.9-.601 1.44-.24 2.642-.36 3.573-1.981 5.914l.901-.24c.39 2.971-3.722 9.845-5.403 4.262-2.401-7.984 3.182-26.024 11.106-30.016.81-.42 1.681-.3 2.221-.54 5.253-2.641 10.385-5.913 15.968-2.161l-.06.03Z"/><path d="M313.514 50.606c.841-1.05 2.251-4.172 3.212-4.832 1.321-.93.57.84 1.381.69-.21-.87-.451-1.23-.12-2.13 1.08-2.912 7.113-9.306 9.515-11.647.48-.48.81-1.08 1.62-.9.541 2.07-1.32 2.731-1.981 3.722-3.602 5.372-7.504 10.385-11.316 15.458-1.47 1.95-2.221 4.562-4.412 6.063-4.502-2.011.27-4.112 2.101-6.424-.99.931 1.141 1.351 1.831-.24-.39.06-1.771.18-1.831.24Zm9.185-10.115c.51-.54-.21-1.47-.9-.21-.06.39.87.27.9.21Zm-9.515 12.847c0-.3-.24-.57-.57-.57-.33 0-.571.24-.571.57 0 .33.241.57.571.57.33 0 .57-.24.57-.57ZM384.713 47.365c-.631.03-1.261.09-1.831-.21-.871-.45-4.563-6.003-5.223-7.174-.33-.57-2.371-4.742-2.101-5.013 3.091-.72 3.932 3.332 5.313 5.463 1.38 2.132 3.721 4.053 3.872 6.934h-.03ZM374.956 31.427c.45.39.78 1.56 1.501 1.95-.691-.21-1.711.751-1.831.691-.15-.09-1.021-2.671-1.831-3.001.63-.06 1.681-.06 2.161.36Z"/></g><defs><clipPath id="a"><path fill="#fff" d="M0 0h754.057v57H0z"/></clipPath></defs></svg>