<svg xmlns="http://www.w3.org/2000/svg" width="729" height="92" fill="none"><path fill="#282626" d="M30.94 71.642c.898-6.895.197-13.874.421-20.824.14-5.101.757-10.286.897-15.415.028-1.121.476-6.558-1.093-6.25-1.962.392-1.541 6.754-2.13 7.735-.673 1.093-1.514-.532-2.102-.42-.869.168-4.456 7.763-5.045 9.137-3.644 8.184-6.502 16.9-10.006 25.168-2.214 5.213-5.353 13.845-8.268 18.302-2.382 3.671-4.007 2.073-3.53-1.822.335-2.775 4.54-10.342 5.8-13.481 3.504-8.745 6.923-17.63 11.043-26.262 4.316-9.08 8.913-16.507 12.192-25.98 1.401-4.036 2.999-7.988 4.54-11.996 4.345-.364 2.635-1.654 3.868-4.092 1.542-3.083 2.663-.168 3.391.7.56.673 1.598.87 1.682 1.766.112 1.346-1.065 3.055-1.29 4.317-.42 2.522.393 6.053-1.961 7.903l-1.486-2.55c-.392 2.634-1.57 5.437-2.045 8.044-1.486 8.155-1.262 18.133-1.374 26.513-.028 3.195-.504 8.548 0 11.547.084.505.252 1.01.84 1.093 1.71-2.719 2.58-5.858 3.925-8.744 3.727-7.988 8.127-15.667 12.051-23.543 4.373-8.744 8.156-17.517 12.136-26.457.869-1.934 1.29-6.194 4.288-6.026 4.484.224.84 6.446-.224 8.408-2.607 4.82-6.362 9.977-8.66 14.91-3.588 7.596-5.718 17.49-8.8 25.505-3.084 8.015-7.484 17.208-11.632 24.832-1.15 2.13-4.036 7.623-5.41 9.165-1.26 1.429-4.26 2.073-4.54-.253-.112-.868.42-1.71.449-2.55.028-1.458-.365-8.352 1.065-8.66.252-.057.953.448 1.065.308l-.056-.028Zm20.18-33.464c-.925-.197-.98.476-1.345 1.009-5.55 7.567-9.473 18.694-12.92 27.41-.73 1.878-2.187 3.784-2.439 5.914.533.56 3.7-3.784 4.036-4.316 3.587-5.942 8.492-17.181 10.846-23.908.673-1.933.925-4.176 1.85-6.081l-.028-.028ZM78.026 64.543c1.065-.056 3.868-.084 4.933 0 2.438.14 5.353 1.514 3.055 4.148-4.736 2.803-9.417 5.101-14.658 6.783-2.326.757-7.54 2.354-9.781 2.662-2.243.309-7.288-.672-8.465-.308-.56.168-3.055 3.391-3.223 4.092-.644 2.775 1.121 5.073 3.672 5.998 4.568 1.653 11.547.392 16.143-.757.617-.168 2.467-1.71 2.327.168-.14 1.766-5.494 3.28-7.12 3.616-7.09 1.401-20.403.728-17.937-9.782.365-1.597 3.812-5.801 5.185-6.838 4.85-3.644 19.872-9.417 25.87-9.754v-.028Zm4.821 2.887c-5.241-.168-10.959 1.093-15.947 2.69-2.467.785-7.932 2.831-9.922 4.233-.504.364-.869.504-.7 1.233 8.492.588 17.544-2.579 24.971-6.558.73-.393 1.906-.56 1.626-1.57l-.028-.028Z"/><path fill="#282626" d="M108.603 63.601c-4.709-.196-9.698.7-14.07 2.438-3.587 1.43-8.94 4.513-11.239 7.624-2.438 3.307-4.064 9.67-.868 12.892 3.195 3.223 8.66 2.635 12.976 1.794 2.158-.42 8.856-3.42 10.202-2.663.588.337.392.505 0 .87-.813.812-4.4 2.55-5.606 2.97-10.285 3.756-23.767 3.447-21.833-11.099 1.29-9.781 15.64-16.62 24.3-17.713 2.718-.336 6.81-.953 6.11 2.887h.028ZM264.438 70.18c.561-.532 4.316-2.438 5.213-2.718 2.382-.813 10.09-2.187 8.745 2.27-.701 2.354-1.99.28-2.803 0-2.999-1.121-8.212 1.485-9.978 3.98-1.401 1.962-2.69 6.474-1.906 8.772.785 2.298 6.419 5.325 7.035 3.167.168-.588-.588-2.214-.308-3.7.981-4.792 11.155-13.592 15.975-14.069 3.728-.364 13.089.392 11.631 6.026-1.289 4.904-9.837 6.166-13.817 4.344-3.98-1.822-2.298-5.241.841-4.288.701.224 1.009 1.065 1.626 1.373 3.979 2.13 11.883-2.606 5.857-4.568-7.035-2.27-19.03 5.773-19.17 13.397 2.018.112 1.625-1.29 2.214-2.27 1.177-1.962 2.438-.14 1.99 1.961-.365 1.57-2.635 2.299-1.85 3.728 1.934 3.616 20.067 1.401 18.694-5.577.476 0 .869-.084 1.289.196.841.532.393 2.186 1.261 2.382.925-1.149 1.122-6.614 1.934-6.754.309-.056 1.065.56 1.458.308.196-.14 1.962-3.56 2.438-4.232 2.018-2.719 5.493-6.474 8.688-7.624 4.709-1.71 6.895 1.71 4.961 5.83-.532 1.121-3.363 4.709-3.615 1.962-.168-1.766 2.606-3.055 1.317-4.737-1.71-1.177-6.222 3.476-7.315 4.737-3.419 4.008-4.232 7.904-6.699 11.743-2.298 3.616-3.279.337-4.204.505-.252.056-2.634 2.382-3.923 2.97-4.036 1.907-10.651 3.392-14.995 2.103-1.962-.56-3.755-2.747-4.428-2.915-2.186-.589-4.092 1.681-7.623-.925-4.793-3.503-5.073-8.745-2.747-13.873.308-.701 1.766-3.111 2.242-3.56l-.028.056ZM186.524 58.335c1.29 1.009 1.318 4.848 2.074 5.017 2.383-1.738 4.849-4.205 8.1-3.84.953.112 3.167 1.12 3.7 1.878.168.224 1.513 4.007 1.597 4.4 1.037 5.409-1.709 16.508-3.755 21.805-.813 2.102-2.215 5.773-3.027 1.289l3.839-15.47c0-2.019.561-10.063-1.905-10.511-1.766-.308-7.063 2.523-7.708 3.868-.476.98 0 2.13-.308 3.139-.168.56-.925.953-1.205 1.794-.981 3.279-.953 7.875-2.355 10.93-1.541 3.28-3.055-.476-2.774-2.326.869-5.746 3.839-10.847 2.382-17.013-.561-2.326-1.513-2.354-3.279-1.065-4.26 3.167-9.137 14.574-11.155 19.731-.532 1.374-2.466 8.409-2.775 8.8-1.681 2.271-2.634-1.036-2.27-3.11 1.402-8.184 6.503-16.844 10.538-23.795.869-1.514 2.523-7.455 4.597-7.427 1.485 1.149 4.344.813 5.661 1.85l.028.056Z"/><path fill="#282626" d="M171.014 71.715c-2.27 2.83-7.371 3.951-8.856 5.52-1.317 1.402-2.438 5.074-3.896 6.84-3.727 4.568-12.304 8.408-18.189 7.875-7.68-.7-5.438-11.463-3.139-16.34 4.624-9.921 17.152-13.48 27.438-12.22 3.924.477 10.258 3.84 6.642 8.325Zm-12.5 7.679c.505-1.177.056-1.682.365-2.382.616-1.318 5.857-3.308 7.483-4.569 6.194-4.736-.645-6.922-5.325-7.09-11.407-.393-21.889 5.801-23.627 17.6-.729 5.045.196 5.746 5.185 6.026 5.381.308 13.817-4.848 15.891-9.613l.028.028ZM219.26 81.64c-1.962.533-2.775 2.215-4.709 3.224-2.466 1.317-8.856 3.167-9.445-.925-.14-1.01.309-3.924.729-4.793.112-.224 2.438-3.503 2.663-3.755 1.933-2.074 7.763-5.382 10.51-6.222.953-.309 3.671-.981 4.344-.449 2.018 1.598-.953 2.298-1.093 2.859-.056.308.756 1.233.897 2.102.504 3.784-1.514 7.455-.253 12.248 1.262 4.792 4.288.7 5.578.813 2.242.196.28 3.167-.925 3.811-5.185 2.719-7.904-5.1-8.268-8.912h-.028Zm.28-9.809c-.953.084-5.745 2.803-6.726 3.588-1.262 1.009-6.503 6.418-5.382 7.96 3.896 1.709 9.726-2.944 11.492-6.167.532-.98 2.55-5.577.616-5.38Z"/><path fill="#282626" d="M114.969 91.395c-1.513.953-2.858-.7-2.858-2.298-.084-6.642 3.699-13.593 10.314-15.359 2.242-.616 11.827-1.681 13.621-.925 2.662 1.093.616 2.55-1.261 3.027-3.336.869-14.07.813-15.583 4.148-.365.785-.253 1.71-.561 2.467-.504 1.233-3.279 8.688-3.7 8.968l.028-.028ZM238.122 73.926l-.868 9.445c.42.505 2.242-1.57 2.578-1.934 2.326-2.27 3.503-5.577 7.175-6.138 3.671-.56 5.717 3.308 6.754 6.362.365 1.122 2.018 8.633 1.766 9.025-.448.589-1.85.645-2.438.14-1.177-1.037-1.29-6.838-1.878-8.744-.196-.617-2.41-3.84-2.663-3.868-4.092-.869-8.268 8.128-11.575 9.866-.588.308-2.494.224-2.69 0-.169-.168-.084-4.176 0-4.905.14-1.682.897-7.119 1.345-8.52.336-1.037 1.654-.7 2.494-.729ZM673.938 73.323c.784.813 2.522-2.466 4.54-.897 2.971 2.327-4.064 4.68-4.456 5.886-.253.729-.056 4.569.364 4.877.196.14 4.625-1.57 2.579 1.962-2.046 3.531-4.961.925-5.494-2.27-.14-.925.224-7.344-2.186-4.12-2.41 3.223-3.475 5.38-7.567 1.877-.785-.672-1.598-2.578-1.766-2.606-1.597-.337-3.391 1.794-4.961 2.326-8.828 2.915-4.792-5.577-10.005-9.557-2.551 2.298-3.42 6.026-5.606 8.52-4.988 5.746-3.559-6.418-5.773-8.969-2.887.757-3.476 14.799-7.96 11.183-1.401-1.12-1.289-8.52-.392-9.921 1.485-2.299 2.214 3.223 2.41 3.39.14.113 1.598.113 1.654.057.084-.084.056-1.57.196-2.158 2.859-11.491 7.735-5.381 8.38 2.578.757-.448 1.597-1.233 2.13-1.933 1.682-2.159 2.494-7.12 6.25-4.961.392.224 2.607 2.578 2.943 3.055.644.925 1.878 4.624 2.186 4.68.869.196 2.186-3.139 3.475-3.812 3.532-1.85 6.615 1.822 8.324 4.429.701 1.037-.056 2.102 2.242 1.401.617-.196 5.354-3.251 5.466-3.643.112-.337.336-2.439.336-2.915.028-2.887-.897-7.119-.813-9.866.056-1.57 1.261-2.102 2.411-1.065 2.242 1.99.7 9.614 1.065 12.444l.028.028ZM587.726 69.484c1.738 0 3.756-.253 5.129 1.065-1.401 1.597-4.736.868-5.381 2.774-.336.981.617 7.315 1.177 7.68.14.084 2.887.532 3.139.504 2.831-.252 2.495-5.045 2.971-6.895.477-1.85 2.41-5.69 4.681-5.157 2.522.617-2.551 6.587-1.85 7.316 3.307-.393 3.335-6.503 6.558-5.494 1.514.477 4.484 6.867 6.11 8.492 1.205 1.206 2.438.309 1.906 3.027-2.579.533-5.101-2.55-6.446-4.484-.673-.981-.477-2.943-2.299-3.223-.42.056-3.111 5.353-4.988 6.194-1.065.476-2.383.084-3.56.308-1.177.224-2.494 1.402-4.064 1.542-2.242.168-4.176-1.402-4.904-3.448-.505-1.401-.589-6.502-1.43-6.698-.28-.056-5.493.897-5.773 1.009-1.934.897-2.383 9.277-5.774 9.277-2.298 0-2.018-2.383-1.261-3.896.392-.813 1.85-1.682 2.494-2.634 2.439-3.616 4.989-10.875 7.483-15.247 2.327-4.092 5.83-8.38 7.876-12.304 2.046-3.924 1.233-9.109 7.371-7.09 2.859.952-3.587 7.146-4.54 8.631-3.279 5.13-4.653 12.725-4.625 18.75Zm-1.289-9.866c-.589-.645-2.046 1.962-2.214 2.27-1.514 2.607-2.859 6.11-4.204 8.857.448.392 4.933-1.121 5.101-1.346.252-.392 0-2.27.112-3.11.364-2.243 1.009-4.429 1.233-6.7l-.028.029ZM713.821 77.612c2.662-1.01 4.708-2.691 7.511-.87 1.009.673 5.465 5.41 5.97 6.475.841 1.794 1.569 9.249-1.458 7.904-1.821-.813-1.093-3.111-1.373-4.625-.42-2.046-5.101-7.4-7.119-6.222-.112.056-1.513 1.934-1.569 2.074-.337.757-.084 1.57-.337 2.242-.308.841-1.457 4.428-1.653 4.569-.757.476-2.579 0-3.195-.757-1.149-1.345-.533-7.904-.589-10.146-.056-1.71-1.485-3.924 1.177-4.4 1.57-.28 2.943 2.326 2.691 3.784l-.056-.028ZM699.132 72.987c3.476-.645 3.027 1.541 4.344 2.746 1.318 1.205 2.355 0 2.131 2.915-.365 4.849-5.185 12.668-10.651 8.604-2.074-1.541-2.466-3.84-2.158-6.362.337-2.662 3.56-7.37 6.278-7.903h.056Zm-.336 5.073c-.813-.87-2.13 2.27-.645 1.71.561-.197.925-1.43.645-1.71Zm-.42 5.997c-1.794-.224-1.794.645 0 .42v-.42ZM685.316 70.323c1.009-.308 2.13 1.066 2.326 1.934.729 3.195.336 7.371.448 10.707.028 1.009 1.234 3.083-.644 3.25-3.167.31-2.27-8.155-2.326-10.117-.028-1.121-1.234-5.353.224-5.773h-.028ZM614.52 76.77c2.018-.449 3.279 7.763 1.233 8.127-2.186.393-1.85-5.549-1.766-6.754.028-.448-.14-1.233.533-1.373ZM687.977 63.514c2.158-.28 3.391 3.055.42 4.344-3.812 1.653-2.747-4.008-.42-4.344ZM614.606 62.645c1.206-.309 3.083 1.905 1.85 2.746-2.13 1.457-4.232-2.13-1.85-2.747ZM417.406 63.23c-3.923.813-15.274 9.081-18.385 12.08-4.092 3.98-3.644 8.38-10.258 10.762-7.595 2.719-6.67-5.577-4.596-10.174 1.513-3.335 5.913-3.923 9.276-3.223 1.85.393 2.495 1.878 4.261 1.962 0-5.044-5.298-4.456-8.801-4.708-.645-.056-1.233.336-1.065-.645.224-1.373 8.744-9.585 11.155-7.063-.056-.476.168-1.345-.084-1.653-.281-.337-2.859-1.037-3.532-.925-.252.028-3.98 2.298-4.26 2.55-.196.169-2.55 2.467-2.859 2.803-1.177 1.345-3.111 5.241-3.979 6.11-.589.617-3.027 1.233-3.532 2.242-1.009 2.018 1.317 2.186 1.43 2.775.028.196-1.037 3.027-1.15 3.923-1.121 9.726 5.438 9.838 12.164 5.746 0 0 0 .028.056.056.196-.084.393-.168.617-.168h.028c.336-.14.701-.196 1.065-.056.28.112.504.308.673.56.056.112.084.225.14.337 0 .112.028.252.056.364v.224c.028.169.084.337.14.505.168.392.364.757.56 1.149l.253.588c.028 0 .056.056.084.085-.028 0-.056-.057-.084-.057.14.113.28.225.364.365.897.252 1.485.897 2.578 1.093 4.597.84 11.744-1.345 15.864-3.251 1.037-.477 4.204-1.822 3.924-3.223-.113-.533-.757-1.065-1.346-1.065-1.429 0-5.437 2.466-6.95 2.914-.141.056-.225 0-.309 0-.112 0-.196-.028-.28-.056-.14.056-.28.112-.448.112h-.169c-.056 0-.112 0-.14-.028-.14.056-.308.113-.504.113-1.289.364-2.719.28-3.952.476-.981.14-1.934.28-2.915.28-.673 0-1.373 0-1.962-.392-.869-.56-1.093-1.542-1.149-2.522-.056-.925.112-1.906.617-2.691.308-.477.841-.757 1.401-.673 1.71-.785 7.511-1.233 9.165-1.653 4.26-1.093 11.407-6.39 12.332-10.819.813-3.84-1.878-5.83-5.494-5.073v-.056Zm.645 7.456c-1.653 2.41-8.772 6.67-10.762 6.081h-.084c-.14 0-.281.056-.421.056h-.112c-.168 0-.336-.028-.504-.084-.056 0-.084-.056-.14-.084-1.206.252-2.102-1.513-1.15-2.382 1.009-.925 1.822-2.046 2.915-2.915 1.065-.84 2.158-1.681 3.307-2.41 1.178-.757 2.439-1.29 3.784-1.682.673-.196 1.373-.28 2.046-.084.645.196.925.673 1.289 1.177.168.225.196.477.168.729.084.168.141.364.141.56 0 .393-.169.73-.421.981l-.056.056ZM374.525 37.724c.056 2.242-3.055 2.102-3.756 2.662-1.878 1.542-9.585 14.827-11.127 17.825-3.783 7.456-6.726 15.808-9.893 23.543-.281.7-1.85 2.635-1.374 3.14.225.223 2.355-.281 1.71 2.157-2.326.14-15.975 1.121-16.956.449-.196-.14-.785-.645-.421-.87.421-.98 6.419-1.625 7.736-1.709 2.326-.168 4.736.112 7.063 0-.981-1.345-1.598-2.186-1.178-3.952.309-1.289 1.766-2.83 2.215-3.811 4.848-10.903 8.744-19.227 14.49-29.68.28-.505 2.578-5.438 1.821-5.466-3.811.476-7.987 1.682-11.771 1.962-.42.028-1.738.336-1.71-.449 0-.308 4.849-1.962 5.55-2.158 2.326-.616 4.848-.672 6.978-1.177 1.57-.364 9.838-3.139 10.623-2.466ZM457.205 71.524c-.365.42-8.745 2.607-10.482 3.448-2.271 1.093-5.241 3.083-5.942 5.633-2.074 7.764 5.297 6.923 8.016-.112.784-2.018.448-5.381 2.746-5.41 3.055-.027 3.111 3.868 5.325 4.513 1.682.505 2.719-1.29 4.737-.252-2.663 5.858-5.381 3.475-9.221.42-1.093.785-.897 2.27-1.429 3.308-2.747 5.38-9.249 9.5-12.164 1.71-1.317-3.532-.252-6.391 2.242-9.082 1.289-1.401 4.737-3.363 6.558-4.148 1.093-.476 7.624-2.83 8.324-2.83 1.262 0 2.187 1.878 1.318 2.83l-.028-.028ZM539.321 78.53c-1.234 1.962 4.288 4.036 5.773 4.232 2.158.28 6.25-2.186 7.259-4.288.813-.364 1.598 2.102 1.514 2.747-.168 1.317-2.831 2.97-4.008 3.335-7.876 2.55-20.516-4.064-11.687-12.556 2.102-2.018 8.352-5.858 10.986-3.671 2.803 2.326-3.335 6.614-5.129 7.819-.897.589-4.568 2.13-4.708 2.354v.028Zm4.652-6.474c-.196-.196-4.008 2.046-3.868 2.999.449.42 4.457-2.41 3.868-2.999ZM477.802 66.985c1.402-.084 3.728 1.598 2.915 2.915-1.317 2.102-5.353 1.794-7.119 2.326-1.569.477-6.474 5.41-7.175 6.979-1.121 2.606-1.541 5.577 1.205 7.147 2.607 1.485 6.334 1.373 8.969.028 1.233-.617 3.363-3.588 4.512-1.962 1.43 1.962-4.007 4.512-5.409 4.933-3.84 1.149-9.137.644-11.743-2.803-5.213-6.923 7.231-19.199 13.817-19.591l.028.028ZM521.247 84.894s2.13.112 2.466-.084c.253-.14 3.196-4.345 3.448-4.905.869-1.822 2.774-7.483 3.055-9.39.224-1.68-1.149-4.315.756-4.848 2.018-.56 2.831 1.906 2.719 3.56-.168 2.746-3.615 12.135-5.185 14.574-2.578 4.064-7.763 7.147-9.753.756-.365-1.177-.505-4.904-.421-6.222.084-1.233 1.29-7.791 1.822-8.492.953-1.29 3.055.28 3.167 1.57.056.7-1.009 1.26-1.317 1.962-.365.84-1.037 3.11-1.149 3.98-.112.952.084 7.146.392 7.455v.084Z"/><path fill="#282626" d="M492.405 74.97c-.308.561-3.867 1.318-4.54 2.971-.392.953-1.401 7.371-1.373 8.465.056 2.074 1.345 1.429 2.27 1.933 1.597.87-2.242 3.84-4.036.673-1.513-2.69.841-10.118.056-11.127-.28-.364-5.437-.476-4.765-2.606.477-1.458 4.905.168 6.054-1.261.337-.42 2.411-8.352 3.195-10.118.393-.897 1.458-3.42 1.906-3.98.953-1.205 3.083-.56 3.027 1.15-.112 2.465-4.316 8.687-4.288 10.79 0 1.4 3.784.84 2.494 3.11ZM375.109 64.575c2.494 2.214 3.531 6.418 3.223 9.753-.168 1.766-.869 5.83-3.139 5.437-2.018-.336-.028-3.671.14-5.437.224-2.158.365-8.66-3.055-8.24-2.69.336-6.082 7.035-7.343 9.417-1.121 2.074-3.447 10.37-5.353 4.569l6.811-13.397c.56-.785 4.624-3.42 5.465-3.588 1.878-.336 2.27.589 3.279 1.486h-.028ZM444.336 60.594c.757 0 4.008.504 2.691 1.401-.981.645-3.42.785-4.709 1.29-5.409 2.073-11.043 6.137-13.089 11.799-1.065 2.97-1.429 7.707-2.466 10.398-.196.504-.785 1.317-1.373 1.177-1.093-1.43-2.102-2.074-1.934-4.036 1.009-10.258 9.978-21.777 20.908-22.03h-.028ZM511.799 69.478c.14 1.766-1.793 2.579-2.746 3.896-2.719 3.7-1.738 9.922-1.962 14.322-1.906.757-2.467-1.513-2.607-2.97-.448-5.046.14-15.864 7.315-15.248ZM509.109 59.25c4.568-.953 2.242 5.521.308 5.521-1.233 0-3.447-4.876-.308-5.521ZM501.064 73.318c1.093 1.093-1.934 2.662-2.13 0 .476.084 2.018-.112 2.13 0Z"/></svg>