<svg width="155" height="39" viewBox="0 0 155 39" fill="none" xmlns="http://www.w3.org/2000/svg">
<path d="M0.554688 4.5C0.554688 3.39543 1.45012 2.5 2.55469 2.5H151.555C152.659 2.5 153.555 3.39543 153.555 4.5V35.5C153.555 36.6046 152.659 37.5 151.555 37.5H2.55469C1.45012 37.5 0.554688 36.6046 0.554688 35.5V4.5Z" fill="#AD2E2E"/>
<path d="M6.10341 0.0254245C8.19117 -0.0397074 10.9279 0.0299343 13.0078 0.125522C13.6596 0.155168 13.3295 0.287689 13.7795 0.31412C14.6595 0.365646 15.4794 0.300652 16.3491 0.362032C16.6373 0.383023 16.2785 0.592935 16.5807 0.610139C18.2368 0.702908 19.8035 0.649441 21.4811 0.694063C29.7446 0.914213 37.8674 0.993012 46.2319 1.08865C48.9899 1.12001 52.3426 1.31051 55.1914 1.2272C55.5239 1.21729 55.3257 1.03304 55.3889 1.01785C56.3813 0.785374 56.0513 1.15734 56.6993 1.20676C59.271 1.40188 62.1307 1.41886 64.6056 1.34775C65.6585 1.31696 64.6028 0.950988 65.663 1.1564C65.7366 1.17028 65.4695 1.36594 65.7582 1.38681C66.4131 1.43375 67.6554 1.39877 68.163 1.41428C69.141 1.44514 69.3029 1.44317 70.228 1.4454C71.4927 1.45015 72.9969 1.54741 74.3538 1.50308C74.6435 1.49304 74.26 1.29246 74.7219 1.25833C75.1843 1.22425 76.4073 1.24126 76.8197 1.28854C77.2321 1.33585 77.0565 1.4935 77.1295 1.52963C77.73 1.83462 79.1448 1.41221 79.3267 1.40176C82.6457 1.22377 85.4919 1.4644 88.6074 1.46371C90.9725 1.46268 93.5015 1.38324 95.7519 1.39413C98.433 1.40789 100.705 1.51658 103.31 1.49789C103.585 1.49615 103.263 1.26032 103.599 1.25772C107.165 1.23028 110.708 1.25599 114.259 1.41519C114.615 1.43136 114.156 1.63842 114.512 1.66696C116.691 1.83712 120.138 2.24589 121.432 1.34439C122.908 1.37959 124.7 1.41596 126.02 1.59769C126.871 1.71464 126.044 1.94021 127.09 1.84396C127.326 1.82252 127.019 1.62498 127.373 1.60776C128.862 1.53544 130.489 1.59965 131.962 1.49759C132.262 1.47636 132.18 1.29936 132.265 1.26749C132.978 1.00935 134.166 1.43606 134.425 1.46707C136.397 1.69829 137.837 1.6073 139.674 1.61294C140.1 1.61435 139.596 1.3766 140.006 1.36941C142.134 1.33534 144.337 1.35577 146.42 1.46127C146.884 1.48531 146.458 1.68783 146.679 1.70968C147.655 1.80356 147.872 1.42104 148.808 1.50369C149.005 1.52062 148.894 1.694 148.93 1.71304C149.494 2.01194 149.983 1.58842 150.128 1.57907C150.647 1.54291 151.113 1.5524 151.555 1.58318C153.117 1.6834 154.191 2.96288 154.219 4.5C154.22 4.56865 154.221 4.63817 154.224 4.70864C154.232 4.92054 154.451 4.44271 154.46 5.03837C154.521 9.00669 154.46 13.2036 154.285 17.1316C154.258 17.7424 154.093 17.3064 154.073 17.3448C153.755 17.9712 154.181 18.3765 154.197 18.5756C154.312 20.1466 153.955 21.6141 154.462 22.6816C154.349 26.9665 154.426 31.2388 154.375 35.5C154.398 37.0067 153.021 38.3253 151.555 38.2538C150.249 38.2126 148.944 38.1517 147.64 38.062C147.556 38.0568 147.707 37.8473 147.539 37.8377C145.524 37.7201 145.911 38.0457 144.578 38.4438C144.242 38.5438 143.22 38.0631 143.129 38.0279C142.8 37.898 143.142 37.5864 143.031 37.5613C142.118 37.3638 142.267 38.3944 141.036 38.3947C140.997 38.393 141.159 38.2033 141.056 38.1844C140.735 38.1252 140.416 38.2006 140.102 38.1353C139.383 37.9842 139.127 37.4834 138.029 37.7749C137.89 37.8127 138.102 38.3973 137.002 38.3697C136.564 38.3582 134.624 38.3682 134.08 38.3303C133.537 38.2925 133.91 38.1041 133.871 38.0959C132.408 37.8468 132.963 37.7436 132.23 37.3748C131.497 37.0074 131.7 37.8837 131.401 37.9815C131.102 38.079 130.029 37.8735 129.765 37.802C129.502 37.7306 129.831 37.6109 129.596 37.5704C128.043 37.3061 128.914 38.0054 128.403 38.1444C127.196 38.4738 126.256 37.8239 125.151 37.7602C124.852 37.743 125.096 37.891 124.83 37.9049C123.775 37.9577 123.141 37.755 121.942 37.9409C121.745 37.9712 120.776 38.3619 120.148 38.0752C120.059 38.0338 120.312 37.8719 119.862 37.8356C119.191 37.7812 117.982 37.7458 117.26 37.7999C116.727 37.8399 117.338 38.1068 116.667 38.0239C116.369 37.9869 116.922 37.8308 116.362 37.7743C115.805 37.7178 114.381 37.7246 113.839 37.73C113.298 37.7355 113.594 37.9379 113.551 37.9516C113.286 38.0297 112.248 38.1273 112.156 38.127C107.53 38.1518 103.263 37.8106 98.7584 37.9235C98.4049 37.9321 98.6404 38.1455 98.5865 38.149C97.3763 38.2384 98.3304 37.6709 97.485 37.481C97.6072 37.9141 97.1082 37.8357 96.2557 37.8832C95.8449 37.9065 96.0686 38.0742 96.0311 38.0913C95.4219 38.3461 94.9977 38.0171 94.8884 37.9497C94.485 37.7021 94.0459 37.9947 93.7713 37.8292C93.497 37.6649 94.1284 37.4214 93.3109 37.4245C93.0816 37.5796 93.6886 37.9848 93.0678 38.0504C90.7258 38.2988 86.3539 37.9809 84.4708 37.9479C82.5914 37.9149 81.9844 37.9435 80.8893 37.8875C78.9111 37.7862 79.6361 38.0868 78.4078 38.2244C77.1759 38.362 77.7748 37.6223 77.5977 37.4633C77.4239 37.3044 77.2341 37.468 77.0178 37.3806C76.8023 37.2932 77.2689 37.1851 76.762 37.1523C76.2548 37.1196 74.8682 37.4023 74.6884 37.5686C74.3084 37.9208 74.9332 38.2905 73.5913 38.1606C73.5141 38.1529 73.7645 37.9584 73.469 37.9388C71.1217 37.789 68.6831 37.7797 66.3387 37.6473C66.0163 37.6288 66.3046 37.4124 66.117 37.3992C64.1629 37.2608 64.8614 37.6256 63.7904 38.0309C64.0309 37.4916 63.4387 37.1616 61.9556 37.1584C61.0641 37.1563 61.2176 37.3919 60.641 37.5579C60.468 37.6079 59.8372 37.4462 59.7229 37.557C59.3459 37.9191 59.9401 38.3245 58.4111 38.1631C58.344 38.1554 58.5576 37.9572 58.3258 37.9452C56.8274 37.8666 56.6482 38.2454 55.0285 38.2912C53.759 38.3272 51.5012 38.0963 50.0556 38.0587C50.086 37.4523 48.7207 37.5912 48.1668 38.0092C47.2287 37.9921 46.2154 38.0158 45.3087 37.958C44.9967 37.9383 45.2017 37.7627 45.1623 37.7437C44.5589 37.4462 44.1511 37.8529 43.9486 37.8689C41.754 38.0239 39.9659 37.7156 37.8714 38.0169C37.7971 38.0277 37.6766 38.4489 37.1167 38.1414C37.0805 38.1202 37.7723 37.9285 36.787 37.9137C35.8016 37.8989 33.944 37.6731 32.5759 37.8683C32.2449 37.9152 31.4075 38.2572 30.7354 37.99C30.6459 37.9537 30.7438 37.8329 30.6146 37.7657C30.1968 37.5515 29.9687 37.9773 29.4776 37.6156C28.9866 37.2539 27.9651 36.983 26.5854 37.2326C26.5414 37.2398 26.2149 37.5773 25.781 37.5719C25.0884 37.5631 24.1052 37.4928 23.3819 37.495C23.0357 37.4962 23.2573 37.7057 23.1972 37.7096C20.869 37.827 19.2119 37.6402 16.7178 37.5591C16.2606 37.5438 14.9466 37.8296 14.0615 37.6037C13.0896 37.3564 14.0883 36.3277 11.8543 36.5728C10.9533 36.6708 9.8125 37.9759 8.19324 37.2997C6.26169 37.4028 4.4195 37.3115 2.55469 37.2817C1.62324 37.2805 0.774284 36.4887 0.722475 35.5C0.714131 35.3625 0.70475 35.2247 0.694239 35.0863C0.68364 34.9447 0.31941 34.4969 0.324368 34.1639C0.332432 33.6697 0.502667 33.3984 0.513881 33.0454C0.565159 31.5666 0.419511 30.2133 0.442165 28.7874C0.450396 28.2461 0.626418 28.4354 0.636256 27.7897C0.64593 27.1444 0.414143 26.7142 0.526088 25.8398C0.611417 25.1794 1.08518 24.5191 1.14041 23.6425C0.673087 23.6091 0.682713 23.0071 0.559352 21.9371C0.535417 21.7314 0.372766 21.9519 0.353054 21.8546C0.269223 21.4587 0.404026 21.0922 0.312771 20.7162C0.290854 20.6248 0.131262 20.6205 0.104337 20.5457C-0.130692 19.9099 0.228294 18.8624 0.290798 18.6824C0.528178 17.9929 0.32061 17.6707 0.414089 17.1418C0.507556 16.6138 0.624398 17.4033 0.681117 16.7865C0.798434 15.508 0.77266 13.8653 0.779994 12.5669C0.781935 12.0488 0.568904 12.4023 0.564235 12.3281C0.510204 11.2568 0.736808 10.1735 0.312466 9.57945C1.40966 8.83668 0.206044 8.93343 0.425686 7.40212C0.44345 7.2815 0.962304 7.12804 1.03848 7.59114C1.11458 8.05422 0.952391 8.75644 1.07113 9.39895C1.099 9.55111 1.58519 10.4227 1.61465 10.5416C1.84482 11.4731 1.06947 11.6051 1.02688 11.6544C0.567302 12.2133 1.09109 13.2784 1.12728 13.5589C1.29312 14.842 1.18408 15.9322 1.30245 17.0054C1.37896 17.7073 1.88685 17.776 1.8713 18.3271C1.81992 20.1593 1.11141 20.7989 1.72573 22.5255C1.85675 22.8957 2.41186 22.5278 1.97536 23.8543C1.94785 23.9377 1.54853 24.9225 1.80111 25.4916C1.83295 25.563 1.99473 25.5608 2.00832 25.655C2.09623 26.2867 1.96735 26.7079 2.02907 27.396C2.0908 28.0841 2.18282 28.9114 2.12795 29.697C2.09514 30.1704 1.79373 30.7779 1.71993 31.0045C1.50735 31.6445 1.85589 32.3306 1.59847 32.7271C1.33976 33.1269 0.946852 32.3453 0.779688 33.3936C1.2 33.4324 1.6314 33.5216 2.0541 33.5841C2.04997 34.225 2.03642 34.8631 2.01942 35.5C1.9788 35.7794 2.21996 36.1076 2.55469 36.1204C3.15445 36.1318 3.75578 36.1376 4.36017 36.1327C4.64596 36.13 4.3537 35.904 4.66005 35.8953C5.95262 35.8594 7.08157 36.0205 8.42206 35.9563C9.45965 35.9058 10.5974 35.6666 11.6824 35.6063C12.3451 36.0873 13.9551 35.924 15.1246 35.9679C15.5343 35.9831 15.5069 36.1116 15.7983 36.1535C16.8974 36.3085 16.3823 35.8835 16.6837 35.8166C17.9765 35.5311 18.0872 36.4931 19.6114 36.4693C19.6921 36.4684 20.6793 35.9556 20.8152 35.9237C21.679 35.7155 20.9582 36.1022 21.4988 36.1401C22.4859 36.2093 23.1718 36.3318 24.3299 36.1816C24.6676 36.1371 25.4777 35.8175 26.1335 36.0647C26.2197 36.097 26.172 36.2665 26.2415 36.2765C27.4984 36.4419 27.5314 35.9094 28.2497 35.729C28.9681 35.5487 30.0776 35.9163 30.3033 36.0223C30.8941 36.2964 29.8507 36.1394 29.8187 36.1663C29.4429 36.4864 30.2521 36.4313 30.8704 36.4584C30.9599 36.9805 31.8246 36.9492 31.5114 36.4843C31.4758 36.4335 30.9946 36.4822 30.8704 36.4584C31.4132 35.946 32.3634 35.8804 33.413 36.3592C33.9043 36.5836 33.4399 36.8452 34.9323 36.7495C35.6097 36.7063 35.3479 36.3467 35.9456 36.2487C37.3112 36.025 39.0857 36.3604 40.4936 36.3076C41.0045 36.2884 40.5068 36.0916 40.856 36.0717C41.7828 36.0183 42.6 36.166 43.5308 36.0903C43.6151 36.0832 43.4091 35.8772 43.6985 35.8746C45.8926 35.8506 47.8032 35.9826 50.094 35.9862C51.2009 35.9879 53.1798 35.8743 54.3264 35.8971C56.3137 35.9355 58.7585 36.2351 60.4562 36.1623C61.5635 36.1157 61.3206 35.9097 61.795 35.7693C62.7106 35.4971 64.3311 35.9846 64.5494 36.0601C64.556 36.0626 63.6032 36.1112 64.1116 36.217C64.4072 36.4374 64.5386 36.0611 64.5494 36.0601C64.6927 36.1089 66.5961 36.1556 66.974 36.1163C67.1794 36.0947 67.0645 35.8995 67.1716 35.8919C69.7167 35.7172 72.2663 35.6676 74.8476 35.7589C74.8931 35.7628 74.8246 35.9812 74.9315 35.9878C76.4259 36.0849 77.3828 35.8177 78.6153 35.6591C79.8476 35.5006 80.8249 35.5537 81.5544 35.9286C82.4842 35.8814 83.8183 36.0471 84.5859 36.1477C85.3535 36.2483 85.4607 35.8231 85.5282 35.8147C87.6349 35.5457 88.8527 35.7891 91.0383 35.8269C92.0774 35.8457 94.1386 35.784 95.2636 35.7375C96.1528 35.7001 96.6885 35.7997 97.5078 35.736C97.6186 35.7275 97.5066 35.5382 97.5404 35.5309C98.4548 35.3045 98.0154 35.7672 98.2042 35.8498C98.8886 36.1504 99.3115 36.3104 100.482 36.169C100.752 36.1367 101.539 35.4704 102.032 35.4314C102.672 35.382 102.43 35.6208 103.1 35.563C103.158 35.5582 103.146 35.4109 103.559 35.4174C105.48 35.4456 107.573 35.5313 109.568 35.5166C109.841 35.5151 109.491 35.2814 109.885 35.2755C111.733 35.2478 113.759 35.2564 115.559 35.3658C116.002 35.3935 115.724 35.5571 115.82 35.6057C116.411 35.8997 117.248 35.4725 117.387 35.4644C120.683 35.2591 123.205 35.6457 126.565 35.4617C126.748 35.4508 128.155 34.993 128.783 35.3857C128.826 35.4118 129.448 35.8136 129.997 35.5389C130.031 35.5217 129.644 35.3148 130.32 35.3359C130.995 35.357 132.083 35.2188 133.012 35.4461C133.306 35.5177 134.001 35.9185 134.878 35.599C134.935 35.5767 136.289 34.8543 136.772 35.3527C136.851 35.4347 136.768 35.9622 137.815 35.6918C138.015 35.6393 137.652 35.5217 138.179 35.4482C138.987 35.335 140.056 35.4763 141.049 35.2413C141.222 35.1997 141.958 34.8417 142.549 35.1134C142.642 35.156 142.466 35.3321 142.778 35.3518C144.262 35.4463 145.816 35.3285 147.323 35.4504C147.857 35.4932 147.584 35.7778 148.141 35.8541C148.697 35.9304 149.818 36.0037 150.4 35.8736C150.983 35.7435 150.347 35.2898 151.219 35.2535C151.331 35.2489 151.443 35.2446 151.555 35.2407C151.411 35.1983 151.247 35.3406 151.264 35.5C151.292 32.8799 151.429 30.2673 151.456 27.6402C151.461 27.0785 151.299 27.5442 151.296 26.7164C151.284 23.6646 151.132 18.3955 151.477 15.7474C151.753 13.6255 151.963 16.2957 152.076 14.6743C152.129 13.8919 151.602 13.0454 151.585 12.8566C151.417 11.0115 151.65 9.72915 151.579 8.06844C151.564 7.7255 151.35 8.06185 151.34 7.76998C151.303 6.77304 151.398 5.72525 151.381 4.7726C151.378 4.64559 151.362 4.56328 151.341 4.5C151.291 4.5128 151.212 4.52879 151.231 4.57547C151.293 4.73676 151.511 4.74396 151.555 4.5862C151.549 4.58521 151.543 4.58421 151.537 4.58321C151.518 4.58017 151.531 4.56811 151.555 4.55103C151.551 4.50147 151.571 4.41051 151.555 4.37379C151.501 4.36522 151.425 4.35973 151.321 4.3586C150.194 4.34695 148.795 4.19599 147.499 4.35189C147.114 4.39879 147.099 4.77195 146.272 4.51424C146.099 4.46042 146.32 4.01233 145.357 4.3995C145.195 4.46383 143.577 4.98605 142.783 4.64943C142.574 4.56084 142.039 4.19417 141.577 4.25179C141.514 4.26099 141.765 4.46143 141.382 4.48098C140.031 4.54639 138.616 4.52501 137.228 4.58779C136.857 4.60495 137.409 4.81236 136.857 4.83132C135.338 4.88374 133.442 4.83093 131.956 4.76601C131.409 4.74168 131.787 4.56986 131.747 4.55117C131.107 4.24704 130.728 4.65754 130.515 4.68148C129.193 4.8248 128.186 4.63197 126.966 4.683C126.63 4.69656 126.869 4.89229 126.802 4.90975C126.107 5.08027 126.624 4.72877 126.185 4.69002C124.953 4.58031 123.58 4.59604 122.335 4.62105C121.877 4.63053 122.391 4.85748 121.981 4.86336C119.551 4.90247 117.024 4.88075 114.653 4.75563C114.206 4.73166 114.487 4.5569 114.394 4.51699C113.753 4.23773 112.813 4.61864 112.596 4.65493C111.613 4.8206 111.231 4.66606 110.362 4.6949C106.119 4.83852 100.88 4.73617 96.8747 4.67293C91.6554 4.59155 87.6054 4.42529 82.6283 4.46846C82.3119 4.47099 82.6309 4.70348 82.3582 4.70864C78.8376 4.76468 75.3716 4.67384 71.8439 4.74099C71.5545 4.74608 71.9717 4.96648 71.5071 4.98207C70.5541 5.0156 69.3468 5.00362 68.3832 4.93325C67.9132 4.89934 68.5437 4.71022 68.0706 4.67995C66.969 4.60905 65.7882 4.59335 64.6568 4.62868C64.1753 4.6442 64.9017 4.86961 64.2759 4.87221C60.0126 4.89457 55.8257 4.9334 51.5175 4.6415C51.2221 4.62145 50.963 4.16333 50.335 4.25118C50.2877 4.37832 50.2903 4.52788 50.2696 4.66378C44.0634 4.73698 37.9206 4.57816 31.697 4.55361C31.4346 4.55263 31.888 4.79536 31.38 4.7947C28.4397 4.79111 25.5845 4.85835 22.5769 4.61708C22.2785 4.59349 22.4316 4.16645 21.5522 4.23104C21.3971 4.24282 20.0726 4.29978 19.7302 4.39248C19.6837 4.40646 19.9253 4.60578 19.4985 4.61159C17.0183 4.64186 14.4192 4.59635 11.9433 4.47457C11.5437 4.45453 11.9692 4.24227 11.6846 4.22616C9.66571 4.11348 7.46974 4.27484 5.5406 4.08211C4.2493 3.95235 4.72738 3.58543 4.0412 3.22427C3.94415 3.17331 3.14454 3.16524 3.10318 2.9551C2.99703 2.4267 3.38433 1.84811 3.22541 1.28488C3.19184 1.16357 2.12095 1.29423 2.75498 1.00107C2.79928 0.981448 3.57567 0.88415 3.7669 0.784699C3.90004 0.715941 3.66012 0.502235 3.93176 0.414217C4.20339 0.326282 4.50186 0.505422 4.95221 0.40201C5.40235 0.297318 5.20442 0.0542033 6.10341 0.0254245ZM88.0424 36.5972C88.7532 36.8014 88.858 36.0536 88.0893 36.2325C88.052 36.2421 88.0057 36.5872 88.0424 36.5972ZM2.24599 36.676C2.33783 36.7682 2.45184 36.8147 2.55469 36.8237C3.17349 36.861 3.47666 36.5094 2.95173 36.3055C2.81169 36.2511 2.67708 36.2341 2.55469 36.242C2.40832 36.2756 2.14486 36.5617 2.24599 36.676ZM1.0986 28.4932C0.838561 29.5793 1.89888 29.7502 1.68453 28.587C1.67242 28.5194 1.1137 28.4297 1.0986 28.4932ZM7.22334 3.12142C7.21352 3.11149 6.63874 3.10182 6.625 3.11166C6.31893 3.34914 7.46828 3.36832 7.22334 3.12142ZM0.836451 18.9312C0.69302 19.2702 0.858594 20.2464 1.03695 19.8251C1.18043 19.486 1.01487 18.5089 0.836451 18.9312ZM125.121 37.3952C125.132 37.4064 125.544 37.4164 125.536 37.3534C125.508 37.1506 124.934 37.2078 125.121 37.3952ZM1.49312 3.13331C0.989134 3.507 0.720052 4.04727 0.611687 4.5C0.37876 5.45606 0.0348098 5.69897 0.00204862 4.5C-0.00239455 4.29055 0.0240356 4.04237 0.112556 3.77344C0.219133 3.48886 0.159928 3.82408 0.193918 4.11807C0.227239 4.41622 0.322996 4.65161 0.372516 4.32441C0.496591 3.7381 0.64965 3.25632 0.978146 2.82343C1.29606 2.40416 1.86785 2.05874 2.53089 2.19961C2.64954 2.22909 2.30088 2.35402 2.01926 2.57921C1.72661 2.79773 1.53665 3.10038 1.49096 3.13654C1.49168 3.13547 1.4924 3.13439 1.49312 3.13331ZM88.4517 37.4953C88.4659 37.5052 89.0363 37.5146 89.05 37.5048C89.3589 37.2674 88.2097 37.2484 88.4517 37.4953ZM149.167 37.8576C149.198 37.8786 150.522 37.8984 150.565 37.8789C151.256 37.4908 148.579 37.4498 149.167 37.8576ZM50.0329 38.0425C49.4104 38.2813 48.6659 38.3094 48.1697 38.0096C48.7882 38.0255 49.4109 38.0278 50.0329 38.0425Z" fill="#AD2E2E"/>
</svg>
