<svg xmlns="http://www.w3.org/2000/svg" width="616" height="45" fill="none"><path fill="#282626" d="M202.262 13.332c-2.832 3.27-5.794 5.716-9.682 8.008-5.047 2.961-11.046 4.893-16.814 5.82-.464.72.489 4.815.85 5.845.386 1.107 2.472 3.553 1.261 4.017-.875.334-.798-.49-.978-.593-1.056-.412-2.266 1.005-1.674 1.906.309.463 1.648.566 1.803 1.184.489 2.189-3.064.283-3.785-.515-.721-.798-.799-2.111-1.314-2.961-1.133-1.828-4.145-3.58-4.094-6.309-3.682.31-5.562 1.88-7.931 4.455-.746.824-1.622 2.781-2.6 2.987-2.292.49.335-2.472-.026-2.807-4.48-.566 1.699-3.09 2.987-4.12 5.407-4.377 11.072-11.406 15.964-16.247 1.236-1.21 5.588-4.12 5.202-5.871-.052-.232-1.416-.077.309-1.7 3.527 0 7.287-1.519 10.737-1.519 1.313 0 3.399.592 4.867.798 2.291.31 4.532.953 6.875.902.154-.103-1.571-2.781-1.88-2.987-7.853-5.202-20.96-1.906-28.89 1.776-1.442.67-3.296 2.962-3.889.773 0-.155 2.06-1.751 2.215-1.828 4.944-2.292 14.651-4.584 20.058-4.326 5.408.257 16.557 2.935 12.952 10.66-.746 1.622-1.648 1.725-2.446 2.678l-.077-.026Zm.85-5.02c-.258-.284-2.73-.31-3.348-.439-2.575-.515-4.377-1.493-7.055-1.416-3.425.103-6.721.953-10.042 1.674l-.335.824c3.399.129 1.262 2.498-.154 3.656-1.571 1.262-.618.721-1.494 1.803-3.013 3.759-9.501 7.93-13.106 11.844-1.622 1.777-.902 2.756.128 1.442.541-.695.515-1.519 2.009-1.802 1.21-.232 2.807 1.133 3.038.927.103-.103-.283-.644-.154-1.004.463-1.262 3.115-1.674 4.326-1.932 7.287-1.622 14.574-3.373 20.728-8.008 1.184-.9 6.72-6.025 5.484-7.518l-.025-.052Zm-31.337 25.414c-.438-.902-.232-5.021-1.442-4.918-.644.051-1.648.926-1.494 1.699.078.386 2.55 3.605 2.91 3.219h.026Zm1.313-2.987c-.154 1.75.515 7.57 1.648 3.167l-1.648-3.167ZM231.232 22.473c1.673-.309 3.373-.438 5.021-.747 1.081-.206 2.034-.927 3.399-.927.592 0 3.012.593 3.45.876.85.54.824 2.394 1.828 2.472 2.781.257 9.656-6.051 10.738 1.133-.567 5.227-4.275 9.166-6.283 13.878-.721.464-1.494-.025-1.262-.927l4.635-8.6c1.468-3.502 2.472-7.184-2.936-5.587-3.321.978-4.506 2.884-6.36 5.201-2.755 3.399-5.587 6.772-8.265 10.248-3.528.773-.155-2.678-.335-2.806-.927.154-2.704.566-2.266-.773l6.875-8.986c.129-.747-.334-.464-.824-.49-4.48-.36-12.617 6.335-15.99 9.45-.85.799-3.94 4.558-4.558 4.66-.437.078-.849-.308-1.416-.076-.566.231-1.21 1.596-1.905 1.776-.747.206-1.777-.283-1.7-1.055.078-.85 4.403-5.021 5.227-6.077 3.889-4.918 7.21-11.381 12-15.476 2.986-2.549 3.089 1.133.875 2.859l.052-.026Zm8.754 1.339c-.927-.232-3.733 0-4.944 0-.824 0-5.33 2.961-5.767 4.12 1.493.335 2.729-1.442 4.171-2.112 2.137-1.004 4.712-1.21 7.055-1.364 0-.206-.386-.618-.489-.67l-.026.026ZM213.49 32.824c-2.884 3.347-6.232 6.54-9.193 9.81-.772.85-1.571 1.03-1.983 2.292-.618.36-1.339-.747-1.364-1.159-.052-.67 1.596-1.75 1.21-2.137-1.442-.36-3.09 1.906-3.863 1.957-.772.052-.566-.875-1.004-.978-.772-.18-1.545.566-2.266.67-5.639.746-10.196-3.065-5.227-7.88 1.828-1.777 9.064-4.584 11.613-4.918 2.215-.284 4.686.206 6.824-.103 2.472-.36 4.403-3.837 5.973-5.588 1.339-1.493 3.889-3.656 4.79-5.433.721-1.416 1.03-2.523-.824-2.523-5.33.025-10.532 3.527-15.218 5.639-.669.103-1.056-.36-1.442-.824 0-.206 2.704-2.472 3.142-2.807 2.394-1.75 9.321-5.587 12.179-5.278 1.416.154 2.395 1.441 3.064 1.544 1.056.18 2.678-1.107 3.502.85 1.622 3.837-4.017 9.373-6.154 12.154-1.339 1.75-2.292 3.038-3.708 4.712h-.051Zm7.493-12.308c.128.154.875-.567.643-.979-.128-.154-.875.567-.643.979Zm-3.966 3.63-5.124 4.97c-.309.695.129 1.777.67 2.292.437 0 4.48-6.154 4.454-7.262Zm-9.244 8.24c-4.068-.283-8.162.67-11.947 2.086-2.266.85-5.897 2.6-6.232 5.175 2.318-.025 4.79-.102 7.107-.334 1.622-.155 5.15-.49 6.54-.979.387-.129.206-.798.541-1.159 1.03-1.055.644-.463 1.7-1.93.334-.464 2.677-2.498 2.265-2.859h.026Zm2.987.335c-.463.077-1.056-.335-1.442-.258-.283.052-3.038 3.168-3.502 3.734-.257.31-1.57 1.88-1.339 2.137 1.931-1.159 4.403-2.832 5.768-4.609.258-.335.644-.412.489-.978l.026-.026Zm-12.9 8.265c-1.803-.334-3.785.335-5.433.335-1.082 0-2.086-1.159-1.829.644 2.112-.103 5.871.901 7.262-.979ZM285.715 15.238c.154.18.077 1.494-.309 1.828-.206.155-2.807.052-3.296.155 1.313.953 1.416 3.116-.464 2.6-.437-.128-.386-.926-1.158-1.158-2.292-.67-11.896 2.008-12.54 4.403-.901 3.27 4.274 3.116 6.128 3.991.567.258 4.326 3.039 4.558 3.373.54.824.643 2.472.489 3.425-.876 5.356-11.252 8.471-15.733 6.85-.747-.284-3.759-1.649-3.064-2.679 2.008-1.287 3.682-.18 5.716-.386 1.082-.103 8.008-1.493 8.704-1.854 1.39-.72 1.905-3.013.206-4.017-2.704-1.622-5.305-1.107-7.699-3.862-1.932-2.24-3.863-4.738-1.52-7.442 1.88-2.163 4.635-2.549 7.107-3.476 1.391-.515 3.682-1.725 4.944-1.982 1.056-.207 7.493-.258 7.931.205v.026ZM273.51 28.756c.334-.231-1.751-1.21-1.983-.978-.644.618 1.365 1.313 1.983.979ZM326.371 19.975c.464.67-.927 1.597-.927 1.803 0 .206.747.67.593 1.313-.258 1.03-2.678.18-3.451.154-6.849-.231-13.57 1.648-20.496 2.009-.953.051-2.06.283-2.111-.901 0-.593 2.523-1.597 3.115-1.726 3.631-.823 8.909-.875 12.823-1.39 2.961-.386 5.485-.85 8.317-1.107.258 0 1.622-.901 2.137-.155ZM615.74 24.12c-.309.335-1.391-.566-1.829-.643-2.008-.335-6.54.283-8.42 1.133-2.6 1.184-3.476 5.304-4.609 5.948-.54.309-1.236.051-1.725.257-1.03.438-2.086 1.287-3.219 1.725-2.832 1.082-7.776 2.447-10.634 1.416-5.124-1.88-1.313-6.54 1.391-8.677 1.235-.979 6.411-3.94 7.879-4.352 1.339-.386 6.102-.978 4.532 1.571-.181.31-5.33 3.708-5.923 3.991-.54.232-2.806.901-3.373.953-2.189.206-2.472-1.133-4.223 1.365-3.347 4.789 4.481 3.733 7.21 3.244 1.107-.206 4.171-1.056 5.124-1.468 2.833-1.261 3.142-4.892 5.665-6.875 2.086-1.673 7.416-2.626 10.042-2.163.901.155 2.936 1.803 2.163 2.627l-.051-.052Zm-19.802-1.648c-1.622.464-3.759 1.365-5.175 2.24-.438.284-.901.387-.773 1.056.618.515 5.639-2.291 5.948-3.296ZM540.117 22.138c.206-.31 6.154-1.597 7.364-2.06 3.347-1.287 9.424-5.15 12.025-7.647 1.674-1.597 4.146-4.43.772-5.64-2.678-.978-6.772.026-9.578.644-5.073 1.107-10.583 2.936-14.755 6.077-1.802-.721-1.03-1.339.103-2.215 3.502-2.729 16.3-6.36 20.806-6.617 2.909-.18 7.081 1.21 6.746 4.764-.232 2.523-6.128 6.643-8.188 8.033-4.532 3.039-9.682 5.897-15.295 5.665.051-.283-.077-.875 0-.978-1.777 3.141-3.502 6.334-5.021 9.681-.902 1.983-1.7 5.253-2.833 7.056-.437.695-.721 1.236-1.725 1.081-.875-2.086.515-2.652 1.236-4.223 2.91-6.411 6.36-16.685 11.51-21.526 1.133-1.082 2.292-.567 1.622.644-.206.386-.875.463-1.056.746-1.39 2.06-2.549 4.403-3.733 6.49v.025Z"/><path fill="#282626" d="M578.432 18.842c.36.979 1.442 7.828 1.828 7.93.386.104 1.03 0 1.313-.334.824-1.596 1.906-3.888 2.987-5.278.412-.515 1.056-1.365 1.803-1.34.437.49-2.807 5.305-2.24 6.206.103.129.875-.103.592.721-2.086.464-2.884 3.245-4.146 4.918-1.493 2.009-7.055 7.287-9.192 8.317-.515.258-.927.386-1.52.31.232-2.344 1.932-2.524 3.296-3.786 1.082-1.004 6.412-6.334 6.566-7.338 0-.155-1.21-1.88-1.467-2.73-.258-.927-1.133-7.313-.824-7.622h.978l.026.026ZM569.189 7.28c.257.258-.078 1.082-.361 1.468-.978 1.262-2.343 2.395-3.27 3.656-5.407 7.21-8.678 15.81-12.205 24.05-2.163 1.21-1.519-.901-1.03-2.266 2.266-6.205 6.72-15.836 10.583-21.114.566-.773 4.274-5.176 4.763-5.485.361-.206 1.288-.54 1.494-.309h.026Z"/><path fill="#282626" d="M571.168 23.811c.386 2.292-1.751 1.365-3.373 1.75-1.442.336-3.193 1.366-4.378 2.241-.592.438-1.776 1.184-1.828 1.957 1.622.798 5.717-3.347 6.051-3.27 1.313.232 1.854 3.527 3.09 3.888 1.236.36 4.661-2.163 4.712-.438 0 .644-3.527 2.292-4.197 2.42-2.549.438-3.27-3.913-3.553-3.913-1.236.875-9.553 5.87-8.703 1.57.206-1.03 3.707-3.862 4.815-4.48 2.266-1.236 4.763-2.008 7.364-1.725ZM4.558 42.145c-.18.258-3.013 1.442-3.4 2.292-.926-.13-1.158-.85-1.158-1.7 3.013-5.665 6.927-10.892 10.506-16.273 3.244-4.893 6.308-9.656 9.656-14.471 1.004-1.751 4.944-4.815 5.613-6.283.309-.721-.386-.412-.695-.36-5.768.772-11.433 2.832-17.15 3.347-1.647-2.6.49-1.674 1.726-1.906 5.021-.9 9.965-2.446 15.063-3.141.644-.129.31-.901.567-1.416C26.522-.238 37.156.56 39.73.972c4.61.772 10.377 3.425 10.815 8.678.154 1.956.051 2.935-1.133 4.454-2.318 2.987-8.497 9.09-11.613 11.175-5.356 3.58-21.114 10.866-27.32 12.643-2.73.773-3.94-.257-5.588 2.678-.257.463-.128 1.184-.309 1.493l-.025.052Zm9.707-11.716c.875-.824 5.485-1.468 7.107-1.957 6.154-1.854 20.059-7.699 23.663-13.003 1.726-2.498 1.108-7.364-1.313-9.218-2.806-2.163-10.763-2.447-13.673-.464C25.054 9.16 18.36 19.614 15.218 24.97c-1.236 2.086-1.957 4.61-3.425 6.824-.49.772-2.446 2.704-2.575 3.038-.36.876 1.03.335 1.262.258a21.848 21.848 0 0 0 5.356-2.575c-1.288-.103-2.936-.747-1.57-2.06v-.026ZM47.481 6.328l-2.549-1.236L46.53 7.46l1.7 4.403c.643-1.442.36-4.429-.748-5.536ZM12.875 25.717c-.515-.618-.696.49-.824.644-1.7 2.6-3.76 5.072-4.97 7.93l2.42-2.523c.387-.695 3.58-5.794 3.348-6.051h.026Zm14.342 2.369-1.905 1.416.308.412 1.906-1.416-.31-.412ZM19.8 30.352c-.257-.103-2.73.335-1.982.978.128.103 1.982-.412 1.982-.978ZM102.404 9.521c.232.232 1.777-.231 1.313 1.648-2.883-.077-6.72 1.236-8.6 3.45-.438.516-1.854 1.958-.283 1.7 1.57-.257 5.485-1.88 6.695-1.493.875.283.489 1.88.54 2.6-3.295.567-7.21.747-10.376 1.7-3.168.952-5.047 5.278-7.004 7.853-1.494 2.009-3.373 3.708-4.764 5.82 1.828.9 10.429-3.22 11.227-2.653.232.155.232.85.49.876.18 0 3.733-2.137 2.626 0-.953 1.88-5.33 3.708-7.287 4.274-3.142.901-9.528 2.807-11.124-1.056-.31-.746 0-2.034-.747-1.905-.412.077-2.678 1.674-3.58 2.06-3.81 1.648-12.256 4.377-16.221 3.862-.927-.128-5.51-2.06-5.768-2.832-.54-1.596 1.622-1.828 2.189-2.523 1.133-1.365 1.442-2.575 3.218-4.198 4.172-3.81 6.412-5.046 12-6.514 3.733-.979 6.205-1.416 9.836-2.73 2.008-.72 5.484-.283 7.338-1.236.49-.257.541-.772.953-1.03 5.356-3.527 10.995-6.668 16.557-9.913 1.905-.309.643 2.163.746 2.266l.026-.026Zm-9.913 5.305c-.206-.18-2.961 1.467-3.4 1.725-.514.309-1.415.463-1.21 1.236.98.592 5.202-2.42 4.61-2.961Zm-5.614 5.613c-3.373-.258-5.664 2.935-7.21 5.51-1.158 1.957-2.42 4.378-2.368 6.695.566.026 1.416-.953 1.776-1.365 2.06-2.266 3.657-5.098 5.691-7.364l2.111-3.502v.026Zm-6.746 1.365a.857.857 0 0 0-.85-.85.857.857 0 0 0-.85.85c0 .463.387.85.85.85.464 0 .85-.387.85-.85Zm-4.815.952c-6.206.438-16.685 3.605-20.986 8.24-1.544 1.674 1.571.953 2.163.49.438-.335.232-1.16 1.082-1.571 1.442-.696 4.995-1.21 6.798-1.803 3.527-1.159 7.158-2.626 10.325-4.557.412-.258.85.077.644-.824l-.026.025Zm3.296.979L67.926 29.4c-3.58 1.287-7.081 2.678-10.609 3.914-.386.128-5.407 1.158-4.48 1.956 6.103.284 12.411-.515 18.076-2.91 1.313-.54 2.395-1.39 3.605-2.008.386-.206 1.364-.334 1.416-.386.154-.18-.052-1.416.129-2.034.463-1.596 1.802-2.78 2.549-4.223v.026Zm9.579 9.579c-1.365-.155-1.365.489 0 .334v-.334Z"/><path fill="#282626" d="M121.148 16.86c1.854 1.34-1.673 4.687-2.729 5.536-1.88 1.494-4.97 2.936-7.287 3.605-4.532 1.313-12.72 1.107-14.188 6.618-.566 2.085.721 2.137 2.652 2.317 3.477.31 8.06-1.21 11.279-2.575 1.519-.643 8.626-5.072 9.141-4.97.231.052.823.593.849.825.103.592-4.892 4.197-5.768 4.737-4.403 2.704-11.973 4.764-17.097 3.889-2.086-.36-3.553-1.803-3.141-3.966.695-3.502 5.458-8.085 8.214-10.3 1.03-.823 2.368-1.055 2.935-2.343-1.236 0-2.832.799-3.965 1.34-.799.36-1.803 1.364-2.472 1.493-.618.103-.721-.412-.49-.67.026-.051.515-.051.799-.36.334-.36.412-.799.875-1.133 1.983-1.39 12.72-4.352 15.321-4.48.953-.052 4.429-.052 5.047.411l.025.026Zm-2.008 2.807c.464-.567.695-1.468-.077-1.854l-4.429.309 2.163 3.296c.154.051 2.214-1.545 2.369-1.751h-.026Zm-14.6 4.738c1.056-.232 3.657 0 4.944 0 .618 0 4.326-2.215 4.764-2.833.283-.438.412-.927.36-1.442-3.09-.978-8.832 1.829-11.072 3.966-.232.206-.772.72-.489.978.463.438 1.364-.644 1.493-.67ZM135.567 21.238c-5.046 3.63-6.282 7.956-9.913 12.385-2.369 2.884-2.034 1.21-4.609-.309l11.227-18.874c3.373-1.184.437 3.81 2.729 4.249 1.133.231 2.678-1.288 3.528-1.648 1.545-.67 3.244-1.005 4.712-1.932 1.158-.334 3.347 3.682 1.957 3.966-.541.103-1.211-.798-1.726-.927-1.313-.335-6.643 2.163-7.879 3.038l-.026.052ZM40.09 35.09c-1.03 1.004-3.965 4.506-4.995 4.79-1.03.283-2.369-1.571-1.442-2.473L46.22 27.185c.49.386.901.876.515 1.494-2.266 2.085-4.455 4.248-6.67 6.411h.027ZM54.049 18.843c.309-.052 1.133.334 1.287.592.644 1.004-2.24 4.403-3.347 2.652-.54-.875 1.39-3.116 2.06-3.244ZM225.922 22.345s-.592-.077-.592.18c0 .18.412.644.309.824-.052.077-1.442.412-1.777.309-.798-.258-.515-1.648-.541-2.292.696-.206 3.322.052 2.627.979h-.026ZM214.98 21.88c.206.335 0 1.16.051 1.597-.772.103-2.034 0-2.265-.875-.387-1.52 1.956-1.159 2.214-.721ZM522.348 7.873c-1.854 1.596-3.27 10.042-3.425 12.591-.18 3.038.052 6.128.669 9.09.85.205 1.545-1.236 2.318-.85 1.983 1.004-1.339 3.785-3.116 3.502-1.596-.258-2.858-4.12-2.832-5.614-1.7.258-2.833 2.086-4.789 2.318-7.931.927-7.725-8.085-1.159-9.914.489-.643-4.944-3.502-6.566-1.107-1.339 3.734-2.292 7.545-2.421 11.459-.669 1.467-2.446.077-2.575-1.288-.077-.772.361-2.214.541-3.064.438-2.086 1.339-6.206 2.189-8.034 2.034-4.351 7.081-2.961 9.81-.129.592.618.721 1.314 1.159 1.803.438.489 1.468.875 1.802 1.493 1.674 2.884-3.27 5.279-4.3 4.48-.618-.463.567-.669.644-.9.103-.258-.077-.696.077-.98.078-.128 2.678-1.724.361-1.647-.798.026-2.678 1.75-2.936 2.55-1.184 3.758 2.884 3.501 5.15 1.853 3.579-2.652 2.524-3.888 3.322-7.57.644-2.91 1.88-8.343 3.605-10.609.669-.875 1.751-2.214 2.832-1.52 2.086 1.366.077 1.675-.412 2.112l.052-.025ZM454.628 32.103c.181.206 2.678 2.24 2.859 2.292.824.231 3.527-.927 2.008.978-1.21 1.52-3.116.618-4.326-.36-4.351-3.502-4.841-7.004-4.66-12.257.025-.927-.644-1.828.54-2.78.696-.542 1.314-.155 1.751-.413.155-.103.232-.772.953-1.184 1.236-.696 3.425-1.005 4.712-1.571 4.197-1.803 12.128-6 15.166-9.27.181-.18 1.468-2.008 1.52-2.137.721-1.622-1.932-2.987-3.219-3.373-3.837-1.21-16.402.747-19.75 3.244-.515.387-.437 1.082-.746 1.39-.953.98-3.863.104-1.339-2.162 4.042-3.682 19.724-5.948 24.333-3.296 2.472 1.416 3.63 3.528 1.957 6.128-1.803 2.781-9.244 7.545-12.334 9.141-2.137 1.108-9.605 3.528-10.48 4.712-1.725 2.318-.721 8.755 1.055 10.918ZM486.918 20.67c.181.18 3.142-.875 3.837-.953 2.06-.231 5.433 0 5.999 2.498.618 2.73-.798 4.352-2.78 5.974-1.983 1.622-10.532 4.97-13.21 5.304-4.403.593-7.725-2.472-6.926-6.926.746-4.12 5.381-8.266 9.604-8.266.567 0 2.627.36 3.013.644.643.515.386 1.622.463 1.7v.025Zm-1.184.515c-.335-.36-.309-.746-.953-.875-7.647-1.52-13.879 12.746-3.013 11.226.438-.051 3.451-.927 2.987-1.287-4.197-3.296-1.39-5.794 1.494-8.755.103-.257-.335-.077-.515-.283v-.026Zm5.047.54c-4.815.902-9.528 8.472-1.211 6.721 1.442-.309 4.069-2.91 4.635-4.3 1.056-2.626-1.364-2.806-3.424-2.42Z"/><path fill="#282626" d="M461.864 26.335c-3.245 7.056 6.978 4.867 10.686 3.58.463.231.128.592-.181.798-2.961 2.06-11.458 3.965-12.926-.567-1.699-5.201 4.635-9.604 8.755-11.2 1.777-.696 8.369-2.704 7.854.875-.438 2.987-11.124 7.313-14.162 6.514h-.026Zm11.819-6.669c-2.189.078-4.687 1.108-6.618 2.138-.412.231-4.712 2.78-3.965 3.476 3.038-.541 5.819-1.803 8.574-3.167l2.009-2.447ZM454.834 10.782c.18.335.026 1.21-.155 1.622-3.913 4.764-7.003 10.171-10.583 15.192-.901 1.262-3.501 5.125-4.428 5.82-.927.695-1.829.644-1.674-.67.051-.566 4.892-6.36 5.691-7.544 3.089-4.48 5.536-8.78 9.012-13.132.463-.593.283-1.494 1.313-1.494.154 0 .772.155.798.206h.026ZM375.14 18.56c-4.686 6.206-16.942 14.548-24.333 17.123-2.394.85-5.896 1.005-7.827 2.575-.464.386-2.292 3.064-2.446 3.142-1.674.952-2.138-3.734-1.314-4.764.309-.386 1.159-.49 1.7-.953.618-.54 1.545-2.652 1.879-2.858.567-.36 1.468.18 1.726 0 .077-.051.515-1.468.875-1.931 4.275-5.716 8.961-11.252 13.699-16.685.746-.876 4.094-3.966 4.274-4.635.206-.773-.412-.412-.824-.49-4.583-.824-4.454.335-7.956.644-.67.052-1.262-.335-1.88-.257-.876.103-5.665 2.575-6.746 3.167-.284.154-3.425 2.832-3.065 1.236.567-2.472 11.485-6.85 14.111-7.365 4.558-.9 15.965-1.544 19.415 1.88 3.45 3.425 1.081 6.978-1.288 10.12v.051Zm1.108-4.84c1.648-6.799-7.184-6-11.562-6.618-.18.927.232.54.721.746 2.421.979 9.013 1.417 10.017 4.198.283.746-.258 1.905.798 1.673h.026Zm-6.824 6.72c.18-.18.721-.155 1.03-.438.206-.206 3.193-4.377 3.322-4.635.283-.592.309-1.777.103-2.42-.412-1.313-6.978-3.245-8.188-2.704-1.108.515-1.597 2.884-2.318 3.605-2.729 2.704-5.484 5.51-8.24 8.265L345.864 34.5c2.008-.026 4.609-1.082 6.514-1.906 6.36-2.78 12.18-7.338 17.072-12.179l-.026.026ZM406.965 21.984c.49.438 6.824-2.189 5.923.798-.309 1.03-6.618 1.056-7.983 1.623-1.854.746-6.231 7.338-6.231 9.32 0 3.554 3.708.619 4.326 1.16-.155 1.622-3.167 2.291-4.377 1.905-1.597-.49-1.803-4.249-4.867-2.73-.773.387-3.193 5.15-2.652-.154-2.627.953-7.056.36-9.27 2.137-1.133.901-2.189 3.09-3.296 4.326-1.468 1.648-7.055 6.798-8.883 3.58-1.571-2.73 2.858-6.052 4.892-7.236 2.601-1.494 5.897-1.726 7.596-3.966-2.832-.283-5.33.206-5.536-3.399-.232-3.81 7.596-6.72 10.66-6.694 2.034 0 2.601 1.905.644 2.034-3.167.206-5.176-.18-8.085 2.137-2.215 1.777-2.962 4.712.772 4.429 2.06-.155 5.227-3.013 3.502 1.674.309.283 7.21-.412 8.008-.747 1.056-.438 2.06-3.064 2.807-4.12.309-.463 2.24-3.09 2.394-3.219 1.262-.798 5.382-1.75 6.592-2.678 1.571-1.184 3.322-3.708 4.738-4.995.824-.72 6.489-5.407 7.004-5.407.772 0 1.339 1.133.849 1.828-.618.901-5.021 3.785-6.308 4.944-.85.772-2.009 1.725-2.807 2.497-.334.31-.618.438-.489.979l.077-.026Zm-9.939 10.557c.155-.128 1.288-2.987 1.725-3.733.541-.901 2.163-2.601 2.421-3.193.36-.824-1.468-.824-2.06-.232l-4.378 6.695c.387.18 2.138.592 2.292.49v-.027Zm-18.153 3.966c-.618-.644-8.497 4.377-7.931 6.592.695.643 3.785-1.468 4.455-1.983.566-.464 4.094-3.966 3.476-4.61ZM434.827 10.19c-2.91 3.863-6.618 11.047-8.755 15.528-.747 1.544-5.021 12.771-5.716 12.771-.489-.515-1.288-.927-1.107-1.725 2.163-4.146 3.682-8.6 5.716-12.797.309-.644.875-1.03 1.107-1.52 1.88-3.785 7.184-15.707 10.429-17.638 1.57-.927 2.163.052 1.57 1.57-.592 1.52-2.446 2.782-3.27 3.838l.026-.026ZM420.512 26.928v-1.313c-.257-.258-5.021 1.365-5.742 1.7-1.519.72-5.974 3.759-6.154 5.432-.335 3.245 5.459.103 6.618-1.004 1.441-1.39 1.287-4.145 4.274-3.476.592 1.416-1.648 2.704-1.674 3.476 0 1.082 2.833.876 1.674 1.674-1.751 1.21-3.09-.232-3.759-.103-.49.077-2.009 1.493-2.781 1.828-1.88.824-5.15 1.442-6.129-1.004-.978-2.446 2.961-6.051 4.815-7.236 1.854-1.184 8.678-4.197 10.3-2.575 1.185 1.185.206 3.065-1.493 2.653l.051-.052ZM370.302 30.558s-1.081 1.57-1.313 1.828c-.515.541-4.068 3.914-4.455 4.146-1.416.824-2.034.232-1.184-1.185.309-.514 4.789-4.454 5.279-4.634.54-.18 1.107-.18 1.673-.155Z"/><path fill="#282626" d="M404.652 16.035c.386 2.24-1.365 2.833-3.296 2.627-.026-1.52 1.802-2.832 3.296-2.627ZM374.574 24.971c.18.31-.051 1.16.026 1.623-.592.077-1.751-.31-1.957-.85-.515-1.262 1.802-1.004 1.931-.773Z"/></svg>