<svg xmlns="http://www.w3.org/2000/svg" width="249" height="273" fill="none"><g fill="#282626" clip-path="url(#a)"><path d="M181.778 102.413c-.982-1.162.141-2.58 1.085-3.298.05.83 1.025 1.296.921 2.195-.109.854-1.445 1.768-2.006 1.103ZM173.757 89.204c-.551-.433.21-1.939.985-2.05 1.155 1.067-.202 2.636-.985 2.05ZM114.565 26.298c.359.228-.364.867-.41.548l.41-.548Z"/><path d="M225.547 90.135c-.42-.009-2.658 1.105-3.629 1.314-1.785.373-4.425.31-6.208-.108-1.131-.256-4.407-1.345-1.726-2.126.916-.272 2.447-.469 3.418-.515 1.388-.06 6.44.912 7.072.286 1.709-1.712-4.453-1.338-4.831-1.377-6.234-.78-7.413-2.821-9.207-8.662-.781-2.518-2.777-14.127-3.547-15.11-.287-.378-.89-.361-.995-.602-.365-.925.581-2.924-.691-3.835-.417-.312-1.538-.337-1.795.142-.657 1.258 1.607 7.288-.309 7.564-.502.072-1.069-.475-1.337-.879-.721-1.13-2.032-5.225-2.023-6.46-.001-1.14 1.508-4.081-.777-4.754-2.067-.61-.653 2.422-.897 2.83-.266.41-8.01 2.735-9.144 2.945.402-2.875.023-6.964-2.423-8.917-.525-.413-1.271-.26-1.516-.666-1.204-1.899-2.444-6.633-3.554-9.01-.366-.763-2.298-4.326-2.781-4.605-2.533-1.429-.737 2.806-.573 3.458.389 1.573.651 3.235 1.018 4.812-.446.134-.473-.538-.614-.867a241.216 241.216 0 0 1-2.489-6.788c-.479-.094-.982-1-1.034-1.039-.173-.068-.739.689-.768.972-.042.518.493 1.163.559 1.782.125 1.355-.084 4.11-1.423 4.837-.56.314-1.399-1.638-2.006-1.806-2.321-1.575-4.216.303-5.739-.572-.407-.244-.851-1.227-.659-1.511.227-.359 6.96-3.073 7.931-3.446.58-.176.384-.893-.027-1.16-.408-.244-6.458.743-7.468 1.005-.252-.779.814-1.142.709-1.871-.072-.502-.927-.938-1.262-.843-.228.033-2.532 3.111-3.057 3.187-.228.032-1.334-1.345-2.431-.233-.598-1.567 1.376-2.246 1.036-3.804-.21-.97-1.452-2.002-1.847-2.807-1.212-2.433-1.68-4.88-3.67-7.061-2.127-2.325-3.902-2.209-6.58-.753l-2.034-4.759c-.705-.364-1.871-.383-1.75.624l6.512 14.52-.511.494c-3.23-4.494-5.95-9.48-10.238-13.077-.343-.277-1.037-.247-1.487-.625-.763-.611-2.081-2.82-3.603-2.554-.296.043-.348.655-.723.476-.779-.4-3.291-6.37-4.557-4.978-.031 1.402.156 3.19.516 4.559.409 1.547 1.316 3.162 1.731 4.593.89 3.107 1.577 6.268 2.352 9.392l-3.626.522c-.273-2.871-.732-6.064-1.465-8.892-.429-1.684-1.62-3.817-2.97-1.714-.589.922-.91-.335-.634-1.33.478-1.697.087-1.013.102-2.202-.003-.349 2.982-7.273-.297-4.66-.966 1.862-5.306 5.675-5.8 7.422-.049.147-.016.538.225.434 1.797-2.075 3.29-4.803 5.097-6.81.322-.348.393-.824 1.006-.772-.026.469-.385 3.151-.486 3.259-.377.45-1.376-.5-1.642-.253-.349.33-2.31 7.246-3.843 6.466-.906-.475-.529-1.74-.608-1.799-.185-.16-2.209.178-2.757-.232-.156-.117-1.127-3.143-1.421-3.73-.297-.608-1.818-3.742-2.56-2.75-.313.417 2.094 8.894 1.606 10.198.898 1.22.897.243 1.73-.436l.842 1.323c-.048.635-1.733.249-.989 1.702.588 1.172 1.509-.357 2.15-.426 1.135.93-5.026 4.867-2.861 6.813-.805-.257-1.743.018-1.941.908-.159.675 1.099 1.006-.98 1.119-.365-.274.548-6.55-2.135-8.213-1.174-.716-3.613 1.427-4.466 2.295-3.646 3.783-3.668 7.348-4.906 12.019-.207.821-1.545 6.252-2.443 3.727-.84-2.277-1.8-2-2.516-3.41-.261-.52.006-1.094-.383-1.69-.564-.85-2.281-.65-1.096-1.798.55-.545 1.198-.731 1.66-1.566 1.022-1.8.407-3.97-1.227-5.13-1.97-1.394-5.5-.048-7.324 1.192-.763-.123-.644-1.886-1.319-2.37-.492-.349-1.287-.048-2-.318-1.729-.683-5.147-4.218-6.859-5.439l-.756.249c.031 1.834 2.782 5.582 3.299 7.556.51 1.93-.69 3.94 1.103 5.243.47.351 1.114.142 1.65.787.969 1.234 1.242 4.104 2.126 5.56-.621.858-5.745-4.016-6.163-4.654-.271-.427-.876-2.528-1.003-2.603-.183-.136-1.078.272-1.437-.119-.356-.368-1.855-7.555-3.002-7.6-.398-.012-.971.21-.977.653-.006.28.752 2.802.838 3.72.22 2.344.285 5.547-.7 7.598-.25.524-.945.554-1.221.897-.355.447-.66 2.213-1.086 2.973-.611 1.089-1.77 1.93-2.147 3.195-1.285-.188-2.94-.531-4.217-.348-1.14.164-2.75 1.117-3.633 1.128-.58.014-.958-.677-1.486-.298-.404.267-1.008 2.38-1.007 2.868.007 1.023 1.044 2.085-.072 3.06-1.283 1.116-3.238 1.118-4.871.933-1.493-.18-9.049-2.865-9.394-2.513-.1.108-.077.92-.37.985-.137.02-2.357-.686-2.51-.78-1.053-.523-1.114-2.4-2.88-2.542-3.09-.277-1.454 2.514-1.384 4.133.03 1.02-.363 1.845-.255 2.923.105 1.056 1.091 3.056 1.128 3.633.06.899-.967 1.21-1.194 1.894-.312.906.288 2.007.348 2.906-2.246-.398-6.573-.87-7.728 1.624-.976 2.12.534 2.577 1.653 4.046-1.298-.442-4.036-2.004-5.258-1.432-.938.437-.568 1.711-.933 2.252-.524.727-2.375.807-2.278 2.61.036.576 1.152 2.022 1.622 2.373.857.622 2.187.64 3.17.685-.002.955.876 1.876.938 2.635.096 1.476-2.414 3.606-.975 5.192.274.287 1.023.319 1.14.162.101-.108-.292-2.519.369-2.94.769-.157 3.125 2.95 3.412 3.653.353.834.543 5.556.397 6.484-.042.193-1.79 2.935-2.076 3.209-2.76 2.492-9.586 3.427-13.21 3.809-.342.049-.82-.045-.886.477-.242 2.036 6.294 1.515 6.683 2.274 1.208 2.41-1.088 3.765-.86 4.873.102.544 1.433 2.028 1.848 2.807.389.759.785 2.704 1.222 3.153.355.368 1.055-.268 1.053.361-2.06.412-2.937 2.564-4.011 3.999-.156.208-.73.267-.948.532-1.81 2.146 2.3 7.095 4.098 8.419.86.645 2.2 1.057 3.006 1.803-1.144-.185-3.239.465-4.085 1.216-.557.499-.497 1.724-.842 2.239-.657.933-1.593.253-1.35 2.103.098.685 1.012 2.671 1.511 3.065.418.313 1.627.302 1.845.526.251.29.083 1.059.562 1.316.303.166 1.515.015 2.138.135 3.624.759.053 1.506-.526 2.171-.498.584.692 1.25-.299 1.16-1.528-.106-3.925-2.368-5.63-2.565-.521-.065-2.75-.024-3.037.25-1.162 1.145.08 1.688.093 1.779.05.342-1.515.474-.874 2.663.592 2.01 3.608 3.718 3.667 3.966.442 2.101-2.82 2.407-2.746 4.864.054 1.669 1.01 2.812 2.539 3.406 2.562.982 2.206-.038 4.079 2.789 2.65 4.019 3.674 8.551 5.64 12.668.662 1.371 2.349 2.897 2.167 4.227-.032.261-.568 1.874-.685 2.031-.547.73-1.734.249-2.004.8-.146.277.124 2.799.29 2.985.392.456 1.434.259 1.868.523.41.266.584 1.312 1.09 1.915 1.889 2.289 11.282 4.313 11.42 4.945-.91 2.086-3.404 4.82-3.158 7.182.102.87.676 1.136.309 2.144-.205.518-1.452 1.885-1.914 2.23-.358.262-1.12.301-1.183.357-.039.052.102 1.196.178 1.231.237.199 3.996-1.343 4.613-.943.13.098.904 1.593 1.853 2.202 1.18.761 2.881.772 3.712 1.211.255.15.425.684.875.899.85.413 5.175 1.025 6.042.9 1.323-.19 2.394-1.322 3.4-1.606.427-.108 2.614-.283 2.995-.222 1.043.13 2.824 2.644 4.044 3.19.821.371 2.317.249 2.421.327.078.058.291 1.052.461 1.423 2.289 4.746 4.972 8.993 8.654 12.746 10.833 11.059 24.327 22.015 39.055 27.136 4.289 1.502 11.243 4.203 15.548 4.678 3.05.329 11.702.435 14.553.025 6.223-.918 21.108-11.533 26.128-15.956 14.085-12.455 24.743-27.211 30.51-45.22 1.416-4.394 2.709-9.329 3.597-13.833.308-1.581 1.454-12.547 2.083-12.708.091-.013 1.108.423 1.682.364 2.111-.211 3.563-2.422 3.794-2.432.16-.022 1.233 1.616 2.096 1.305.554-.196.185-1.307.331-1.584.127-.251.818-.304 1.052-.617.98-1.281-1.437-3.681.041-4.731.041 1.251 2.218 2.148 2.895 1.19 1.377-1.921-2.045-8.878-1.808-9.331 2.724-.974 6.563-3.249 6.919-6.443.19-1.75-.48-1.071-.643-1.234-.548-.573.332-.607.475-.907.432-.876.841-2.728 2.288-2.703.137-.02 1.536 1.944 2.259.979.254-.34-1.784-5.121-2.192-5.854-.917-1.684-3.484-3.503-4.186-5.311-.186-.485.42-.316.514-.958.583-3.879-1.719-5.48-3.019-8.366-.83-1.882-1.636-7.167-3.091-8.215-.521-.39-1.57-.077-1.575-1.077 1.833 1.087 2.202-.875 3.267-1.89.472-.44 1.124-.604 1.596-1.044 1.966-1.866 2.353-6.624 2.311-9.179-.042-2.554-.272-4.966-1.33-7.304.573-.385 4.131-1.386 4.264-1.591.377-.613-.754-1.358-1.38-1.338l-.12.133ZM116.074 22.217c-.873.893-1.802-3.14-1.819-3.743-.017-.44.051-.938.57-.57.182.136 1.437 3.68 1.271 4.31l-.022.003Zm-36.221 8.748-1.796-3.583c.176-.234 2.292 1.207 2.377 1.311.228.293-.054 2.056-.581 2.272ZM21.18 102.444c-.772-.029-2.14.168-2.565-.516l2.874-.087c.08.547.3.632-.309.603ZM19.3 147.946c-.172.094-2.646-3.344-.655-3.421-.892 1.083 1.86 2.735.655 3.421Zm1.52 4.902 1.976 4.838c-3.327.176-6.21-3.367-1.976-4.838Zm5.106-13.537 2.29-.912 1.131.094c.146 2.632-1.857.523-3.401.791l-.02.027Zm5.764 33.437c.082.733 2.065 2.38.929 3.056-.15.091-2.444-3.234-.929-3.056Zm2.27 8.008c-1.197-.387-1.31-.533-1.045-1.759.14-.16 2.008 1.178 1.044 1.759Zm-.554 3.92c.56.339 1.851.409 2.246.725.238.198.526 1.065.92 1.381-.693.681-3.543-1.493-3.189-2.102l.023-.004Zm9.047 4.961c.374-1.287 2.741-.045 2.302.461-.437.528-1.624-.768-2.301-.461Zm-1 13.11c-.366-.273.848-2.356 1.099-2.392.16-.023 2.233 1.285 2.618 1.532l-3.717.86Zm4.163 1.916c-.97-1.071 1.106-1.533 1.6.282-.27.062-1.548-.243-1.6-.282Zm2.289-1.563c-.492-.023-1.369.034-1.343-.436.108-.062 1.248.1 1.3.139.053.039.03.206.043.297Zm1.024.318c.704.039 1.688.572 2.073 1.145-.772.134-1.343-.924-2.073-1.145ZM31.694 68.714l-1.656 2.403c-.666-.906-1.253-1.59-.27-2.522 1.449-1.42 3.93-.682 5.77-.504l-3.821.62-.023.002Zm167.232-7.154-.025.958c-.385-.247-.639-.397-.614-.866l.616-.089.023-.003Zm-13.258-8.662c1.549 1.547 1.705 3.76 1.951 5.796-.429.736-1.592-1.68-1.807-1.882l-.144-3.914Zm-4.582-7.744c.483.931 1.018 2.065 1.189 3.088-.733.245-.606-.006-.864-.504-.493-1-.84-2.277-.975-3.375.447-.134.49.488.65.79Zm-4.799-1.8 2.136 4.813c-.698-.155-.807-1.56-1.726-1.637-.446-.029-.967.395-1.465.49-.411.06-.985-.208-1.271-.096-.157.045-1.122 2.233-1.332.936-.131-.912 3.532-3.115 3.655-4.53l.003.023Zm1.825 13.82-.958-.025c.325-.652.609-.623.958.026Zm-3.633-9.72-.527.705c-.186-.649-.124-.704.527-.705Zm-2.194 2.55c-.136.183-3.813-1.104-3.804-2.013.742-.34 4.517.98 3.804 2.014Zm-2.345 11.372c.421.172 1.611.676 1.598 1.237l-2.735-1.213c-.063-.76.89-.128 1.137-.024Zm-3.245-23.37c.288.866-.156.534-.582.805-.73.43-1.512.822-2.362.898-.08-1.525 1.892-1.576 2.944-1.704Zm-16.333-14.343c.707-.753 2.346-.197 3.028.333.264.218 1.595 2.029 1.374 2.27-.668.213-2.105.256-2.646.544-.521.26-.858 1.473-1.504.705-.421-.498-.773-3.265-.252-3.852Zm8.328 32.162c-.263 1.41-.215.775-1.486.842.081-.734.886-.803 1.486-.843Zm-8.319-19.965s.585 1.802.634 2.144l-1.23-1.918c-.085-.267.566-.268.592-.248l.004.022Zm-4.846-6.985c.091-.176.9.43.75.847-.091.176-.9-.43-.75-.847Zm-1.935-2.282c-.862 1.125-2.449-2.628-2.685-3.13.75.033 3.001 2.735 2.685 3.13Zm-1.392 32.558c-.31-.049-.974.675-1.209.5-.447-.355.631-1.767 1.209-.5Zm-5.935-28.152c.202.762 1.517 1.97.387 2.691-1.386-1.383-.978-3.56-1.426-5.382-.514-2.114-1.549-4.13-1.86-6.297l2.456 6.235c.245.896.22 1.854.446 2.776l-.003-.023Zm-4.454-13.164-.289-1.681c2.071 1.285 1.274 3.518 1.749 5.522l-1.46-3.84Zm3.441 37.52c2.374-.97 2.594.558.042.296l-.042-.296Zm-7.645-30.816c.061-.544-.451-.866.53-.845.216 1.18.299 2.402.519 3.604.189.997 1.338 2.508.156 3.353-.547-2.343-1.467-3.56-1.202-6.09l-.003-.022Zm-1.391 3.599.704.527c-.648.186-.704.125-.704-.527Zm5.797 27.031c.965.885-2.062 1.042-2.213.155-.147-.863 1.997-.357 2.213-.155Zm-1.464 3.097s1.248.1 1.3.139c1.018.924-1.948.7-1.3-.139Zm-8.393-33.106c1.184-1.963 1.175-1.054 3.13-1.055.532.621.013 3.49-.58 3.575-.205.03-3.155-1.548-2.554-2.543l.004.023Zm3.025 24.753c-.085-.267.566-.268.593-.248.417.312.007 1.023-.593.248Zm-3.594-22.716.592 1.847c-.984-.37-2.113-1.581-.592-1.847Zm-3.176 3.972c.221-.241.146-.603.165-.629.919-.737 2.774 4.234 3.21.144l1.047.64c-.752 1.086-4.584 3.896-5.44 1.994-.509-1.114.409-1.526 1.015-2.171l.003.022Zm1.041 5.624c-1.244.411-1.809-1.09-2.504-1.875 1.476.23 2.285.347 2.504 1.875Zm-4.1-1.645s.535 1.133.499 1.208c-3.596 1.705-1.259-1.634-.499-1.208Zm-1.192 18.422c.184.951.308 1.818.172 2.815-.08.57.21.808-.608.786.048-.961-.136-2.076-.107-3.01.015-.538-.262-.522.547-.568l-.004-.023Zm-9.02-20.469c.209.157-1.105 2.185-1.418 2.44-.141-.33.877-2.804 1.418-2.44Zm-5.89 34.788.18 1.255c-1.698.174-2.172-1.34-.18-1.255ZM88.764 34.176c.464-1.464 3.86-1.975 5.069-1.497 1.972.764 2.942 2.812 1.545 4.596-.315.395-1.162.982-1.624 1.165-2.294.889-1.21.011-1.963-1.184-.395-.642-3.362-2.008-3.027-3.08Zm-1.645.54c.09-.177.9.429.75.846-.091.176-.9-.43-.75-.847Zm-1.223 9.463c-.935.298-.535-.155-.747-.66-.356-.857-.647-1.746-1.003-2.603 1.291.396 1.56 2.104 1.75 3.264Zm-6.47-1.77 2.45 2.302-.385.405-2.45-2.302.385-.404Zm-4.69-6.867c.177.58.158 1.095-.435 1.343l-.18-1.255.616-.088Zm-4.12 11.487c-.064 1.336.155 2.538-1.555 2.459-.28-.17 1.108-2.814 1.555-2.459Zm-10.9 7.737a1.023 1.023 0 0 1 1.148.859 1.023 1.023 0 0 1-.859 1.148 1.023 1.023 0 0 1-1.148-.86 1.023 1.023 0 0 1 .86-1.147Zm1.64 40.363c.192.042.824.556.932.82-1.133.536-1.89-1.008-.933-.82Zm-8.664 28.785c.267-.085.268.567.248.593-.312.417-1.023.007-.248-.593Zm2.865 21.051-.025.958c-.385-.247-.639-.397-.613-.866l.615-.089.023-.003Zm9.076 58.08c-4.278-5.461-4.883-7.725-7.28-13.875-.592-1.521-2.354-4.224-2.632-5.511-.432-2.033-.057-4.764-.737-7.227-.389-1.411-1.642-3.326-1.81-4.489-.255-1.779.742-5.53 1.656-7.105.169-.281-.082-.57.65-.49l11.526 39.989c-1.444-.165-1.086-.915-1.396-1.289l.023-.003Zm2.483 6.58c-.82-.837-.243-1.851.435-1.343.235.175.09 1.267-.435 1.343Zm145.771-44.363s.366-1.333.754-1.389c.362.577-.246 1.688-.754 1.389Zm-3.827-35.183c.033 1.043-.539 2.569-.45 3.347.105.73.77.984.858 1.436.043.297-1.205 4.085-1.056 5.926.148 2.004.47 1.492 1.159 2.557.271.426-.067 7.784-.252 8.765-.111.528-.635.767-.677 1.448-.038.867.683 4.581.054 5.23-.159.186-.811.024-1.127.255-.147.114-1.467 2.749-1.597 3.14-.231.662-.928 4.23-.592 4.461 1.13-.558 1.806.579 2.084 1.377l-3.062 19.017c-2.727 7.096-4.554 15.274-8.298 21.772-.986 1.725-4.67 6.701-4.737 8.177-.022.329.255.639.301.958-1.691-.106-1.029.614-1.465 1.305-.436.691-.764 1.483-1.09 1.972-.69 1.031-2.07 2.277-2.874 3.324l.405.873c-.58.013-1.609.464-1.941.907-.313.418.434.753-.022 1.144-.225.219-.717.033-.951.184-.766.505-2.391 1.67-1.539 2.572-2.047-.474-.85.402-1.342.868-.309.277-1.212.477-1.71.898-.475.417-.963 1.07-1.475 1.562-6.078 5.81-12.267 11.658-19.833 15.54-.671.353-2.286 1.586-2.667 1.687-.701.148-1.239-.52-1.594-.399-.489.163-.618 1.532-1.507 1.986-6.722 3.434-18.907 2.882-25.98.641-7.999-2.528-15.021-5.382-22.291-9.155-7.597-3.936-14.339-10.346-20.888-16.387-5.906-5.459-11.54-11.935-13.575-20.256-.788.509-1.22-1.035-1.445-1.794-.095-.336-.5-1.046.08-1.059.239.687.537 2.111 1.296 2.374-.552-1.899-.467-4.705-2.133-5.932.909-.154.216-2.219-.085-2.851-.133-.283-.368.193-.615.089.218-.265.185-.656.116-.972-.491-2.769-2.664-5.739-3.16-8.857-.127-.889.46-.205 1.072-.317.638-.743-.447-.518-.502-.742-.791-2.261-2.386-4.127-2.952-6.606-.498-2.163-.745-4.851-1.017-7.07 1.346.458 1.411 3.824 1.969 4.466.333.371 2.004.34 1.765-.673l-.958-.026c.318-1.349-.98-2.28-1.157-3.511-.075-.525.247-1.2.12-1.6-.053-.202-.665-.091-.685-.228-.122-1.17.78-2.999.983-4.169-1.582 1.299-2.017-3.341-2.269-4.608-.475-2.493-.406-5.901-1.646-7.725-.793-1.143-.306-2.447-.692-4.161-1.328-5.838-2.41-12.386-3.006-18.47-.273-2.707.546-5.595-1.148-7.982l.639.071c.117-.646-.549-1.388-.588-1.824-.027-.183.55-.219.582-.48.078-.919-.341-2.698-.32-3.842.106-5.904 1.05-13.42 3.068-18.971.218-.59 1.288-3.025 1.728-3.205.931-.32 1.437.771 2.203 1.08 1.53.595 4.227-.073 5.715-.729 2.583-1.14 9.629-7.344 10.624-9.978.373-.962.3-2.278.723-3.387.488-1.304 2.373-2.925 1.785-4.26-.13-.261-.776-.052-1.167-.345-.623-.446-1.413-1.729-2.266-1.839-1.64-.23-4.471.317-5.976 1.023-.808.372-1.214.943-1.947 1.35-.466-.165-.19-.833-.024-1.137.423-.782 3.64-3.992 4.482-4.765 5.893-5.317 15.364-11.172 22.057-15.138.556-.336 1.238-.457 1.726-.946 1.083 4.616-.3 9.564-.547 14.162-.134 2.627.35 5.025.949 7.57 1.092.145 1.192-.94 1.347-1.801.906-.34.838.81 1.324 1.113.972.605 2.371-1.807.8-1.884 1.419-1.624 1.457-2.98 1.618-4.935.019-.352.387-.708.393-1.15.008-2.54-3.94-4.416-4.211-5.168-.396-1.13 1.629-6.962 1.409-8.653 0 0 .042-.03.062-.056-.02-.136-.04-.273-.01-.394.006-.117.038-.215.068-.336.042-.192.064-.358.084-.547l-.02-.137a.638.638 0 0 1-.007-.209c.007-.117.065-.195.098-.293l-.091.013c.569-1.222.18-2.959.589-4.158.178-.538.833-.679.875-1.034.026-.306-.421-.824-.415-1.43.013-3.308 1.898-8.49 3.766-11.204.345-.515 3.157-4.109 3.405-4.168.478-.069.437.613.453.89.093.964-.017 1.98.27 3.01.108.427.37.948.682.368-.197-1.043.243-5.11-.97-5.285-.332-.045-1.654.96-1.394.015.139-.486 1.636-2.377 2.239-2.068.252.126 1.29 2.654 1.362 3.156.135.935-.19 2.239-.094 3.226.396 5.018.811 10.01.767 15.044l.003.023.01.069.03.205s.006.045-.013.072c0 0-.026.143-.065.195l.003.023c.003.023.01.068-.01.094l-.019.027.016.114a.436.436 0 0 1-.019.188c.013.092.003.186-.007.28l.004.024c.019.136.085.267.127.4l.059.41.003.024c.549.735-.062 6.527-.306 6.771-.062.056-1.779-.07-1.88-.125-.479-.257-.39-1.9-1.312-2 1.453 3.144.218 2.972-.875 5.085-1.2 2.337-1.286 4.654-1.196 7.225 1.031.527.436-.691.54-1.265.376-2.079.357-5.614 2.529-6.37-.098 3.041.405 7.508 3.072 9.383.415.29 1.493.506 1.549.568.137.144-.536 1.777.787 2.075.525-.075.626-3.256 1.715-2.481.258.172-.331 1.584.796 1.166a40.8 40.8 0 0 1-.943-8.827l.544.55c1.163-.656-.737-4.48-.95-5.473-.426-1.988-.519-4.093-.876-6.09 1.219.057 2.606-.98 3.482-1.2.834-.189 1.715.103 2.562.005 1.505-.217 3.616-.753 5.017-.722.375.016.779.074.887.501-1.257.484-3.269 2.845-3.717 4.096-1.102 3.022 3.201 5.104 5.584 5.971 3.612 1.32 10.764.384 14.288-1.17 1.577-.692 2.309-1.426 2.529-3.134.178-1.352-.734-1.384 1.018-2.311l-1.278.02c-.252-1.104-.199-1.065.844-.936 1.3.14 12.734 3.57 13.703 4.152 3.459 2.04 7.856 3.153 11.55 5.532 2.798 1.809 7.346 7.044 9.458 7.974.57.244.883-.173 1.473.207 4.992 3.147 8.945 10.4 11.759 15.396.875 1.55 2.816 3.878 3.303 5.321.562 1.642-.091 3.412.418 5.015.631 1.958 1.295.908 2.049 1.777.528.599 2.623 4.162 2.777 4.908.184.951-.343 2.308-.147 3.187.18.766.943 1.052 1.077 1.498.206.622-.226 2.151.195 2.975.938-.926 1.826.552 2.12 1.464 1.131 3.493 3.492 12.627 3.57 16.085l.118.006ZM68.163 87.748c-.034-1.369 1.19-2.569 2.056-3.508-.24 1.245-1.131 2.653-2.056 3.508Zm47.016-16.074-.615.088.138-1.3.297-.043.18 1.255Zm-2.929-6.935c-.071 1.127.374 3.089-1.121 3.374-.239-1.34-.277-2.73 1.121-3.374Zm13.443-8.987c-.075.29-.875 2.174-1.348 1.8-.102-.87.292-1.858 1.348-1.8Zm89.87 105.936c-.514.796-1.263-1.494-1.204-1.736.524-.075 1.301 1.606 1.204 1.736Zm-4.361-74.983c1.597.26 2.879 1.239 4.606.944l-3.792 1.15c-.782-.097-.705-1.504-.814-2.094Zm3.237 24.443.839-4.846c1.032 2.645 1.276 5.636-.445 8.072l-.417-3.223.023-.003Zm-8.863-43.328c-.098-.684-.354-2.3.255-2.76l.722 5.017c-.786-.12-.888-1.641-.977-2.257Zm1.564 6.34c-.427.108-.64-1.212-.705-1.505-.069-.479-.115-.798-.021-1.277l.703 2.785.023-.003Zm12.955 83.92.235 3.248c-3.289-.691-2.363-3.803-2.48-6.231-.02-.463-.943-2.192.122-2.392.479-.069 1.8 4.746 2.123 5.375Zm3.025-9.235c-.299.346-.172.909-.804 1.21-.498.258-2.244.742-2.896.905-.27.062-1.182.52-1.225-.103-.056-.388 5.601-3.785 6.233-4.574.548 1.061-.748 1.923-1.288 2.536l-.02.026Zm1.889-8.396c-.15-.071-1.371-2.573-1.727-2.941.71-.73 3.117 2.089 2.916 2.467-.349.004-.958.627-1.209.5l.02-.026Zm2.331-1.592c-1.764-.934-2.609-2.768-3.8-4.249.491-.63 4.496 2.938 3.8 4.249Zm-6.691-8.652c.507-.678 3.534 2.727 3.323 3.037-1.864-.011-2.11-1.885-3.323-3.037Zm1.305-4.355c.818.022 1.229 3.199 1.111 3.355-1.769.162-.575-2.221-1.111-3.355Zm-1.88-3.687c.881 1.433.511 3.232.76 4.803-2.698-.148-1.446-2.772-1.988-4.277-.311-.863-.917-1.195-1.149-2 .117-.156 1.033.061 1.222.244.134.12.121.518.288.703.192.205.629.166.867.527Zm-2.341-7.531c.3.143 1.852 4.622 1.696 4.83-.769.158-1.265-.539-2.095-.327-.675.167-1.355 1.266-2.238 1.277-.264-.218 1.051-4.994 1.429-5.444.28-.319.905-.502 1.231-.34l-.023.004Zm-3.897-20.624-1-2.417 2.347.78-1.347 1.637Zm2.655 9.558c.026-.306.427-3.67 1.167-3.054.082.081-.412 1.991-.483 2.304-.137.509.18.766-.661.747l-.023.003Zm1.313 6.865.705.527c-.649.187-.704.125-.705-.527Zm1.074-1.435c-.755 1.063-.819-1.814.047-1.939.001.326.012 1.861-.047 1.939Zm-.952-4.356.185-.981.296-.042.135.935-.616.088Zm4.594-.916c-.22 1.707-.638 4.305-2.391 5.069.373-2.754 1.398-7.441-1.012-9.306.953-1.3 1.428-2.859 2.104-4.306.088-.2.041-1.17.687-.728 1.037.736.816 7.775.612 9.271Z"/><path d="m116.668 23.109.046.32c.189-.144.176-.236-.046-.32ZM118.879 22.791l.046.32c.189-.144.176-.236-.046-.32ZM95.586 45.672l.046.32c.189-.144.176-.235-.046-.32ZM69.37 56.17c.166-.465-.327-.814-.385-.572-.166.466.327.814.385.573ZM99.11 53.5c-.027-1.324-.643-1.235-.297.042l.297-.043ZM164.569 43.13c-.466-.166-.814.326-.573.385.466.166.814-.327.573-.385ZM142.209 51.467l.046.32c.189-.144.176-.235-.046-.32ZM143.351 51.63c-.467-.166-.815.326-.574.384.467.166.815-.326.574-.385ZM138.006 55.587l.046.32c.189-.144.176-.236-.046-.32ZM114.809 60.204c-.027-1.323-.643-1.235-.296.043l.296-.043ZM111.457 60.36l.046.32c.189-.144.176-.235-.046-.32ZM114.604 62.166l.045.319c.189-.144.176-.235-.045-.32ZM115.764 63.605l.046.32c.188-.144.175-.235-.046-.32ZM176.744 57.697l.046.32c.189-.144.176-.235-.046-.32ZM100.568 69.306l.046.319c.189-.144.176-.235-.046-.32ZM100.703 70.24l.046.32c.189-.144.176-.235-.046-.32ZM194.777 60.55l.046.32c.189-.143.176-.235-.046-.32ZM194.343 60.939c-.466-.166-.815.326-.573.385.466.166.814-.327.573-.385ZM196.489 61.282l-.41.548c.046.32.749-.294.41-.548ZM75.217 81.286c-.027-1.323-.643-1.234-.296.043l.296-.043ZM66.224 87.701c.165-.466-.327-.814-.385-.573-.166.466.326.814.385.573ZM59.26 93.824l.046.32c.189-.144.175-.235-.046-.32ZM45.855 138.679l.046.319c.19-.144.176-.235-.046-.319ZM20.924 143.545l.046.319c.189-.143.175-.235-.046-.319ZM54.656 140.951l-.297.043.18 1.255.297-.043-.18-1.255ZM47.466 144.546l-.296.043.18 1.254.297-.042-.18-1.255ZM221.299 135.861l.046.32c.189-.144.175-.235-.046-.32ZM29.28 168.299l.045.32c.19-.144.176-.235-.046-.32ZM56.807 165.946l.046.32c.188-.144.175-.235-.046-.32ZM51.513 167.988c-.466-.166-.815.327-.573.385.466.166.814-.326.573-.385ZM38.533 170.158l.046.319c.189-.144.176-.235-.046-.319ZM48.178 172.635l.046.319c.189-.143.175-.235-.046-.319ZM217.364 151.884a.39.39 0 1 0-.111-.775.391.391 0 1 0 .111.775ZM34.486 177.793l.046.319c.19-.143.176-.235-.046-.319ZM215.911 155.213c.166-.466-.327-.814-.385-.573-.166.466.327.814.385.573ZM36.799 187.075l.046.319c.189-.144.175-.235-.046-.319ZM39.42 188.63c.167-.466-.326-.814-.384-.573-.166.466.326.814.385.573ZM214.328 163.146l.046.319c.189-.143.176-.234-.046-.319ZM40.877 188.723l.046.319c.189-.143.176-.234-.046-.319ZM42.337 188.839c-.466-.166-.815.326-.573.385.466.165.814-.327.573-.385ZM55.747 188.516c-.048.473.232.642.614.867.09-.339-.497-1.186-.614-.867ZM47.054 192.654c-.467-.166-.815.326-.574.385.467.165.815-.327.574-.385ZM47.28 193.25l.045.319c.19-.144.176-.235-.046-.319ZM45.472 197.351c.165-.467-.327-.815-.385-.574-.166.467.326.815.385.574ZM46.084 200.475l.046.319c.189-.143.176-.234-.046-.319ZM48.318 200.479l.046.32c.19-.144.176-.235-.046-.32ZM66.696 200.071c.166-.466-.326-.815-.385-.573-.166.466.327.814.385.573ZM44.643 203.895c-.287.274.221.41.407.57.29-.252-.195-.391-.407-.57ZM67.308 202.218c.165-.466-.327-.815-.385-.573-.166.466.326.814.385.573ZM57.113 203.684l.046.319c.19-.143.176-.234-.046-.319ZM67.217 202.557l.046.319c.189-.144.175-.235-.046-.319ZM86.732 115.58c1.682-2.138 3.224-4.443 5-6.568.277-.333.95-.483.983-.568.753-1.204-1.567-.122-1.911-.099-1.069-.835 3.817-3.06 4.278-3.393 1.644-1.118 3.424-2.896 5.124-3.781 1.572-.814 3.362-.911 4.991-1.973 6.087-4 14.125-10.844 21.193-12.528 1.855-.454 4.775-.26 6.551-.943.789-.3.518-1.223.79-1.262.408-.058.925.481 1.363.472.439-.01.956-.431 1.478-.506.521-.075 1.306.239 1.59.118.151-.075 1.769-3.62 1.73-.195l9.564-.575c1.994 1.796 5.027 1.493 7.316 2.286 5.162 1.794 20.205 12.448 24.007 16.842 1.11 1.282 7.587 9.163 7.991 10.039 2.939 6.441 5.19 13.407 7.003 20.383.377 1.495.565 3.924.961 5.069.2.585.208-.644.532 1.446 1.464 10.017 1.466 26.439-1.606 35.8-.5 1.514-2.632 4.865-2.723 6.16-.046.648 1.246.782 1.098 2.165-.114 1.138-2.162 2.02-2.457 2.704-.507 1.141-.498 5.706-.809 7.406-.723 3.976-2.152 6.265-5.868 3.595 3.112 1.048 4.677.021 4.89-3.641l-1.22.362c.132-.366.65-.467.748-.748.068-.17.64-3.43.705-3.947.064-.517.114-.978-.502-.755l-8.772 15.414c-1.017 2.256-2.993 3.796-4.313 5.561-.117-.491-.664-.759-1.031-.573.231.314.427 1.034.789.982-.268.385-1.848 2.749-1.89 2.942-.284 1.082.265 5.543-.827 5.833-1.783.471-.149-3.289-.715-3.849-1.262.395-1.002 2.2-2.656 1.477-.335-2.008 2.627-3.449 2.771-4.698.319-2.609-.582-6.459.005-9.294-4.991 2.294-8.986 7.008-14.57 7.918-.563.588-.569 5.209-.585 6.386l-.664-.278c.071.657.445 1.164.497 1.851.177 2.031-.121 6.72-.318 8.884-.031.432-.412.674-.401 1.073.23.154 1.878-.778 2.165-1.033 1.262-1.196 2.725-3.409 4.218-4.612.601-.487 1.579-1.402 1.828-.316.326-2.077 1.796-2.795 2.56-4.401l.313 1.05c2.501-.466-.429-3.623 2.868-2.255-.756 1.497-1.755 3.243-3.431 2.683l.154 1.393c-1.319.484-2.355 2.609-3.402 3.213-.427.249-1.087-.003-1.144.085-.057.088.109.759-.163 1.279-.783 1.474-4.792 4.16-5.851 5.648-.404.565-.446 1.72-1.202 2.736-2.514 3.273-7.489 3.267-11.13 3.203-.65-.013-3.985-.682-4.072-.482-.071.144.558 2.27-.828 1.962-.767-.184-.498-1.851-.973-2.103-1.696-.211-3.373-.77-5.008-1.363-2.221-.802-4.57-1.532-6.719-2.318-2.519-.946-6.25-3.24-8.576-3.814-2.206-.537-.439 1.292-1.913 2.305l-.285-3.27c-3.41-1.673-6.722-3.627-10.014-5.61-2.41-1.469-4.61-4.224-7.527-3.27l-.057.729 8.409 6.508c.419.34.32.942-.212.778-.533-.163-2.711-2.44-3.462-3-2.772-2.058-6.05-4.097-8.723-6.276-1.57-1.269-2.733-3.078-4.1-4.217-.449-.389-1.306-.399-1.45-.592-.366-.455-1.033-2.202-1.804-3.052-8.131-9.085-13.26-16.278-16.547-28.997-1.007-3.941-1.337-8.006-1.777-12.189-.44-4.182.673-8.348.389-12.58-.143-2.116-.226-1.57-.055-3.757.274-3.885-.026-8.382 2.892-11.098.982-.248-.31 1.06.872.596-.57-1.547.496-1.7.855-2.58 1.861-4.433 3.284-9.819 6.433-13.182.215-.913-.684-.57-.763-.798-.268-.897.458-1.642.983-2.171a.287.287 0 0 0 .208.317c.204-.029.087-.36.11-.363 1.258-1.223 4.415-5.976 5.885-7.816l.66 1.373c2.93-2.798 5.862-5.569 8.564-8.655.439-.49 1.433-1.141 1.203-1.936-1.092.612-2.2 1.278-3.163 2.138-1.931 1.693-4.506 5.828-6.168 6.975-.42.301-.65.147-1.119.108l-.041.033Zm66.545-28.238c-2.247-.344-4.445-1.15-6.723-1.223-1.371-.043-3.894.106-5.281.28-3.184.377-2.4 2.454-2.857 2.653-.612.248-1.719-.046-2.289.49-.476.549.165 1.15.263 1.831.23 1.596.43 1.861.739 3.205.87 3.64 1.734 7.228 2.846 10.78l17.158-2.468c-1.174-1.567-1.037-3.83-1.489-5.848-.271-1.243-2.008-9.458-2.412-9.694l.045-.006Zm-14.451 18.555c-.855-4.016-2.164-7.967-3.257-11.869-.392-1.439.074-3.028-1.297-3.712-1.197-.602-2.134-.04-3.185.538-4.224 2.317-7.898 5.73-11.933 8.392-.583 1.58 2.409 8.226 2.929 10.074.332 1.18-.409 2.622 1.37 3.568l.182-1.148 15.214-5.846-.023.003Zm-16.28-13.467c-.468-.2-.805.356-.563.428.468.2.805-.356.563-.428Zm-.877.5c-.468-.2-.805.356-.563.428.468.2.805-.356.563-.428Zm41.023-1.735c-1.239-.73-3.973-2.206-5.238-2.638-.899-.298-1.779-.625-2.716-.384.938 4.752 3.527 9.88 2.735 14.668 6.923.366 13.931-.936 20.831 1.036-1.691-2.267-3.972-3.648-6.022-5.356-3.02-2.503-6.271-5.32-9.586-7.3l-.004-.026Zm-41.899 2.235c-.469-.2-.805.356-.563.428.468.2.804-.356.563-.428Zm-13.788 8.205c2.931-.849 6.649-2.505 9.056-4.587.39-.35.866-.419.613-1.21l-9.669 5.797Zm28.844-8.555.053.366c.185-.16.17-.265-.053-.366Zm-17.889 7.353c-1.47 1.2-3.129 2.213-4.546 3.458-.741.64-2.967 3.337-3.247 3.484-1.364.651-1.363-1.753-.788-2.583.268-.386 2.437-1.873 3.057-2.39.93-.774 1.617-1.14 2.366-1.728.54-.425 1.878-1.579 2.078-2.276-2.83 2.678-6.687 3.526-9.801 5.363-1.916 1.156-3.817 3.219-5.4 4.435-.937.722-4.126 2.356-4.569 3.301-.124.258.563.853.729 1.524.686 2.838.514 6.628 1.222 9.624.132.595 1.082 3.823 1.339 4 .411.288.544-.078.842-.254 1.444-.902 3.64-4.289 5.265-5.538 1.187-.918 3.257-2.124 4.568-2.98 3.201-2.036 6.745-3.774 10.089-5.457-.463-4.179-2.394-7.96-3.193-12.065l-.011.082Zm-11.727 2.434s.005-.775-.26-.683c-.782.673-.042 1.154.26.683Zm-1.933-.095c-.469-.2-.805.356-.563.428.468.2.804-.356.563-.428Zm.894.592.053.366c.185-.16.17-.265-.053-.366Zm-3.903 2.778c.952-.137 1.847-.666 2.313-1.615-.82.252-2.071.565-2.313 1.615Zm-4.842 6.224c-.552-.294-2.985 2.245-3.51 2.775-4.513 4.655-7.19 8.564-10.781 13.995-.25.356-.877.82-.93.934-.344.985 1.02 6.61 1.424 7.967.139.487.577.798.668 1.106.139.487-.315 2.155.576 2.24.843.066 6.633-7.123 7.903-8.267 2.32-2.043 5.23-3.209 7.705-4.98l-3.074-15.741.019-.029Zm81.185-6.55c-.294-.278-5.642-1.111-6.462-1.18-4.238-.352-9.651-.188-13.897.049-5.643.331-11.253 1.218-16.682 2.4.204.611.74.641 1.194.576 1.919-.169 4.529-1.319 6.713-1.58 1.957-.228 3.494.005 5.262.071 5.496.251 17.6-2.932 22.516.206.585.37.517 1.021.755 1.227.185.16 2.591.642 3.252.894 1.084.458 2.428 1.76 3.365 1.358-1.024-1.001-2.36-2.411-2.771-3.82-.759.029-.96 1.046-1.621 1.274-.2.056-1.911.062-2.013-.004-.729-.563 1.096-.905.427-1.53l-.038.059Zm-37.936 1.798c-1.307.241-3.449.309-4.22 1.702.997-.464 2.093-.568 3.128-.931.332-.101 1.231-.284 1.092-.771Zm-13.933 3.82.053.366c.185-.16.17-.265-.053-.366Zm-39.09 5.996c-1.24.713-2.39 2.374-3.3 3.599-.564.749-1.342 1.769-1.838 2.508-1.311 1.978.128 1.37.93.026l.048 1.462.485-2.099 3.678-5.469-.004-.027Zm41.213-5.554c-.469-.199-.805.356-.563.428.468.2.804-.356.563-.428Zm-2.709 1.111c-1.923.944-4.02 1.326-5.973 2.221-2.52 1.137-5.819 3.294-8.23 4.869-.446.278-.869-.089-.563.909 1.473-1.174 3.4-1.29 5.044-2.088 2.599-1.228 5.029-3.313 7.779-4.296l1.943-1.615Zm24.66-3.547-4.885 1.424c.967-.193 1.987-.179 2.947-.424.423-.115 1.858-.428 1.938-1Zm.929-.134c-.468-.199-.804.356-.563.428.469.2.805-.356.563-.428Zm-6.762 1.721-1.247.179.049.34 1.247-.179-.049-.34Zm30.466-2.914c-.257-.657-.797-.713-1.349-.527-.291.229.963.743 1.349.527Zm.929-.133c-.468-.2-.805.356-.563.428.468.199.805-.356.563-.428Zm-71.794 18.765c2.474-.65 4.67-2.755 6.669-4.458-2.26 1.34-5.082 1.986-6.669 4.458Zm-25.273 19.07c1.447-1.517 2.841-2.438 4.52-3.641.068-1.933-.917-3.634-1.361-5.439-.177-.749-.376-4.539-1.124-4.432l-2.84 8.073a.479.479 0 0 0-.091-.628c-.185-.16-.412-.127-.544.079a.477.477 0 0 0 .09.627c.185.161.412.128.544-.078-.563 1.069-.3 4.663-.626 5.298-.325.634-1.171.382-1.326.591-.076.118.044 1.916-.032 2.354.329.514.552-.026.771-.271.692-.82 1.221-1.644 2.022-2.507-.037.059.151.726 0 1.122-.151.395-.657.094-.858.47-.216.432-.428 1.691-.48 2.286.494.062.158-.504.415-.808 1.3-1.415 3.114-2.477 4.267-4.112l-2.789 1.683-.01-.559c.184-.32-.552-.134-.571-.105l.023-.003Zm-3.115-3.958c1.066-.955 1.672-2.698 1.608-4.264-.737 1.148-1.754 2.762-1.608 4.264Zm-.52-2.489.053.366c.185-.16.17-.265-.052-.366Zm12.379-.312.053.366c.185-.16.17-.265-.053-.366Zm-14.3 3.525c-.664-.118-.865.899-1.042 1.432-.246.703-.205 1.312-.387 1.818-.11.363-.744.134-.548.693 1.213-.414 1.89-2.621 1.978-3.943Zm10.388 1.444c-.056-1.514-.668-1.426-.295.042l.295-.042Zm-11.004 7.457c.408.422 3.117-1.489.727-2.668-.25.677-1.41 1.939-.727 2.668Zm1.454 1.26c.283.2 3.306-2.745 2.691-3.324-.268-.256-1.391 1.909-1.758 2.095-.302.15-.037-.903-.555-.641l-.374 1.896-.004-.026Zm-1.348-.527c-.469-.2-.805.356-.564.428.469.2.805-.356.564-.428Zm.15 2.168.052.366c.185-.16.17-.264-.052-.366Zm.981.233.053.366c.185-.16.17-.265-.052-.366Zm25.827 5.845c-.469-.2-.805.356-.564.428.469.2.805-.356.564-.428Zm2.242 2.241-.948-.958-.113.176c.578.478.23 1.115 1.057.756l.004.026Zm-17.687 3.292-.154-1.073-.318.046-.163 1.118.612-.088.023-.003Zm-7.272 1.393.052.366c.186-.16.17-.264-.052-.366Zm7.079-.644c-.672-.01-.706.075-.51.794l.51-.794Zm-6.661 3.548.052.366c.185-.16.17-.264-.052-.366Zm-1.454 5.336.053.367c.185-.161.17-.265-.053-.367Zm4.722-.305.053.366c.185-.16.17-.265-.053-.366Zm-6.392 2.041c-.28.307.23.474.419.661.283-.281-.204-.452-.42-.661Zm3.441-.522.053.367c.185-.161.17-.265-.053-.367Zm3.84 1.29-.611.088.154 1.073c.435-.196.643-.68.458-1.161Zm-6.501 2.404.052.367c.186-.161.17-.265-.052-.367Zm4.828-.694c-.469-.2-.805.356-.564.428.469.2.805-.356.564-.428Zm-1.194.546c-.469-.2-.805.356-.563.428.468.199.804-.356.563-.428Zm-2.132 2.87c-1.319.002-1.217.709.049.34l-.05-.34Zm-.613 1.209.053.367c.185-.16.17-.265-.053-.367Zm9.338-1.343.053.367c.185-.161.17-.265-.053-.367Zm-4.784 3.252c.02-.51-.297-.945-.766-.985l.155 1.073.611-.088Zm-2.017.29.053.366c.185-.16.17-.264-.053-.366Zm2.225 1.149c.155-.53-.344-.939-.397-.664-.155.53.343.939.397.664Zm1.004.229c-.056-1.514-.668-1.426-.294.043l.294-.043Zm-4.057.584-.714-.619c.019.772.094.815.714.619Zm.819 1.351c.02-.51-.298-.945-.766-.985l.154 1.073.612-.088Zm2.811-1.526.053.366c.185-.16.17-.265-.053-.366Zm-1.728 2.465c.156-.53-.343-.939-.396-.664-.155.529.344.938.397.664Zm3.552-.885.052.366c.186-.16.17-.264-.052-.366Zm-2.758.771.053.366c.185-.16.17-.265-.053-.366Zm2.119.416c.155-.53-.344-.939-.397-.664-.155.53.344.939.397.664Zm2.867-1.134.053.367c.185-.16.17-.265-.053-.367Zm-5.27 1.479c-.034-.235-.245-.418-.45-.389-.203.029-.354.265-.32.5.033.236.245.419.449.39.204-.03.355-.265.321-.501Zm3.2-.433.052.366c.186-.16.17-.265-.052-.366Zm2.119.416c.155-.53-.344-.938-.397-.664-.155.53.344.939.397.664Zm-4.882 1.45c-.422-.366-.974.3-.057.729.28.013.084-.706.058-.729Zm2.913.302c.155-.53-.344-.939-.397-.664-.155.53.344.939.397.664Zm3.105-.447c.155-.529-.343-.938-.396-.664-.156.53.343.939.396.664Zm-5.705 1.195.053.366c.185-.16.17-.265-.053-.366Zm2.97-.427c-.038.539.245.739.63 1.004.083-.386-.52-1.367-.63-1.004Zm-3.552.884c-.28.308.23.475.42.661.283-.281-.204-.451-.42-.661Zm7.82-1.124.053.366c.185-.16.17-.265-.053-.366Zm-3.458 3.782-.207-1.439-.295.042.207 1.439.295-.042Zm-2.942-.672c-.038.54.245.739.63 1.004.083-.386-.52-1.367-.63-1.004Zm4.828-.694.052.366c.185-.16.17-.265-.053-.366Zm-.53.823.053.367c.185-.16.17-.265-.053-.367Zm5.939-.854.052.367c.186-.161.17-.265-.052-.367Zm4.374-.629.053.366c.185-.16.17-.264-.053-.366Zm-13 3.712c.14-.474-.679-1.184-.766-.984-.14.474.68 1.184.766.984Zm3.106-1.568.053.366c.185-.16.17-.264-.053-.366Zm-1.511.591.053.367c.185-.16.17-.265-.053-.367Zm1.982 1.558c.155-.53-.343-.939-.396-.664-.155.53.343.939.396.664Zm-2.863.038c-.468-.2-.805.356-.563.428.468.2.805-.356.563-.428Zm.841 1.347-.713-.618c.018.772.094.814.713.618Zm2.845-1.13.053.367c.185-.161.17-.265-.053-.367Zm100.749-14.491-.397.618c.053.366.741-.32.397-.618ZM84.865 200.874l-.472.415.992 1.432.473-.415-.993-1.432Zm.94.105.053.366c.185-.16.17-.265-.053-.366Zm4.67-.672c-.28.307.23.474.419.661.283-.281-.204-.452-.42-.661Zm-3.802 3.484c.14-.474-.68-1.184-.767-.984-.14.474.68 1.184.767.984Zm3.705 1.31-.714-.618c.018.771.094.814.714.618Zm2.44-.725c-.423-.366-.975.301-.057.729.28.014.084-.706.057-.729Zm53.592.73 4.669-.671-4.299 1.152c-.506.5.438 1.112.581 1.786.493 2.466-2.089.754-2.066-1.012-.883-.674-2.631 3.423-2.344 3.649 4.329-.142 8.319-1.998 12.467-2.915.605-.14 1.352-.248 1.934.096l-.26-.684c2.466-.221 5.534-1.41 7.118-3.587l-3.392.862-.238-.687-1.304.908c.066-1.798 1.3-1.095 2.498-1.454 2.391-.744 4.658-1.07 5.472-4.098 1.341-.166.048 2.102.15 2.168 2.943-.771 5.542-2.159 7.806-4.434.227-.514-.646-.468-.914-.884-.351-.51-.309-1.504-.932-1.975-.623-.471-2.961-.322-3.641-.064-.374.134.173 1.043-.178 1.174-.918.372-1.976-.063-2.867.012-4.314.407-13.815 2.388-16.963 5.431-.488.47-3.957 4.655-3.278 5.198l-.019.029Zm-44.972-1.596.053.366c.185-.16.17-.264-.053-.366Zm-15.492 2.949.053.367c.185-.16.17-.265-.053-.367Zm3.946 2.023c.02-.51-.298-.945-.766-.985l.154 1.073.612-.088Zm3.74-1.659.053.366c.186-.16.17-.265-.052-.366Zm39.567-4.944-5.145.74c-.136.02-2.535 1.032-2.66 1.131-.359.238-.28.627.06.739l4.507-1.156 3.238-1.454Zm-42.94 6.898s-.677-.037-.586.271c.442.016 1.377 3.46 1.951 2.47.076-.118-1.237-2.653-1.343-2.745l-.023.004Zm34.368-4.57c-.468-.2-.805.356-.563.428.468.2.805-.356.563-.428Zm58.738-7.728s.004-.775-.261-.683c-2.543 2.582-5.619 4.36-8.691 6.003l-.265 8.13 2.741-3.145c1.039-2.099 3.095-4.211 4.026-6.267.495-1.059.394-2.407.7-2.851.227-.353 1.636-1.01 1.727-1.183l.023-.004Zm-90.667 12.694.053.367c.185-.161.17-.265-.053-.367Zm33.999-4.89.053.366c.185-.16.17-.264-.053-.366Zm12.532 1.883c1.617-.019 2.75-.503 3.507-2.16-2.07-1.679-3.69-1.686-6.04-1.134-1.39.306-2.75 1.303-3.929 1.633-5.984 1.662-9.886 1.876-14.947 6.583-.427.408-1.107.827-.881 1.595 3.601-1.826 7.895-.441 11.405-1.293 2.055-.509 3.635-1.912 5.493-2.82 1.451-.689 3.201-1.235 4.674-1.927.551.294-.182.507-.397.618-.601.326-7.617 3.499-7.383 3.999l8.624-.68c.254-1.612.92-2.936 1.834-4.135l-1.934-.256-.026-.023Zm-35.236 1.757.053.366c.185-.16.17-.265-.053-.366Zm71.314-9.884c-.469-.2-.805.356-.563.428.468.2.804-.356.563-.428Zm-79.326 11.757.052.366c.185-.16.17-.264-.052-.366Zm78.181-10.871c-1.3.454-2.502 1.428-3.771 1.931-1.685.669-4.643.374-5.071 3.026 3.151-.774 6.604-2.339 8.846-4.931l-.004-.026Zm-75.64 11.974c.155-.529-.343-.938-.396-.664-.155.53.343.939.396.664Zm4.726-1.401.053.367c.185-.16.17-.265-.053-.367Zm-10.241 1.821.053.366c.185-.16.17-.265-.053-.366Zm-1.194.545c-.28.308.23.475.419.661.283-.281-.204-.451-.419-.661Zm4.692-.675.053.367c.185-.16.17-.265-.053-.367Zm-.692 1.943.052.366c.185-.16.17-.265-.052-.366Zm-1.546 1.317-.586.271 3.753 4.053c-.494-1.825-2.496-2.552-3.167-4.324Zm10.69-.79c.155-.53-.343-.939-.396-.664-.155.53.343.939.396.664Zm-5.44.782.053.367c.185-.161.17-.265-.053-.367Zm3.471.97c.155-.53-.343-.939-.396-.664-.155.529.343.938.396.664Zm-3.316.103.052.366c.185-.16.17-.265-.052-.366Zm.982.233.052.366c.185-.16.17-.265-.052-.366Zm3.123.645c.155-.53-.343-.939-.396-.664-.155.53.343.939.396.664Zm-4.586.286.053.366c.185-.16.17-.265-.053-.366Zm61.609-8.835c-.472-.066-.634.252-.85.683.34.111 1.171-.542.85-.683Zm-44.037 10.367-15.351-.57c5.116 3.083 9.98 6.816 15.474 8.99.537.03.806-1.478.987-1.984.341-1.011.761-2.273.622-3.401-.499.072-.197.723-.67 1.138-1.107.987-2.376.849-3.338-.375 1.178.632 1.692.024 2.836-.221-1.355-1.22-.644-2.07-.515-3.584l-.045.007Zm18.514-4.132c-.267-.736-.649-.494-1.087-.485-2.304.065-4.647.669-6.974.896-2.005.209-4.366-.6-6.074.874.09.628 1.11.481 1.53.501 1.865.106 6.1-.049 7.875-.412 1.53-.3 3.057-1.427 4.727-1.4l.003.026Zm-15.431 1.124c-.883.127-1.775.202-2.651.382-.386.055-1.194-.096-1.036.523 1.096.056 2.255.236 3.34-.107.419-.14.937-.402.351-.771l-.004-.027Zm16.995-1.349-.154-1.073c-.253.17-.896 1.17-.775 1.206l.929-.133Zm16.524-3.499.053.367c.185-.16.17-.265-.053-.367Zm1.247-.179.053.366c.185-.16.17-.264-.053-.366Zm-3.529.882c-1.839.398-3.925.698-5.704 1.194-.378.108-1.636.369-1.621.954l5.092-1.106 2.233-1.042Zm5.462.335c-3.709.587-7.193 2.264-10.85 3.057-5.704 1.194-13.573 2.619-19.304 3.15-1.163.114-4.219-.381-5.016.027-.797.409-1.575 5.941-2.089 7.351-.295.843-1.183 1.265-1.176 2.599 3.044 1.057 5.951 2.775 8.942 3.947 2.742 1.048 8.075 3.058 10.737 3.557.593.101 1.175.285 1.772.092-.297-3.349.185-6.596.406-9.885.076-1.08-.044-2.558.043-3.398.042-.514.865-7.495 1.794-6.507-.459 2.923-.306 6.079-.624 9.009-.035.245-.769 2.541-.791 2.864-.08.733.565 1.361.516 1.982-.03.432-.578.804-.639 1.347-.068.491.324 1.289.358 1.845.052.847-.659 1.857.421 2.93.215.209 4.99.751 5.515.702 1.847-.185 7.711-3.646 8.762-5.346.45-.732-.109-1.56.911-1.386-.429-2.021-.375-5.02-.321-7.217.05-1.903.478-4.075.559-5.769.084-1.507-.202-3.335.059-4.895l.015-.056Zm-37.289 6.459c-.997-.818-1.554 2.386-1.15 3.103.869.088.506-.34.669-.817.128-.393.67-2.1.481-2.286Zm47.041 2.794.053.366c.185-.16.17-.265-.053-.366Zm-9.313 2.808c.156-.53-.343-.939-.396-.664-.155.53.343.939.396.664Zm6.705.13c-.468-.199-.805.357-.563.429.468.199.805-.357.563-.429Zm-1.652 1.707c-.672-.01-.706.075-.51.794l.51-.794Zm-8.167 8.518.053.366c.185-.16.17-.264-.053-.366Z"/><path d="M82.353 133.054s-.303-.003-.32.046c0 0-.088-.29.117-.32.124.052.232.153.203.274ZM176.323 207.299s.153-.231.274-.365c.016.114-.16.349-.274.365ZM158.022 202.576l-4.721.516c1.211-1.455 3.399-.163 4.587-1.451l.134.935ZM151.11 203.569l-.042-.296c.56-.15.912-.131 1.323.298l-1.277.021-.004-.023ZM152.752 202.682c.222.084.235.175.046.319l-.046-.319ZM159.025 201.779c.222.085.235.176.046.32l-.046-.32ZM113.305 217.97c.212.179.697.319.408.57-.186-.16-.695-.296-.408-.57Z"/></g><defs><clipPath id="a"><path fill="#fff" d="M0 30.765 213.886 0l34.73 241.46-213.885 30.765z"/></clipPath></defs></svg>