<svg width="116" height="22" viewBox="0 0 116 22" fill="none" xmlns="http://www.w3.org/2000/svg">
<path d="M114.492 20.2124C113.764 20.3221 112.815 20.4261 112.097 20.479C111.872 20.4959 111.984 20.4385 111.829 20.447C111.526 20.4631 111.245 20.5171 110.947 20.5274C110.848 20.5302 110.968 20.4402 110.864 20.4443C110.296 20.4658 109.763 20.5374 109.193 20.5727C106.404 20.7382 103.666 20.8918 100.741 21.0112C99.79 21.0518 98.6425 20.9769 97.6815 21.0886C97.5692 21.102 97.6392 21.2378 97.6181 21.2505C97.2866 21.4468 97.3921 21.1576 97.1729 21.131C96.3031 21.0266 95.3479 21.0503 94.5293 21.1459C94.178 21.187 94.5466 21.4765 94.1711 21.3219C94.1449 21.3113 94.2364 21.1433 94.1342 21.13C93.9021 21.0999 93.4654 21.1466 93.2871 21.1403C92.9434 21.1269 92.8868 21.1306 92.5634 21.1406C92.1213 21.1531 91.5969 21.0842 91.1279 21.1391C91.0278 21.1516 91.1628 21.3279 91.0034 21.3647C90.8437 21.4015 90.4215 21.402 90.2793 21.3634C90.1368 21.3249 90.1956 21.1776 90.1701 21.1452C89.9602 20.8695 89.4799 21.2743 89.4178 21.2872C88.2843 21.4918 87.3197 21.291 86.2769 21.3145C85.478 21.3341 84.6741 21.4332 83.8545 21.4374C82.9101 21.4414 82.1177 21.3386 81.2177 21.3689C81.1228 21.3719 81.2337 21.6225 81.1177 21.627C79.8861 21.6745 78.6797 21.6619 77.4888 21.4902C77.3694 21.4726 77.5251 21.2414 77.406 21.2099C76.6658 21.0239 75.5717 20.5502 75.0686 21.5746C74.547 21.5339 73.9185 21.4904 73.4613 21.2778C73.1666 21.1407 73.4582 20.883 73.0929 20.9906C73.0106 21.0145 73.1138 21.2437 72.9906 21.2625C72.4719 21.342 71.9119 21.2619 71.4049 21.375C71.3017 21.3986 71.326 21.6056 71.2963 21.6425C71.0459 21.9419 70.65 21.4384 70.5629 21.4005C69.8975 21.1202 69.4099 21.2184 68.7943 21.2007C68.6516 21.1964 68.8139 21.4806 68.6763 21.4866C67.952 21.5142 67.2704 21.4767 66.508 21.3326C66.3451 21.3 66.5022 21.0623 66.4248 21.0343C66.0836 20.9137 65.9946 21.368 65.6687 21.2608C65.6001 21.2388 65.6451 21.0328 65.6331 21.0097C65.4462 20.6474 65.2604 21.1484 65.2094 21.1583C64.5648 21.2933 64.1758 20.7519 63.5647 20.807C63.4916 20.8142 63.6469 21.0823 63.442 21.0863C62.8302 21.099 62.209 21.0807 61.5944 21.0324C60.8377 20.973 60.091 20.8684 59.3818 20.7214C59.1793 20.6802 59.3347 20.4892 59.3225 20.4643C59.118 20.0745 58.9514 20.5775 58.8803 20.5935C58.3177 20.7067 57.8235 20.256 57.4227 20.8436C55.0767 20.5194 52.9864 20.7339 50.659 20.0402C50.63 20.032 50.6986 19.7894 50.6409 19.7743C49.947 19.589 50.0575 19.9805 49.5637 20.4135C49.4391 20.5219 49.1261 19.9343 49.0982 19.8911C48.9958 19.7313 49.1384 19.3757 49.1026 19.3437C48.8065 19.0913 48.7723 20.2976 48.3521 20.2658C48.3391 20.2628 48.4101 20.046 48.3764 20.0214C48.2721 19.9443 48.1576 20.0238 48.0566 19.9397C47.8258 19.7453 47.7821 19.158 47.3881 19.468C47.3383 19.5082 47.3583 20.1915 46.9922 20.1297C46.8458 20.1047 46.1993 20.063 46.0238 20.0041C45.8478 19.9454 45.9882 19.7391 45.9762 19.7286C45.517 19.4022 45.7094 19.2987 45.5035 18.856C45.2879 18.4148 45.2712 19.4244 45.1575 19.5276C45.0418 19.6302 44.6822 19.3624 44.5966 19.273C44.5108 19.1835 44.6378 19.0567 44.5594 19.0035C44.0403 18.6561 44.2782 19.4789 44.0853 19.6214C43.6307 19.9577 43.3687 19.1893 42.9952 19.0833C42.8942 19.0545 42.9631 19.2295 42.8701 19.2367C42.5026 19.2625 42.307 19.0141 41.8809 19.1839C41.8112 19.2119 41.4416 19.6168 41.2613 19.2748C41.2359 19.2256 41.338 19.0529 41.1911 18.9976C40.9716 18.9145 40.5725 18.8352 40.328 18.8709C40.1474 18.8974 40.3198 19.2141 40.1073 19.0991C40.013 19.0479 40.2125 18.8938 40.0342 18.8122C39.8542 18.7306 39.3973 18.6909 39.2064 18.6766C39.0138 18.6624 39.0957 18.8959 39.0786 18.9092C38.9756 18.9851 38.5975 19.0516 38.5654 19.0477C36.9324 18.8908 35.5296 18.3512 34.0436 18.2801C33.9271 18.274 33.9756 18.5078 33.9576 18.5092C33.5502 18.55 33.9409 17.9976 33.6851 17.7629C33.6707 18.221 33.5033 18.116 33.1962 18.1251C33.0483 18.1298 33.1044 18.3146 33.0888 18.3307C32.8395 18.5656 32.736 18.2036 32.7071 18.129C32.6001 17.8538 32.407 18.1348 32.3347 17.9509C32.2624 17.7688 32.5147 17.5475 32.2315 17.5127C32.1306 17.6612 32.2841 18.1072 32.0603 18.1444C31.21 18.2838 29.7901 17.7371 29.1858 17.6091C28.5866 17.4811 28.3614 17.473 27.9852 17.3555C27.3098 17.1432 27.5164 17.4771 27.0696 17.5367C26.6239 17.5948 26.9481 16.9205 26.9126 16.7573C26.8786 16.595 26.7877 16.7412 26.7282 16.6453C26.669 16.5497 26.8447 16.4721 26.678 16.4126C26.5107 16.3538 25.9994 16.5448 25.9126 16.691C25.7283 17.0017 25.8754 17.3888 25.4499 17.1841C25.4255 17.1722 25.5407 17.0043 25.4459 16.968C24.6878 16.6855 23.931 16.5348 23.1105 16.25C23.0023 16.2115 23.1397 16.0355 23.0773 16.0111C22.4304 15.7567 22.6069 16.1318 22.1704 16.418C22.3485 15.9542 22.204 15.6205 21.7119 15.5201C21.417 15.459 21.4253 15.6758 21.2052 15.7811C21.139 15.8126 20.9625 15.6284 20.905 15.7167C20.7161 16.0041 20.8328 16.3981 20.3677 16.1467C20.3475 16.1352 20.4532 15.9801 20.3807 15.9531C19.9146 15.778 19.7925 16.0897 19.2131 15.9918C18.7625 15.9156 18.0412 15.5347 17.5749 15.3838C17.7044 14.894 17.231 14.8985 16.9692 15.1851C16.6671 15.0918 16.3533 15.0275 16.0639 14.9004C15.9588 14.8554 16.0667 14.738 16.0568 14.7195C15.9078 14.4318 15.6836 14.7095 15.6105 14.7021C14.8242 14.6104 14.301 14.2087 13.5695 14.2258C13.5437 14.2267 13.4126 14.5213 13.3036 14.2418C13.297 14.2231 13.5562 14.1517 13.2503 14.0444C12.9729 13.9451 12.3521 13.5732 11.8634 13.5587C11.743 13.5552 11.3887 13.6937 11.2347 13.4352C11.2143 13.4005 11.2738 13.3295 11.2479 13.2695C11.1641 13.0784 10.992 13.3392 10.922 13.0418C10.8476 12.7425 10.6135 12.465 10.1125 12.4668C10.0959 12.4662 9.90362 12.6432 9.7595 12.5843C9.5291 12.4905 9.22472 12.3212 8.99409 12.2307C8.88355 12.1874 8.90213 12.3454 8.88203 12.3401C8.11081 12.1081 7.69158 11.7939 6.89181 11.365C6.75098 11.2899 6.26894 11.249 6.07222 10.9936C5.84987 10.7115 6.45052 10.3303 5.70276 10.1148C5.39552 10.0262 4.66605 10.4751 4.40792 9.8668C3.45357 9.38395 2.77251 8.68688 1.89879 8.01779C1.86152 7.98968 1.6312 8.01088 1.55837 7.9298C1.45489 7.81476 1.44356 7.68134 1.3637 7.58277C1.02659 7.15707 0.740992 6.88051 0.492517 6.40264C0.409433 6.23424 0.505442 6.25725 0.419059 6.06226C0.34045 5.87475 0.187673 5.76349 0.150943 5.45371C0.126945 5.2151 0.277569 4.99491 0.278733 4.70515C0.0951802 4.7045 0.0743911 4.49794 0.074275 4.13636C0.0750894 4.06647 0.00281569 4.13136 0.000222445 4.09746C-0.0101119 3.95527 0.067494 3.83913 0.0700541 3.70428C0.0709919 3.67123 0.0144887 3.65335 0.0127902 3.62476C-0.00581059 3.37377 0.279657 3.0792 0.327787 3.04114C0.513882 2.87096 0.512733 2.74123 0.647411 2.60579C0.782489 2.47441 0.651761 2.72054 0.794163 2.55927C1.07036 2.24753 1.47783 1.84279 1.82539 1.59027C1.96737 1.48565 1.83336 1.50561 1.85277 1.48943C2.15384 1.25285 2.48884 1.13254 2.61658 0.932333C2.97873 1.08273 2.81103 0.789236 3.30905 0.63796C3.34896 0.626614 3.44548 0.727063 3.31339 0.807517C3.1874 0.885907 2.94427 0.954504 2.76866 1.08701C2.72379 1.11722 2.54217 1.38152 2.5173 1.41016C2.30639 1.62576 2.14176 1.4711 2.12077 1.46844C1.88094 1.46385 1.69011 1.81167 1.63494 1.88007C1.35287 2.19278 1.08229 2.44402 0.920345 2.74476C0.811619 2.95058 0.95351 3.06294 0.87242 3.20474C0.636167 3.66435 0.310715 3.83047 0.504296 4.36705C0.555454 4.48078 0.757399 4.37265 0.615897 4.75045C0.606004 4.77511 0.485223 5.07577 0.634037 5.21819C0.652342 5.23542 0.717082 5.21916 0.730118 5.24369C0.815996 5.40258 0.816539 5.55815 0.918695 5.71624C1.02381 5.88044 1.17663 6.07047 1.2952 6.28927C1.37268 6.43103 1.35357 6.62972 1.37179 6.70964C1.41096 6.92281 1.6817 6.98975 1.67755 7.16452C1.67686 7.34615 1.35177 7.262 1.54189 7.59236C1.69975 7.46833 1.87327 7.35235 2.03666 7.23033C2.49655 7.70247 3.08278 8.25685 3.67906 8.64443C3.75758 8.69545 3.74818 8.54472 3.83441 8.59614C4.20182 8.8139 4.49065 9.09168 4.86556 9.26152C5.16729 9.39939 5.56789 9.4559 5.91988 9.58958C6.01331 9.95242 6.48794 10.0744 6.82968 10.2558C6.9476 10.319 6.90518 10.3862 6.98202 10.4489C7.27627 10.6848 7.23268 10.3769 7.34286 10.3794C7.81593 10.3847 7.62006 10.96 8.10044 11.1447C8.1238 11.1548 8.54621 10.966 8.59546 10.9613C8.90743 10.9349 8.59274 11.0849 8.74663 11.1706C9.02962 11.3269 9.21281 11.4847 9.62184 11.5254C9.74139 11.5375 10.0821 11.426 10.2414 11.6593C10.2624 11.6901 10.2056 11.7937 10.2265 11.8082C10.6175 12.0651 10.7173 11.7068 10.9865 11.6604C11.2467 11.6099 11.5068 11.962 11.5542 12.0569C11.6772 12.3009 11.3839 12.0909 11.3682 12.1059C11.1758 12.2829 11.4414 12.328 11.633 12.4092C11.54 12.7731 11.827 12.8434 11.8328 12.4922C11.8329 12.4538 11.667 12.4382 11.633 12.4092C11.9251 12.1169 12.2439 12.1585 12.4845 12.5977C12.5984 12.804 12.3802 12.9407 12.9087 13.0267C13.1467 13.0643 13.1526 12.7862 13.3576 12.768C13.8244 12.724 14.3113 13.12 14.7831 13.203C14.954 13.2323 14.8335 13.0424 14.9518 13.0569C15.2665 13.0942 15.5075 13.275 15.8386 13.295C15.8686 13.2965 15.8419 13.1211 15.9405 13.1428C16.7303 13.3136 17.2383 13.5364 17.9988 13.707C18.3583 13.7876 19.0406 13.8328 19.4293 13.9309C20.1305 14.1066 20.8277 14.5088 21.4 14.5518C21.7703 14.579 21.729 14.3834 21.9103 14.2882C22.2597 14.1014 22.7161 14.6274 22.7777 14.7093C22.7792 14.712 22.4496 14.698 22.602 14.823C22.6625 15.0377 22.7739 14.7096 22.7777 14.7093C22.8161 14.7613 23.4578 14.9175 23.5968 14.9041C23.6716 14.8967 23.6657 14.7127 23.7041 14.7121C24.6544 14.7083 25.3989 14.7696 26.261 14.9867C26.2755 14.9927 26.2171 15.1961 26.2516 15.2076C26.7337 15.3753 27.101 15.1685 27.5467 15.074C27.9929 14.9798 28.3235 15.0749 28.5209 15.477C28.87 15.4781 29.2555 15.6954 29.4937 15.8294C29.7281 15.9629 29.827 15.5443 29.8502 15.5386C30.5787 15.3575 30.9464 15.6497 31.6793 15.7782C32.0271 15.8398 32.7422 15.8595 33.1407 15.8553C33.455 15.8513 33.6293 15.9759 33.9265 15.9414C33.9667 15.9368 33.9526 15.7347 33.9655 15.7284C34.2932 15.5229 34.088 15.9919 34.1384 16.0851C34.3199 16.4237 34.4359 16.6085 34.8378 16.5015C34.9305 16.4775 35.2751 15.7999 35.4424 15.7741C35.66 15.7425 35.5496 15.9884 35.7792 15.9491C35.7989 15.946 35.8135 15.7887 35.9502 15.8091C36.585 15.9015 37.2826 16.0615 37.9713 16.1089C38.0653 16.1159 37.9729 15.8511 38.1092 15.8568C38.7367 15.8826 39.4976 15.9579 40.0401 16.1241C40.1813 16.1666 40.0725 16.34 40.0984 16.3963C40.2582 16.7381 40.5806 16.2883 40.6268 16.2827C41.7332 16.1419 42.5399 16.6418 43.7123 16.5205C43.7761 16.5134 44.306 16.0273 44.4863 16.4899C44.4986 16.5205 44.676 16.9947 44.8945 16.6949C44.9081 16.6761 44.7925 16.4304 45.0267 16.471C45.258 16.5116 45.6684 16.3805 45.9373 16.6607C46.0264 16.7491 46.2168 17.2263 46.5342 16.8777C46.555 16.8538 47.0651 16.0482 47.1813 16.6343C47.2001 16.7308 47.1259 17.3393 47.4981 17.0492C47.5692 16.9927 47.4585 16.8487 47.6404 16.7748C47.9192 16.6605 48.2656 16.8472 48.6202 16.5941C48.6821 16.5494 48.9603 16.1466 49.1385 16.4753C49.1664 16.5269 49.0922 16.7288 49.1967 16.7582C49.6935 16.8989 50.2361 16.7921 50.749 16.9649C50.9309 17.0257 50.8143 17.3548 51.0021 17.4557C51.1898 17.5567 51.5769 17.6659 51.7914 17.5241C52.0059 17.3821 51.8152 16.8348 52.1249 16.8085C53.3918 16.6886 54.6054 17.0649 55.8932 17.1724C56.0837 17.1883 55.9352 16.9874 56.2171 16.9967C57.2392 17.0303 59.1429 16.9288 59.9794 17.3758C60.6642 17.7349 59.7741 17.9517 60.3032 18.1079C60.5591 18.1826 60.8653 17.5612 60.9287 17.5437C61.2288 17.4574 61.4818 17.4821 61.7267 17.5233C61.9881 17.5673 62.2403 17.63 62.5311 17.5963C62.6474 17.5828 62.5431 17.3222 62.642 17.3135C62.98 17.2816 63.3314 17.409 63.6569 17.3999C63.803 17.3953 63.7826 17.1987 63.9164 17.2187C64.2367 17.2643 64.5196 17.3568 64.8302 17.5511C64.8586 17.5688 64.6565 17.8049 64.8964 17.8224C65.2849 17.85 65.7655 18.0467 66.2243 17.8759C66.3605 17.8245 66.3778 17.3799 66.6594 17.6969C66.7186 17.7631 66.6261 18.2941 66.9775 17.8443C67.0469 17.7696 67.5969 17.1676 67.8471 17.5764C67.9135 17.684 68.0792 18.1247 68.234 18.0612C68.255 18.051 68.1776 17.8107 68.305 17.7918C68.7539 17.7292 69.2246 17.77 69.6913 17.7114C69.8159 17.6953 69.6361 17.4448 69.8217 17.4288C70.3319 17.3846 70.9711 17.4688 71.4754 17.5613C71.6613 17.5959 71.5288 17.792 71.542 17.8143C71.7541 18.1756 71.8921 17.7013 71.9651 17.676C72.4201 17.5242 72.7627 17.7593 73.1846 17.7135C73.3011 17.7015 73.222 17.473 73.2455 17.4536C73.4884 17.265 73.3036 17.6644 73.4551 17.714C73.8797 17.8539 74.3582 17.8501 74.7949 17.8349C74.9553 17.8291 74.7782 17.5645 74.9222 17.5625C75.8077 17.546 76.583 17.5997 77.3851 17.7652C77.5338 17.7968 77.4387 17.9885 77.4694 18.034C77.681 18.351 77.9987 17.9365 78.0715 17.8991C78.4023 17.7262 78.5298 17.9013 78.8226 17.8785C80.2519 17.7666 82.0508 17.9377 83.4528 18.0438C85.3221 18.1835 86.5588 18.3852 88.2664 18.3884C88.3734 18.3889 88.2635 18.1637 88.3557 18.1616C89.5464 18.1473 90.7352 18.2683 91.9589 18.2465C92.0593 18.2453 91.9117 18.0455 92.0728 18.0376C92.4033 18.0202 92.8243 18.0471 93.1626 18.1196C93.3275 18.1544 93.1094 18.3094 93.2754 18.3406C93.6583 18.4131 94.0908 18.437 94.4652 18.4197C94.6241 18.4121 94.3807 18.2165 94.5876 18.222C95.9974 18.2545 97.401 18.2906 98.8718 18.5515C98.9727 18.5697 99.0684 18.9014 99.2812 18.8427C99.2952 18.7525 99.2919 18.6459 99.2967 18.5493C101.39 18.5709 103.633 18.7426 105.697 18.82C105.785 18.8236 105.629 18.6883 105.799 18.6954C106.779 18.7346 107.739 18.7496 108.763 18.8931C108.865 18.907 108.819 19.0911 109.117 19.0696C109.169 19.0656 109.619 19.052 109.735 19.0179C109.751 19.0128 109.665 18.9291 109.811 18.9319C110.658 18.9491 111.553 19.0011 112.412 19.0652C112.551 19.0755 112.406 19.138 112.505 19.1454C113.206 19.1926 113.971 19.1657 114.65 19.2249C115.104 19.262 114.94 19.3435 115.184 19.4207C115.219 19.4314 115.5 19.4287 115.517 19.4715C115.559 19.5784 115.427 19.7064 115.488 19.8204C115.501 19.8448 115.876 19.7845 115.656 19.8638C115.64 19.8691 115.368 19.9155 115.302 19.944C115.256 19.9638 115.342 20.0005 115.248 20.0304C115.153 20.0609 115.047 20.0329 114.891 20.0743C114.734 20.1167 114.805 20.1652 114.492 20.2124ZM30.5632 16.4308C30.7704 16.6686 30.9138 15.9181 30.632 16.0657C30.6182 16.0737 30.5524 16.4191 30.5632 16.4308ZM2.8983 8.45543C3.02009 8.7664 3.34394 8.6867 3.25561 8.45879C3.17134 8.23577 2.86274 8.36327 2.8983 8.45543ZM0.700921 6.1816C0.775177 6.55606 1.21025 6.35627 0.942982 6.09044C0.928207 6.07521 0.697243 6.16053 0.700921 6.1816ZM114.07 19.4634C114.074 19.4659 114.275 19.4647 114.279 19.4621C114.384 19.4015 113.982 19.4005 114.07 19.4634ZM0.46373 3.20336C0.365401 3.27823 0.306318 3.61048 0.416464 3.50123C0.498869 3.41456 0.578773 3.10947 0.46373 3.20336ZM43.0219 18.6697C43.0246 18.6827 43.1653 18.7066 43.1689 18.6351C43.1796 18.4046 42.9769 18.4522 43.0219 18.6697ZM4.86537 0.21539C4.08438 0.421618 3.54136 0.391398 4.40846 0.152581C4.56391 0.112126 4.0943 0.309045 4.29535 0.269158C4.65923 0.193247 4.87731 0.0193947 5.27983 0.000199787C5.35008 -0.00607633 4.90767 0.200949 4.86402 0.216005C4.86446 0.215804 4.86492 0.215595 4.86537 0.21539ZM30.569 17.3548C30.5722 17.3654 30.7622 17.4024 30.7683 17.3931C30.9062 17.1677 30.5237 17.0943 30.569 17.3548ZM51.2101 19.8351C51.2193 19.8607 51.6851 19.914 51.7022 19.8921C51.9742 19.4496 51.0334 19.342 51.2101 19.8351ZM17.5706 15.3688C17.3181 15.5102 17.0695 15.467 16.97 15.1856C17.1663 15.2505 17.3687 15.3048 17.5706 15.3688Z" fill="#AD2E2E"/>
</svg>
