<svg xmlns="http://www.w3.org/2000/svg" width="58" height="103" fill="none"><path fill="#282626" d="M28.221 35.66c.063.064.625-.144.709-.22.158-.145.077-.464.379-.556.264-.082.642.01.962-.05.653-.123 1.336-.38 1.973-.509.913-.183 3.416-.783 4.168-.776.323 0 1.323.35 1.538.619 1.093 1.395-2.603 2.97-3.523 3.29-1.1.381-2.289.53-3.395.89-.658.214-2.453.795-2.478 1.59.183 1.431.58 2.845.568 4.288.06.07 1.392-.871 1.569-.972 1.73-.995 3.479-1.395 5.414-2.033.388-.13 1.705-.786 1.981-.625.04.022.547.653.587.716.491.768.46 1.484-.05 2.239-1.664.846-3.658 1.215-5.308 2.027-.705.347-2.27 1.297-2.776 1.86-.507.561-.23.504-.317.93-.348 1.7-.115 1.617.22 3.139.168.76.112 1.642.652 2.31.27.08 2.169-1.511 2.666-1.732.608-.272 3.537-.98 4.183-1.008 1.572-.072 2.41 1.547 1.671 2.851-.677.165-1.36.294-2.043.449-.345.079-.208-.004-.56.123-1.434.524-2.22.827-3.472 1.702-.214.148-.693.274-.826.42-.106.116-.084.328-.137.372-.196.17-.773-.066-.767.76.345 1.576 1.217 4.074.118 5.488-.9 1.159-1.876.347-2.342-.7-.422-.948-.904-2.65-1.199-3.692-.084-.29-.056-.625-.165-.918-1.785.704-3.27 1.386-4.718 2.68-.317.284-.767 1.004-1.112 1.036-.465.04-.85-.878-1.08-1.2-.23-.322-.758-.512-.668-1.162.021-.167.92-.672 1.186-.95 1.205-1.247 3.516-2.599 5.194-3.287.22-.091.69-.053.745-.268-.01-.48-.373-.894-.485-1.295-.32-1.114-.329-2.696-.649-3.813-.053-.19-.546-.736-.67-1.033-.06-.142-.122-.227.08-.297.485-.17.345.183.494.398.941 1.355.978 3.126 1.273 4.764.1.556.43 1.007.311 1.61-1.137.607-2.522.998-3.587 1.746-.802.562-1.796 1.544-2.572 2.21-.252.215-.74.25-.479.638.205.306.848.691 1.087 1.074.86-.569 1.585-1.386 2.473-1.917.568-.338 2.491-1.282 3.069-1.449.329-.095.46-.123.559.24.404 1.459.835 3.293 1.497 4.644.17.35.28.742.699.72.385-.022.624-.297.773-.64.786-1.807-1.17-4.143.106-5.659.73-.868 4.56-2.888 5.662-3.094.618-.116 1.398.023 2.053-.142.013-.303-.214-.514-.304-.773-.044-.12.078-.269-.019-.43-.478-.782-2.286-.375-3.025-.205-2.097.486-2.814 1.282-4.526 2.138-.205.1-1.093.495-1.223.296-.2-.306.31-.426.32-.508.03-.246-.563-1.3-.653-1.61-.285-.947-.6-2.908-.637-3.896-.006-.17.02-.868.078-.988.264-.524.497-.278.643-.338.047-.019.534-.587.702-.704 1.354-.95 2.749-1.544 4.265-2.172.804-.335 2.42-.717 3.022-1.153.354-.255.267-1.101.059-1.414-.441-.663-1.845.259-2.267.316-1.672.22-2.085.445-3.591 1.256-.752.408-1.454.802-2.2 1.19-.192.102-1.189.787-1.26.77-.308-.072-.06-.53-.072-.728-.074-1.282-.472-2.457-.655-3.675-.301-2.018.941-2.365 2.55-2.873 2.053-.648 4.367-.809 6.082-2.267.571-.486 1.025-1.361-.05-1.424-.214-.013-1.479.148-1.581.227-.102.08-.118.338-.233.36-.186.038-.444-.13-.655-.123-2.02.076-3.914.944-5.79 1.418-.258.066-.528.508-.895.407-.08-1.304-.35-3.331-2.146-2.807-.525.155-.655 1.253-.612 1.727.034.366.736 1.367.348 1.658-.335.252-.817.208-1.084.29-1.882.59-3.628 1.623-5.373 2.51-.333.17-.696.537-1.06.647-.363.11-1.469-.057-1.4.695.018.192.54 1.285.73 1.326.27.06 1.307-.076 1.633-.14.491-.09 1.016-.381 1.407-.533 1.644-.634 3.2-1.521 4.902-1.945l1.05 3.96c-.081.514.264 1.256.242 1.695-.031.61-2.11.928-2.597 1.108-1.006.376-1.925.95-2.898 1.392-.487.222-2.413.727-2.478 1.254-.034.284.037 1.316.397 1.316.392 0 1.69-.811 2.168-1 .575-.228 4.89-1.696 5.085-1.513.022.11-.003.146-.053.23-.295.5-3.727 1.412-4.466 1.74-.74.329-2.178 1.538-2.78 1.639-.687.117-.783-.407-.86-.42-.206-.035-.762.392-.939.237-.28-.24.854-.537.885-.584.047-.08.004-1.386.156-1.838.267-.795 1.168-.937 1.714-1.458l.109.23c1.851-1.076 3.923-1.676 5.964-2.276.111-.158.018-1.001-.063-1.19-.062-.149-.276.012-.378-.212-.14-.31-.112-1.367-.246-1.916-.065-.269-.584-1.598-.736-1.712-1.28.32-2.38 1.033-3.587 1.535-1.317.55-2.697 1.152-4.16.805-.534-.126-1.12-.805-1.108-1.377.009-.34.574-1.007.556-1.247 0-.04-.7-.31-.118-.577.481-.221 1.745-.203 2.466-.461.981-.354 2.069-1.049 3.038-1.481.907-.404 1.966-.78 2.907-1.099-.121-1.49-.19-4.082 1.864-4.151 1.633-.057 2.028 1.689 2.192 3.02h.003ZM43.879 72.622c.037.088.363-.006.056.537-.258.451-.93.745-1.116 1.035-.3.464.103 2.422.128 3.088.03.815.056 2.551 0 3.309-.04.527-.389 1.307-.342 1.821.056.597 1 .862 1.003 1.967 0 .913-1.37 1.07-2.043.935-.326-.066-.817-.53-1.035-.54-.543-.025-2.466 1.016-2.637-.19-.087-.615.143-.87.566-1.237.375-.325 1.174-.48 1.08-1.017-.13-.729-.037-.34.028-.94.171-1.585-.04-3.098-.111-4.67-.025-.534.118-1.771.012-2.163-.019-.07-.752-.255-1.09-.852-.923-1.632.857-2.573 2.32-2.131.177.053.317.28.503.284.174.003.36-.196.569-.221.615-.073 1.54-.016 1.96.508.12.152.083.316.152.477h-.003Zm-1.47 1.099c.246-.297.945-.29.709-1.064-.115-.37-1.032-.505-1.302-.401-.301.117-.528.631-.618.631-.068 0-.332-.442-.466-.552-.838-.695-2.59-.158-1.957.96.031.053.581.618.625.618.05 0 .245-.284.335-.337.556.41.174 1.114.165 1.657-.022 1.219.217 2.545.236 3.76.018 1.216-.146 2.34-.14 3.52-.096.572-1.376 1.203-1.497 1.45-.432.87.925.688 1.407.514.295-.104.842-.776 1.01-.628.105.095.046.644.76.884.317.107 1.392.066 1.476-.265.14-.562-.944-1.143-.982-1.266-.161-.5.121-1.21.1-1.573-.003-.07-.224-.056-.236-.135-.06-.363.41-.856.462-1.238.1-.723.035-2.197 0-2.98-.034-.783-.515-3.037-.084-3.562l-.003.007ZM28.584 77.367c-.252.256-.979 2.482-1.28 2.98-.258.43-.506.275-.708.531-.19.24-1.41 2.725-1.404 2.898.019.723.575 1.248-.339 1.961-.53.414-1.574.48-2.093.06-.245-.199-.242-.78-.273-.808-.11-.101-2.52.64-2.467-.846.056-1.57 2.103-1.383 2.631-2.015.236-.284 1.103-2.282 1.314-2.775.155-.357 1.125-2.712 1.106-2.866-.013-.105-.305-.095-.46-.262-.425-.465-.444-1.718.06-2.103.176-.133.307.012.375-.016.031-.013.155-.354.534-.42.479-.082 1.441.022 1.88.246.232.12.577.62.698.629.066.006.609-.278.901-.31 1.112-.126 2.208.43 1.5 1.639-.102.173-.885.994-1.05 1.102-.26.17-.801.236-.928.366l.003.01Zm-.901-2.336c-.075-.044-.252-.373-.55-.524a2.55 2.55 0 0 0-1.528-.221c-.72.136-.941.53-.733 1.263.093.325.65.451.659.931.003.234-.805 2.299-.963 2.687-.24.584-1.327 3.132-1.622 3.46-.258.288-1.634.407-2.09.875-.671.691.143 1.209.888 1.136.382-.038 1.395-.574 1.473-.562.416.064-.33.6-.27.847.009.034.503.445.558.47.373.164.7-.338 1.115-.287.06-.288-.236-.253-.335-.43-.373-.679.236-.925.472-1.31 1.187-1.932 2.171-4.032 3.324-5.986.55-.934.46-.474 1.143-.78.065-.028.975-.979.994-1.051.344-1.254-2.212-.325-2.541-.518h.006ZM22.504 94.568c.037.05.292.076.428.312 1.004 1.756-2.31 2.577-2.345.736.485-.256.367.202.674.391.36.221 1.18.253 1.327-.246.19-.647-.528-.855-.55-1.114.224-.843.286-6.217.674-6.523.18-.142.49.164.792.016.913-.455-.351-1.44-1.274-.954-.142.076-.164.256-.208.287a6.194 6.194 0 0 1-.596.111c-.314-.028-.516-.979-1.295-.71-.51.173-.593 1.133-.165 1.449.245.18.51-.085.618-.01.258.177-.1 2.264-.115 2.684-.03.824.205 3.081-.21 3.66-.187.258-1.203.59-1.128.905.018.082.31.256.413.262.105.01 1.025-.483.935-.034-.143.697-1.712.571-1.799.211-.211-.856.677-1.31 1.243-1.714l.226-5.213c-2.373-1.127-.037-4.4 1.513-2.027.932-1.124 3.637-.176 2.286 1.307-.338.373-.867.313-.947.865l-.488 5.358-.01-.01ZM18.08 97.128c.917.94-1.32 2.257-2.158 2.26-.205 0-1.209-.252-1.277-.366-.49-.805 2.417-2.936 3.436-1.894Zm-1.018.233c-.594.016-1.743.629-1.712 1.336.454.612 2.23-.253 2.317-.745.075-.423-.217-.6-.605-.59ZM20.218 98.378c.609-.066.535.43.463.938-.065.473-.867 1.856-1.28 2.125-.72.467-1.904.388-1.717-.717.149-.881 1.658-2.248 2.534-2.346Zm.025.546c-.332-.47-2.566 1.535-1.916 2.232 1.018.73 2.012-2.1 1.916-2.232ZM22.8 97.81c.599-.088 1.366.196 1.773.657 1.388 1.575-.742 2.33-1.9 1.247-.706-.66-1.265-1.699.126-1.904Zm-.305.543c.193.793 1.087 1.74 1.976 1.263.208-1.124-1.224-1.168-1.976-1.263ZM41.28 89.7c-.087.154-.031 1.161-.065 1.48-.034.319-.165.634-.187.95-.068 1.055.053 2.138-.096 3.186.056.208.929.174 1.156.871.692 2.106-2.187 2.539-2.75.793-.633.966-2.133.511-1.86-.692.22-.982 1.174-.865 1.202-1.648.034-.969-.195-2.308-.242-3.308-.031-.698.121-1.787 0-2.4-.112-.571-1.298-.559-.659-1.932.389-.83 1.451-1.09 2.268-.846.236.07.416.495.603.53.114.022.406-.192.655-.215 1.444-.138 1.978.65 1.416 2.012-.198.483-.574.423-.904.678-.046.038-.518.502-.537.537v.003Zm-1.034-2.315c-.022-.019-.003-.23-.069-.325-.733-1.064-2.67-.063-1.91.91.388.498.904.22.97.267.34.247 0 .907-.013 1.26-.072 1.891.084 3.798-.019 5.69-.087.64-1.366.527-1.301 1.262.087.985 1.373.329 1.717-.151.218.186.162.483.295.726.389.717 1.765.84 1.746-.193-.019-1.127-1.121-.78-1.339-1.25-.037-1.373-.13-2.75.044-4.123.047-.382.435-2.58.553-2.75.211-.3 1.522-.493 1.413-1.383-.034-.287-.904-.442-1.115-.395-.096.022-.075.196-.218.262-.12.054-.683.26-.754.193ZM37.432 98.24c-.233 1.294-1.45 3.062-2.923 2.456-1.044-.427.248-1.519.773-1.844.674-.417 1.345-.635 2.15-.613Zm-.786.57c-.416-.163-2.236 1.062-2.022 1.368 1.391.546 1.366-.499 2.022-1.367ZM39.55 99.512c.14.985-.652 3.829-2.05 2.942-1.397-.887.578-3.776 2.05-2.942Zm-.32.328c-1.074-.344-2.469 1.695-1.344 2.226.866.41 1.223-1.68 1.345-2.226ZM40.957 100.825c-.429-.417-.699-.94-.146-1.383.1-.078.873-.467.981-.492.56-.133 1.134.505 1.317 1 .597 1.617-1.255 1.753-2.152.875Zm.078-1.095c-.59.865 2.938 2.008 1.438.066-.634-.818-.687-.139-.836-.095-.074.022-.51-.11-.602.029ZM50.392 10.787c-.186.406-1.02 1.18-1.013 1.434.209 1.23.494 2.432.741 3.646.081.388.026.982.146 1.319.163.466.905.902 1.023 1.314.2.692-.51 2.135-1.176 2.403-.576.231-1.099-.028-1.41.048-.203.05-.432.408-.665.53-1.763.935-2.955-.892-1.66-2.273.088-.094.532-.495.62-.549.463-.282.514.173.561-.847.063-1.354-.162-2.29-.348-3.532-.088-.587-.016-1.572-.25-2.084-.25-.545-.995-.608-1.206-1.17-.443-1.18.375-2.65 1.699-2.537.328.027.818.397.872.392.246-.021.399-.731 1.21-.654 1.008.092 1.22 1.75.847 2.56h.01Zm-2.637-1.54c-.551-.337-1.652.17-1.646.883.011.926 1.052 1.23 1.608 1.8.012 1.963.763 4.324.4 6.249-.033.17-.296.995-.377 1.08-.087.093-.31-.136-.616.038-.454.259-.705 1.222-.364 1.66.063.038 1.35-.2 1.477-.274.379-.21.213-.735.593-.792.037-.006.526.371.577.374.4.026 1.217-.494 1.19-.934-.029-.501-.388-.122-.508-.157-.328-.097-.127-.94-.19-1.274-.382-2.035-1.399-4.102-1.296-6.337.009-.205.309-.986.501-1.012.417-.053.072.832.46.683.699-.502.771-2.328-.136-2.415-.907-.088-.762 1.188-1.194 1.067-.039-.01-.302-.53-.483-.642l.004.002ZM48.288.126c.654-.447 1.21.396 1.29 1.013.053.41.007 2.54-.075 2.94-.083.401-.359 1.147-.845 1.171-.971.05-.983-3.369-.833-4.088.048-.233.287-.92.462-1.04l.001.004Zm.557.875c-.294.038-.166.124-.2.302-.048.286-.199 1.404-.184 1.628.027.383.267.756.264 1.037 0 .19-.223.282-.27.411-.026.072.18.547.432.032.389-.802-.107-2.483-.045-3.409h.003ZM45.12.61c.99-.447 1.678 2.26 1.824 2.895.145.635.232 2.175-.603 2.321-.783.136-1.612-2.34-1.748-2.955-.122-.553-.062-1.997.527-2.262Zm1.198 4.615c.15-.097.182-.34.165-.502-.076-.785-.472-2.524-.89-3.155-.238-.361-.336-.51-.527.01-.362.979.532 2.94 1.25 3.651l.002-.004ZM42.606 4.119c1.272-.922 2.398 1.846 2.464 2.771.018.246-.218 1.105-.47 1.218-.516.234-1.734-1.36-1.946-1.815-.212-.456-.532-1.822-.048-2.174Zm.792.576c-.154-.077-.523-.047-.58.162-.125.478.871 2.111 1.41 2.285-.174-.336.184-.641.117-.934-.053-.234-.758-1.419-.947-1.513ZM52.22 1.902c.413.897.03 1.845-.41 2.647-2.09 3.815-2.076-.875-.815-2.054.316-.298.8-.547 1.227-.597l-.002.004Zm-.352.718c-1.039.413-1.345 1.697-1.252 2.71.166.106 1.342-2.365 1.252-2.71ZM48.182 25.41c.022.035.046.723.03.82-.13.913-.807.765-1.384 1.112-.721.433-3.324 4.224-3.827 5.13-.376.68.357 1.222-.4 1.993-.662.675-1.777.981-2.436.129-.133-.174-.205-.676-.338-.773-.174-.127-.52.126-.938-.386-.675-.827-.631-2.074.388-2.576.531-.262 1.168-.006 1.388-.133.047-.028.507-.745.64-.89.56-.612 2.426-2.488 2.597-3.195.062-.262-.146-.398-.174-.634-.106-.967.205-1.898 1.248-2.03 1.044-.133 1.1.713 1.404.82.305.108.606-.126.935-.05.174.04.79.54.864.663h.003Zm-7.458 8.85c.432.558 1.162.41 1.538-.136.397-.578-.06-.616-.084-1.049-.013-.199 1.367-2.19 1.612-2.538.578-.83 2.053-2.415 2.413-3.154.14-.284-.053-.663.386-.739.31-.053.832.14 1.012-.227.196-.401-.078-.758-.4-.966-.61-.392-.852.259-1.162.164-.18-.054-.336-1.045-1.128-1.032-1.24.019-.314 1.518-.394 1.998-.04.243-1.162 1.715-1.404 2.005-.63.755-1.404 1.399-2.029 2.163-.26.322-.214.742-.81.789-.242.019-.317-.167-.51-.18-1.071-.082-.667 1.724-.05 1.951.246.092.5-.098.65.006.162.11.193.72.367.948l-.007-.004ZM46.953 22.214c.404-.082 1.55-.094 1.702.395.096.31-.354 1.727-.742 1.844-.634.186-2.007-.445-1.895-1.238.065-.473.472-.903.935-.997v-.004Zm.916.56c-.052-.048-.888-.036-1.03.009-.811.24.257 1.221 1.08 1.01.289-.076.013-.963-.05-1.02ZM27.658 6.429l4.634-2.144c.075.038.264.06.292.104.205.325-.724 2.106-.879 2.56-.264.78-.457 1.756-.68 2.564l4.718-1.71c0 .198.025.406-.022.602-.1.41-2.137 2.895-2.56 3.45-.652.853-1.344 1.684-2 2.536-.118.543.171 1.036.205 1.572.078 1.175.094 2.993-.391 4.064-.978 2.162-3.246 4.3-5.457 5.073-.255.089-.86.11-1.01.227-.183.146-.068.645-.192.944-.125.3-.811 1.402-1.038 1.652-1.6 1.758-3.103.9-4.326-.707-1.25 1.243-2.78 1.73-4.1.28-.27-.293-.535-.66-.45-1.082-.156-.029-.144-.026-.234.072-.211.23-.236.398-.58.641-1.432 1.004-3.277.464-3.538-1.37-.053-.373.037-2.005-.035-2.078-.03-.031-.54-.107-.817-.255-1.801-.966-3.034-3.107-2.885-5.172.211-2.955 2.485-6.55 4.84-8.211.387-.275 2.512-1.43 2.882-1.525.37-.095.82.019 1.205-.029 1.736-.218 3.538-.546 5.28-.454.224.012 1.22.246 1.277.214.04-.022.394-.634.521-.789.889-1.077 1.898-2.103 2.827-3.122.74-.809 1.404-1.806 2.342-2.473.298-.211.826-.454.95.048-.242 1.026-.407 2.068-.55 3.113-.027.196.09.372.069.533-.016.13-.407.77-.301.875l.003-.003Zm1.571 1.256c-1.084.313-1.742.486-1.571 1.828 1.404.044 1.74-.435 1.571-1.828Zm-6.134 3.382c-.258-.313-1.134-1.803-1.354-1.879-2.302-.085-4.877-.382-7.141.126-1.78.398-3.973 1.961-5.029 3.454-.258.366-.413.913-.602 1.159-.401.52-1.081.805-.973 1.806.02.186.221.325.224.344.01.319-.733.01-.783.057-.164 1.114-.612 2.213-.444 3.362.124.843 1.662 2.763 2.466 3.091.42.17.718.098 1.044.196.627.186.137 1.218.093 1.645-.074.738.081 1.945.948 2.093.866.148 1.192-.025 1.795-.562.457-.407.83-1.004 1.283-1.411.537-.486.407 1.026.512 1.411.06.215.326.903.454 1.032.14.142.3.013.391.067.864.492 1.06.817 2.01.088.95-.73.59-1.348 1.034-1.916.714-.916 1.106 1.08 1.314 1.493.41.805 1.292 1.594 2.146.884.14-.117 1.078-1.25 1.183-1.424.233-.376.137-.713.277-1.09.267-.716.568-.346 1.047-.41 2.103-.28 5.106-3.738 5.56-5.777.183-.818.142-1.752.018-2.583a7.28 7.28 0 0 0-.314-1.256c-.94-.237-1.77-.752-2.683-1.067-.435-.149-1.19-.19-1.528-.389-.246-.142-.342-.483-.572-.675-.808-.676-1.562-.878-2.373-1.87h-.003Z"/><path fill="#282626" d="M22.436 29.57c-.012.379.384.553.418.863.041.383-.16.704-.24 1.049-.036.156.065.353 0 .513-.014.037-.534.467-.612.518-1.076.719-1.515.332-2.644.35-2.457.044-6.735.553-8.834-.674-.188-.11-.394-.058-.585-.436-.462-.907-.053-2.105.397-2.953.59-1.118.881-1.36 2.141-.991 1.02.296 1.389.966 1.929 1.826.946-1.305 2.326-1.27 3.688-.679.284.122.687.548.942.56.208.009.592-.358 1.036-.38.443-.02 2.113.143 2.364.434Zm-8.875-.096c-.51.128-1.165-.262-1.575-.226-.348.031-.87.458-1.256.531.015.58-.277 1.398.205 1.842.342.316.65.142 1.034.266 1.833.59 1.493.249 3.163.318 1.51.06 2.78.226 4.373.21.723-.007 2.057.41 2.306-.625.217-.918-.74-1.419-1.504-1.453-.873-.035-1.193 1.144-1.734 1.088-.572-.057-.294-.373-.414-.71-.258-.747-2.126-1.322-2.765-.786-.364.305-.314 1.522-1.084 1.399-.57-.093-.396-.865-.469-1.197-.04-.183-.335-.37-.28-.66v.003ZM24.367 14.344c.224.255.227.732.388 1.032.345.65 1.072 1.234 1.302 1.989.267.884.093 2.04-.47 2.772-.45.59-.788.335-1.304.502-1.584.511-1.96.691-3.702.237-1.743-.455-2.656-1.958-1.917-3.663.084-.192 1.224-1.768 1.395-1.95.755-.809 3.457-1.892 4.308-.92ZM14.834 19.768c-.351-.165-.714.236-.938.243-.224.006-.67-.344-1.124-.344-.87-.004-2.836.77-3.433-.272-.341-.593.2-.82.227-1.27.016-.27-.177-.526-.211-.801-.09-.726.345-2.475.944-2.905.537-.382.671-.123 1.156-.195.845-.127 1.31-.913 2.22-.95.55-.026 1.277.318 1.625.744 1.441 1.768.025 3.912-.47 5.746l.004.004ZM17.524 22.622c-.034.04-.5.142-.593.132-.214-.019-.363-.265-.587-.319-.637-.148-2.18.29-1.47-1.082.259-.5.883-.345.973-.436.17-.177-.236-.783.742-.796.777-.01 1.265.799 1.171 1.54-.015.118-.205.923-.236.96ZM42.761 69.282c-.546.536-2.28 1.304-3.053 1.417-.826.12-2.432.114-3.152.326-.64.189-1.43 1.076-2.11 1.395-1.953.91-4.478 1.073-6.597.792-2.979-.394-6.603-1.193-5.572-5.171.637-2.453 3.292-3.022 5.439-3.141 1.702-.095 3.482-.051 5.112.451-.078-.196.252-.944.36-1.01.137-.08.976.13 1.268.098 2.376-.253 3.478-3.827 6.401-3.893 1.147-.026 3.06 1.18 3.293 2.374.202 1.023.248 2.82-.006 3.826-.233.92-.724 1.882-1.386 2.532l.003.004Zm-.413-7.442c-1.556-.597-2.634.25-3.954.777-.239.095-.546.07-.733.167-.17.089-.211.335-.342.458-.587.543-1.584 1.405-2.332 1.623-.342.098-1.41.117-1.47.16-.108.08-.046.755-.658.878-.431.089-1.205-.378-1.77-.435-1.622-.161-4.973-.17-6.377.596-.36.2-1.186 1.702-1.096 2.069.021.085.23.075.233.138.006.152-.18.38-.196.578-.087 1.086.394 2.535 1.308 3.189.913.653 1.692.23 2.531.398.252.05.317.293.565.34 1.768.339 4.563-.018 6.197-.776.593-.275.916-.698 1.497-.934-.478-.613.323-.862.851-.904.05-.003.031.196.124.218.83.203 3.737-.262 4.498-.66.76-.397 1.805-1.875 2.053-2.708.019-.06.031-.187-.053-.168-.245.098-.42.796-.621.509-.317-.452 1.019-2.052 1.062-2.779.06-.937-1.078-1.834-1.314-2.727l-.003-.007Z"/><path fill="#282626" d="M30.766 69.996c-.307.35-1.046.738-1.503.81-1.177.187-3.249-.075-3.96-1.17-.563-.862.46-1.607 1.211-1.854 1.118-.366 2.112.11 3.119.07.497-.02.487-.44 1.177.18.69.618.512 1.329-.044 1.964ZM40.877 66.683c-.664.9-3.121 2.062-3.972 1.033-.482-.581.35-1.15.621-1.645.571-1.048.627-2.002 1.851-2.687 2.544-1.427 2.703 1.673 1.5 3.3ZM11.462 46.253c-.043.026-.385-.189-.593.262-.255.907-.482 1.847-.798 2.728-.277.777-1.833 4.218-1.715 4.714.134.562.761.499.51 1.597-.134.59-1.081 1.405-1.684 1.323-.658-.088-1.317-1.174-1.618-1.209-.168-.019-.345.17-.547.199-1.746.246-2.802-2.185-.612-2.905.612-.202 1.069.14 1.659-.202 1.162-2.794 1.885-5.733 2.836-8.606-.177-.512-.413-.638-.454-1.238-.096-1.398.864-2.32 2.255-1.948.932.25.693 1.124.888 1.266.168.123.86-.016 1.274.19.873.43.97 1.572.404 2.301-.177.23-1.29 1.014-1.603 1.232-.121.082-.165.277-.202.3v-.004Zm.833-1.654c.14-.158.627-.085.739-.451.121-.401-.038-.736-.326-.998-.709-.638-1.233.047-1.457-.11-.273-.193-.27-2.195-1.786-1.37-1.283.694.118 2.026.087 2.37-.006.07-.432.935-.51 1.194-.521 1.692-.981 3.495-1.552 5.158-.345 1.004-.917 1.93-1.112 2.98l-1.87.27c-1.463 1.063.419 2.37 1.466 1.208.366.575 1.043 1.775 1.839 1.355.602-.32.903-1.162.242-1.598-.218-.142-.575.127-.51-.385.028-.218.246-.313.314-.486 1.01-2.586 2.19-5.434 2.79-8.136.07-.322-.171-.966.496-.755.413.13.249.613.5.524.445-.154.504-.603.65-.767V44.6ZM7.214 65.579c.081.495-.108 1.31-.006 1.752.031.132 1.019.28.9 1.266-.02.177-.282.723-.397.859-.655.757-2.388.54-1.453-.56.487.531 1.273.68 1.388-.204.078-.597-.984-.828-1.003-.897-.068-.253.112-.71.124-1.01a26.59 26.59 0 0 0 0-1.494c-.04-1.853-.789-3.694.621-5.184.13-.139.345-.094.482-.31.481-.77-.503-1.133-1.137-.953-.071.02-.49.62-.923.581-.23-.019-.798-1.029-1.407-.738-.661.318-.528 1.108-.155 1.629.447.625.413.347 1.056.24.09.097.078 2.317.121 2.674.075.584.715 2.036.665 2.52-.025.239-.345.567-.51.293-.145-.24.05-.963-.276-1.146-.037.795.174 1.54.118 2.345-.018.243-.084.872-.453.622-.118-.079.118-.533-.168-.454-.317.524-1.084.893-.513 1.547.5.571 1.119-.145 1.46-.246.429-.124.342.208.11.457-.784.837-2.343.77-2.244-.672.038-.543.75-1.566 1.355-1.314-.18-1.83-.093-3.722-.444-5.522-.532-.009-.342-.64-.491-.846-.05-.069-.246-.104-.354-.255-.64-.916-.249-2.176.838-2.46.932-.243 1.14.575 1.423.622.224.038 2.044-1.427 2.46.237.354 1.408-1.339 1.796-1.407 2.576-.01.098.217 1.683.255 1.904.087.502.919 2.485-.035 2.147v-.006ZM3.375 70.283c.025.015.196.426.196.492.01.347-.851 1.456-1.13 1.658-.737.53-2.861 1.114-2.367-.465.214-.685 2.711-2.061 3.301-1.685ZM1.341 72.4c.074-.05.112-.265.252-.37.406-.302 1.233-.287 1.46-1.029-.035-.64-2.128.547-2.364.91-.326.502.273.735.649.486l.003.003ZM6.628 71.893c.025.013.019.142.047.158.071.038.394-.183.516.233.077.266.065 1.93.015 2.255-.084.536-.68 1.373-1.273 1.32-1.52-.136-.407-3.322.35-3.887.097-.07.224-.139.345-.08Zm.022.31c-.484.45-1.6 2.81-.593 3.068.938.243.758-2.573.593-3.069ZM10.102 73.197c-1.168.887-2.882-1.086-2.302-2.283.153-.313.389-.552.423-.028.046.723.006 1.13.612 1.663.397.35 1.23.5 1.046-.151-.183-.65-.857-1.045-1.317-1.402-.524-.407-.021-.85.724-.28.593.45 1.615 1.868.81 2.478l.004.003ZM4.515 71.748c.27.274-.904 1.067-1.068 1.253-.401.445-.876 1.09-.398 1.645.211.246.745-.543.851-.723.277-.48.45-1.595.671-1.831.587-.629.295.584.202.89-.227.751-1.528 3.369-2.327 1.84-.67-1.284 1.817-3.33 2.07-3.075Z"/></svg>