<svg width="53" height="57" viewBox="0 0 53 57" fill="none" xmlns="http://www.w3.org/2000/svg">
<path d="M38.0381 8.57398L46.292 4.75588C46.4247 4.82336 46.7622 4.86272 46.812 4.94144C47.1771 5.52062 45.523 8.69206 45.2464 9.50179C44.7762 10.8907 44.4332 12.6282 44.0349 14.0678L52.4381 11.02C52.4381 11.3743 52.4823 11.7454 52.3994 12.094C52.2223 12.8251 48.5933 17.2504 47.8409 18.2401C46.6792 19.7584 45.4456 21.2372 44.2783 22.7555C44.0681 23.7227 44.5825 24.5999 44.6434 25.5558C44.7817 27.6476 44.8094 30.8865 43.9464 32.7927C42.2038 36.6446 38.1653 40.4514 34.2265 41.8291C33.7729 41.9865 32.6941 42.0259 32.4286 42.234C32.1022 42.4926 32.3069 43.3811 32.0856 43.9153C31.8643 44.4495 30.6417 46.4119 30.2379 46.8562C27.3889 49.9882 24.7113 48.4587 22.5317 45.5966C20.3078 47.8121 17.5805 48.678 15.2294 46.097C14.7481 45.5741 14.2779 44.9218 14.4272 44.1683C14.1506 44.1177 14.1728 44.1233 14.0123 44.2976C13.6361 44.7081 13.5919 45.0062 12.9778 45.4391C10.4275 47.2273 7.14149 46.2657 6.6768 42.9987C6.58275 42.3352 6.74318 39.428 6.61594 39.2987C6.56062 39.2425 5.65336 39.1075 5.16101 38.8432C1.95241 37.1225 -0.243825 33.3101 0.0217148 29.6326C0.397896 24.3693 4.44737 17.9646 8.64068 15.0068C9.33219 14.5176 13.1161 12.4596 13.7744 12.2909C14.4328 12.1222 15.2349 12.3246 15.9209 12.2402C19.0133 11.8523 22.2219 11.2674 25.3254 11.4305C25.7237 11.453 27.4995 11.8691 27.5991 11.8129C27.671 11.7735 28.3017 10.6826 28.5285 10.4071C30.1106 8.48963 31.9086 6.66212 33.5627 4.84585C34.8793 3.40633 36.0632 1.62943 37.7338 0.44295C38.2649 0.0662008 39.2054 -0.366779 39.4267 0.527296C38.9952 2.35481 38.702 4.21044 38.4475 6.07169C38.3977 6.42032 38.6079 6.73522 38.5692 7.022C38.5415 7.25254 37.8445 8.39404 38.0326 8.5796L38.0381 8.57398ZM40.8373 10.812C38.9066 11.3687 37.7338 11.6779 38.0381 14.0678C40.5386 14.1465 41.1361 13.2918 40.8373 10.812ZM29.9115 16.8343C29.4523 16.2776 27.8923 13.6235 27.4995 13.4886C23.4002 13.3368 18.8142 12.8082 14.7813 13.7135C11.6114 14.422 7.70576 17.2055 5.82486 19.8652C5.3657 20.5175 5.08909 21.4903 4.75163 21.9289C4.038 22.8567 2.82647 23.3628 3.0201 25.1453C3.05329 25.4771 3.41287 25.7245 3.41841 25.7582C3.435 26.3262 2.11284 25.7751 2.02432 25.8594C1.73113 27.8444 0.934507 29.8012 1.23324 31.8481C1.45452 33.3494 4.1929 36.7683 5.6257 37.3531C6.37253 37.6567 6.90361 37.5274 7.48448 37.7017C8.60196 38.0335 7.72789 39.8722 7.65044 40.6314C7.51767 41.9472 7.79427 44.0952 9.33772 44.3595C10.8812 44.6238 11.462 44.3145 12.5353 43.3586C13.3485 42.6332 14.0123 41.5704 14.82 40.845C15.7771 39.9791 15.5447 42.6726 15.7328 43.3586C15.8379 43.7409 16.3137 44.9668 16.5405 45.1973C16.7894 45.4504 17.0771 45.2198 17.2375 45.3154C18.7754 46.1926 19.124 46.7718 20.8168 45.4729C22.5096 44.1739 21.8679 43.0718 22.6589 42.0596C23.9313 40.4289 24.6284 43.9827 24.999 44.7194C25.7292 46.1533 27.3004 47.559 28.8217 46.2938C29.0706 46.0858 30.7413 44.0671 30.9294 43.7578C31.3443 43.0887 31.1728 42.487 31.4217 41.8178C31.8975 40.5414 32.4341 41.1993 33.2861 41.0868C37.0313 40.5864 42.3808 34.4291 43.1885 30.7965C43.5149 29.3401 43.4429 27.6757 43.2217 26.1968C43.111 25.4377 42.9063 24.6842 42.6629 23.9588C40.9867 23.5371 39.5096 22.6205 37.8832 22.0582C37.1087 21.7939 35.7644 21.7208 35.1614 21.3666C34.7244 21.1135 34.5529 20.5062 34.1435 20.1632C32.7052 18.9599 31.3609 18.6 29.917 16.8343H29.9115Z" fill="#282626"/>
<path d="M28.7345 49.7894C28.7142 50.4645 29.4187 50.7756 29.4793 51.3269C29.5528 52.0089 29.196 52.5802 29.0524 53.1955C28.9883 53.4727 29.1685 53.8242 29.054 54.1089C29.0271 54.1746 28.1018 54.941 27.9622 55.0322C26.0464 56.3121 25.2634 55.6231 23.2532 55.6558C18.877 55.7344 11.2582 56.6403 7.52005 54.4543C7.18441 54.2605 6.81738 54.3519 6.47702 53.6786C5.65466 52.0621 6.38329 49.9282 7.18392 48.4197C8.23524 46.4279 8.75391 45.9981 10.998 46.6535C12.813 47.1816 13.4713 48.3745 14.4329 49.9053C16.1179 47.5824 18.5761 47.6446 21.0028 48.6969C21.5087 48.9144 22.2257 49.6719 22.679 49.6939C23.0495 49.7099 23.7339 49.0554 24.5242 49.0177C25.3144 48.9799 28.2888 49.2718 28.7345 49.7894ZM12.9279 49.6199C12.0188 49.8463 10.8536 49.1518 10.1224 49.2164C9.50272 49.2723 8.57228 50.0327 7.88636 50.1627C7.91266 51.1964 7.39311 52.6522 8.25206 53.4426C8.86092 54.006 9.40983 53.6968 10.0931 53.9162C13.3573 54.9679 12.7516 54.3596 15.7269 54.4825C18.4149 54.5898 20.679 54.8859 23.5152 54.8576C24.8029 54.8451 27.1794 55.5892 27.6212 53.7443C28.0093 52.1096 26.3034 51.2175 24.9433 51.157C23.3892 51.0935 22.8183 53.1939 21.8547 53.0949C20.8359 52.9919 21.3306 52.4306 21.1183 51.8287C20.6583 50.4982 17.331 49.4756 16.1927 50.4293C15.5439 50.9736 15.6338 53.1395 14.2628 52.9203C13.2484 52.7555 13.557 51.3801 13.4271 50.7898C13.356 50.4632 12.8305 50.1315 12.9283 49.6143L12.9279 49.6199Z" fill="#282626"/>
<path d="M32.1752 22.6708C32.5735 23.1263 32.579 23.9753 32.8667 24.5095C33.4808 25.6679 34.7753 26.7082 35.1846 28.0521C35.6604 29.6266 35.3506 31.6846 34.3493 32.9892C33.5471 34.0407 32.9442 33.5853 32.0258 33.8833C29.2045 34.7942 28.5351 35.1147 25.4316 34.305C22.3281 33.4953 20.7017 30.8187 22.0183 27.7822C22.1677 27.4392 24.1979 24.6332 24.5022 24.3071C25.8465 22.8676 30.6594 20.9389 32.1752 22.6708Z" fill="#282626"/>
<path d="M15.1982 32.3313C14.573 32.0389 13.9258 32.753 13.5275 32.7643C13.1292 32.7755 12.3326 32.1513 11.5249 32.1513C9.97589 32.1457 6.47409 33.5234 5.41193 31.6678C4.8034 30.6106 5.76598 30.2057 5.81577 29.4073C5.84343 28.9237 5.50045 28.4682 5.43959 27.979C5.27916 26.6857 6.05365 23.5705 7.12134 22.8057C8.07839 22.1253 8.31627 22.5864 9.17927 22.4571C10.684 22.2322 11.5138 20.832 13.1347 20.7645C14.1139 20.7195 15.4084 21.3325 16.028 22.0916C18.5949 25.2405 16.0722 29.0586 15.1926 32.3257L15.1982 32.3313Z" fill="#282626"/>
<path d="M19.9907 37.4146C19.9299 37.4877 19.1001 37.6676 18.9341 37.6508C18.5524 37.617 18.2869 37.1784 17.8885 37.0828C16.7545 36.8185 14.005 37.6002 15.2719 35.1541C15.731 34.2656 16.843 34.5412 17.0034 34.3781C17.3077 34.0632 16.583 32.9836 18.3256 32.9611C19.7086 32.9442 20.5771 34.3837 20.4112 35.7052C20.3835 35.9132 20.046 37.3471 19.9907 37.4146Z" fill="#282626"/>
</svg>
