<svg width="58" height="103" viewBox="0 0 58 103" fill="none" xmlns="http://www.w3.org/2000/svg">
<path d="M28.2214 35.6609C28.2836 35.7241 28.8458 35.5157 28.9296 35.4399C29.088 35.2947 29.0073 34.9758 29.3086 34.8843C29.5726 34.8022 29.9515 34.8938 30.2714 34.8338C30.9237 34.7106 31.607 34.4549 32.2438 34.3255C33.157 34.1423 35.6604 33.5425 36.4121 33.5488C36.7351 33.5488 37.7353 33.8992 37.9496 34.1676C39.0429 35.5631 35.3467 37.1385 34.4273 37.4574C33.3278 37.8394 32.1382 37.9878 31.0324 38.3477C30.3739 38.5624 28.5786 39.1433 28.5538 39.9389C28.7371 41.3691 29.1346 42.7835 29.1222 44.2264C29.1812 44.2958 30.5137 43.355 30.6908 43.2539C32.4208 42.2594 34.1695 41.8585 36.1046 41.2207C36.4929 41.0913 37.8098 40.4346 38.0863 40.5956C38.1266 40.6177 38.6329 41.2491 38.6733 41.3123C39.1641 42.0795 39.133 42.7962 38.6236 43.5507C36.9588 44.3968 34.9647 44.7662 33.3154 45.5776C32.6103 45.9249 31.0448 46.8752 30.5386 47.4372C30.0323 47.9992 30.3087 47.9423 30.2217 48.3686C29.8739 50.0671 30.1068 49.985 30.4423 51.5068C30.61 52.2677 30.5541 53.1485 31.0945 53.8178C31.3648 53.8968 33.2626 52.3056 33.7595 52.0846C34.3683 51.813 37.2973 51.1058 37.9434 51.0774C39.5151 51.0048 40.3537 52.6244 39.6144 53.9283C38.9373 54.0925 38.254 54.222 37.5707 54.3767C37.2259 54.4556 37.3626 54.3735 37.0116 54.4998C35.5766 55.0239 34.7907 55.327 33.539 56.2015C33.3247 56.3499 32.8464 56.4762 32.7128 56.6214C32.6072 56.7382 32.6289 56.9498 32.5761 56.994C32.3804 57.1644 31.8027 56.9277 31.8089 57.7548C32.1537 59.3303 33.0265 61.8276 31.927 63.242C31.0262 64.4007 30.0509 63.5893 29.585 62.5411C29.1626 61.594 28.6811 59.8922 28.3861 58.8504C28.3022 58.5599 28.3302 58.2252 28.2214 57.9316C26.4355 58.6357 24.9508 59.3176 23.5034 60.6121C23.1865 60.8962 22.7362 61.6161 22.3914 61.6476C21.9255 61.6887 21.5403 60.7699 21.3105 60.4479C21.0806 60.1259 20.5526 59.9364 20.6427 59.2861C20.6644 59.1187 21.5621 58.6136 21.8292 58.3357C23.0343 57.0887 25.3452 55.7374 27.0225 55.0491C27.243 54.9576 27.7121 54.9955 27.768 54.7808C27.7586 54.3009 27.3952 53.8873 27.2834 53.4863C26.9635 52.3719 26.9542 50.7901 26.6343 49.6725C26.5815 49.483 26.0876 48.9369 25.9633 48.6401C25.9043 48.498 25.8422 48.4128 26.0441 48.3433C26.5286 48.1728 26.3889 48.5264 26.538 48.7411C27.4791 50.0955 27.5164 51.8667 27.8114 53.5053C27.9108 54.0609 28.2401 54.5124 28.1221 55.1154C26.9852 55.7216 25.5999 56.1131 24.5346 56.8614C23.7332 57.4233 22.7393 58.4052 21.9628 59.0714C21.7112 59.2861 21.2235 59.3208 21.4844 59.7091C21.6894 60.0154 22.3324 60.4005 22.5715 60.7826C23.4319 60.2143 24.1556 59.3966 25.044 58.8662C25.6124 58.5283 27.535 57.5843 28.1127 57.417C28.442 57.3223 28.5724 57.2939 28.6718 57.657C29.0756 59.1156 29.5074 60.9499 30.1689 62.3012C30.3398 62.6516 30.4485 63.0431 30.8678 63.021C31.253 62.9989 31.4921 62.7242 31.6412 62.3801C32.427 60.5742 30.4702 58.2379 31.7468 56.7224C32.4767 55.8542 36.3065 53.8336 37.4091 53.6284C38.0273 53.5116 38.8069 53.6505 39.4622 53.4863C39.4747 53.1832 39.2479 52.9717 39.1579 52.7128C39.1144 52.5929 39.2355 52.4445 39.1392 52.2835C38.6609 51.5005 36.8532 51.9078 36.1139 52.0782C34.0173 52.5644 33.2998 53.3601 31.5884 54.2156C31.3834 54.3167 30.4951 54.7113 30.3646 54.5124C30.1658 54.2062 30.6752 54.0862 30.6845 54.0041C30.7156 53.7579 30.1224 52.7034 30.0323 52.394C29.7465 51.4468 29.4328 49.4862 29.3955 48.498C29.3893 48.3275 29.4142 47.6298 29.4732 47.5098C29.7372 46.9857 29.9702 47.232 30.1161 47.172C30.1627 47.153 30.6504 46.5848 30.8181 46.4679C32.1723 45.5176 33.567 44.9241 35.0827 44.2958C35.8872 43.9612 37.5023 43.5791 38.1049 43.1434C38.459 42.8877 38.372 42.0416 38.1639 41.729C37.7229 41.066 36.3189 41.9879 35.8965 42.0447C34.2254 42.2658 33.8123 42.4899 32.3059 43.3013C31.5542 43.7086 30.8523 44.1032 30.1068 44.4916C29.9142 44.5926 28.9172 45.2777 28.8458 45.2619C28.5383 45.1893 28.7867 44.7315 28.7743 44.5326C28.6998 43.2508 28.3022 42.0763 28.1189 40.8577C27.8177 38.8402 29.0601 38.4929 30.669 37.9846C32.7221 37.3374 35.0361 37.1764 36.7507 35.7178C37.3222 35.2316 37.7757 34.357 36.701 34.2939C36.4867 34.2813 35.2225 34.4423 35.12 34.5212C35.0175 34.6001 35.002 34.859 34.887 34.8811C34.7007 34.919 34.4429 34.7517 34.2317 34.758C32.2127 34.8338 30.318 35.702 28.442 36.1756C28.1842 36.2419 27.9139 36.6839 27.5474 36.5828C27.4667 35.2789 27.1964 33.252 25.4012 33.7761C24.8762 33.9308 24.7458 35.0295 24.7893 35.5031C24.8234 35.8693 25.5254 36.8701 25.1371 37.1606C24.8017 37.4132 24.3202 37.369 24.0531 37.4511C22.1709 38.0415 20.4253 39.0738 18.6797 39.961C18.3473 40.1315 17.9839 40.4977 17.6205 40.6082C17.2571 40.7187 16.1513 40.5514 16.2197 41.3028C16.2383 41.4954 16.7601 42.5878 16.9496 42.6288C17.2198 42.6888 18.2572 42.5531 18.5834 42.4899C19.0741 42.3984 19.599 42.1079 19.9904 41.9563C21.6335 41.3218 23.1896 40.4346 24.8918 40.0115L25.9416 43.9706C25.8608 44.4852 26.2056 45.2272 26.1839 45.666C26.1528 46.2754 24.0749 46.5942 23.5872 46.7742C22.5809 47.1499 21.6615 47.7245 20.6893 48.1665C20.2016 48.3875 18.2759 48.8927 18.2106 49.4199C18.1765 49.704 18.2479 50.7364 18.6082 50.7364C18.9996 50.7364 20.2979 49.925 20.7762 49.7356C21.3509 49.5083 25.6652 48.0402 25.8608 48.2233C25.8826 48.3338 25.8577 48.3686 25.808 48.4538C25.513 48.9526 22.0808 49.8651 21.3415 50.1934C20.6023 50.5218 19.1642 51.731 18.5616 51.832C17.8752 51.9488 17.7789 51.4247 17.7012 51.4121C17.4962 51.3773 16.9403 51.8036 16.7632 51.6489C16.4837 51.4089 17.6174 51.1121 17.6484 51.0648C17.695 50.9859 17.6516 49.6788 17.8037 49.2273C18.0709 48.4317 18.9716 48.2896 19.5183 47.7687L19.627 47.9992C21.4782 46.9226 23.5499 46.3227 25.5906 45.7229C25.7024 45.565 25.6093 44.722 25.5285 44.5326C25.4664 44.3842 25.2521 44.5452 25.1496 44.3211C25.0098 44.0117 25.0377 42.954 24.9042 42.4047C24.839 42.1363 24.3202 40.8071 24.168 40.6935C22.8884 41.0124 21.7888 41.7259 20.5806 42.2279C19.2636 42.7772 17.8845 43.3802 16.4216 43.0329C15.8873 42.9067 15.3003 42.2279 15.3127 41.6564C15.322 41.3154 15.8873 40.6493 15.8687 40.4093C15.8687 40.3683 15.1698 40.0999 15.7506 39.8316C16.2321 39.6106 17.4962 39.6295 18.2169 39.3706C19.1984 39.017 20.2855 38.3224 21.2546 37.8899C22.1615 37.4858 23.2207 37.1101 24.1618 36.7912C24.0407 35.301 23.9724 32.709 26.0255 32.6395C27.6593 32.5827 28.0537 34.3286 28.2183 35.6609H28.2214Z" fill="#282626"/>
<path d="M43.8786 72.622C43.9159 72.7104 44.242 72.6157 43.9345 73.1587C43.6767 73.6102 43.0058 73.9038 42.8194 74.1943C42.5182 74.6584 42.9219 76.6158 42.9468 77.282C42.9778 78.0965 43.0027 79.833 42.9468 80.5907C42.9064 81.1179 42.5585 81.8978 42.6051 82.4124C42.661 83.0091 43.6053 83.2743 43.6084 84.3793C43.6084 85.2917 42.2386 85.4496 41.5646 85.3138C41.2385 85.2475 40.7477 84.7834 40.5303 84.7739C39.9867 84.7487 38.0641 85.7905 37.8932 84.5845C37.8063 83.9689 38.0361 83.7131 38.4585 83.3469C38.8344 83.0217 39.6326 82.867 39.5394 82.3303C39.409 81.601 39.5022 81.9893 39.5674 81.3895C39.7382 79.8046 39.527 78.2923 39.4556 76.72C39.4307 76.1864 39.5736 74.9488 39.468 74.5573C39.4494 74.4879 38.7163 74.3016 38.3778 73.7049C37.4553 72.0726 39.2351 71.1318 40.698 71.5738C40.8751 71.6275 41.0148 71.8548 41.2012 71.858C41.3751 71.8611 41.5615 71.6622 41.7696 71.637C42.3846 71.5643 43.3102 71.6212 43.7295 72.1453C43.8506 72.2968 43.8134 72.461 43.8817 72.622H43.8786ZM42.4094 73.7207C42.6548 73.4239 43.3537 73.4302 43.1176 72.6567C43.0027 72.2873 42.0864 72.1516 41.8162 72.2558C41.5149 72.3726 41.2882 72.8872 41.1981 72.8872C41.1297 72.8872 40.8657 72.4452 40.7322 72.3347C39.8935 71.6401 38.1417 72.1768 38.7754 73.2945C38.8064 73.3481 39.3562 73.9133 39.3997 73.9133C39.4494 73.9133 39.6451 73.6291 39.7351 73.5755C40.2911 73.9859 39.9091 74.6899 39.8998 75.233C39.878 76.4516 40.1172 77.7777 40.1358 78.9932C40.1544 80.2087 39.9898 81.3326 39.996 82.5134C39.8998 83.0849 38.6201 83.7163 38.4989 83.9625C38.0672 84.8339 39.4245 84.6508 39.906 84.4772C40.201 84.373 40.7477 83.7005 40.9154 83.8489C41.021 83.9436 40.962 84.493 41.6764 84.7329C41.9932 84.8402 43.0679 84.7992 43.1518 84.4677C43.2916 83.9057 42.2075 83.3248 42.1703 83.2017C42.0088 82.7028 42.2914 81.9925 42.2697 81.6294C42.2666 81.5599 42.046 81.5726 42.0336 81.4936C41.9746 81.1306 42.4436 80.638 42.4964 80.256C42.5958 79.533 42.5306 78.0586 42.4964 77.2757C42.4622 76.4927 41.9808 74.2385 42.4125 73.7144L42.4094 73.7207Z" fill="#282626"/>
<path d="M28.5838 77.3674C28.3322 77.6231 27.6054 79.8489 27.3041 80.3477C27.0463 80.7771 26.7978 80.6224 26.5959 80.8781C26.4064 81.1181 25.1858 83.6028 25.192 83.7764C25.2106 84.4994 25.7666 85.0235 24.8534 85.737C24.3223 86.1506 23.2786 86.2169 22.7599 85.797C22.5145 85.5981 22.5177 85.0172 22.4866 84.9888C22.3779 84.8877 19.9676 85.6297 20.0204 84.1426C20.0763 82.5735 22.1232 82.7598 22.6512 82.1284C22.8873 81.8442 23.7539 79.8457 23.9651 79.3532C24.1204 78.9964 25.0895 76.6412 25.0708 76.4865C25.0584 76.3823 24.7664 76.3918 24.6111 76.2245C24.1856 75.7603 24.167 74.5069 24.6701 74.1218C24.8472 73.9892 24.9776 74.1344 25.046 74.106C25.077 74.0934 25.2013 73.7524 25.5802 73.6861C26.0586 73.604 27.0214 73.7082 27.4594 73.9323C27.6923 74.0523 28.0371 74.5511 28.1582 74.5606C28.2235 74.5669 28.767 74.2828 29.059 74.2512C30.171 74.1249 31.2674 74.6806 30.5592 75.8898C30.4567 76.0634 29.674 76.8843 29.5094 76.9916C29.2485 77.1621 28.708 77.2284 28.5807 77.3579L28.5838 77.3674ZM27.683 75.031C27.6085 74.9868 27.4314 74.6585 27.1332 74.5069C26.6891 74.2828 26.0958 74.1944 25.6051 74.2859C24.8845 74.4217 24.6639 74.8164 24.872 75.5488C24.9652 75.874 25.5212 76.0003 25.5305 76.4802C25.5336 76.7138 24.7261 78.7786 24.5676 79.1669C24.3285 79.751 23.2414 82.2989 22.9463 82.6272C22.6885 82.9145 21.3125 83.0345 20.8559 83.5017C20.185 84.1932 20.9988 84.7109 21.7442 84.6383C22.1263 84.6004 23.1389 84.0637 23.2165 84.0763C23.6327 84.1395 22.8873 84.6762 22.9463 84.9225C22.9556 84.9572 23.4495 85.3676 23.5054 85.3929C23.8781 85.557 24.2042 85.0551 24.6204 85.1056C24.6795 84.8183 24.3844 84.853 24.285 84.6762C23.9123 83.9974 24.5211 83.7512 24.7571 83.366C25.9436 81.4338 26.9282 79.3343 28.0806 77.38C28.6304 76.4455 28.5403 76.9064 29.2236 76.6002C29.2888 76.5717 30.1989 75.6214 30.2176 75.5488C30.5623 74.2954 28.006 75.2236 27.6768 75.031H27.683Z" fill="#282626"/>
<path d="M22.5038 94.5677C22.5411 94.6182 22.7958 94.6435 22.9324 94.8803C23.9357 96.6356 20.6215 97.4565 20.5874 95.6159C21.0719 95.3601 20.9539 95.8179 21.2614 96.0074C21.6217 96.2284 22.4417 96.2599 22.5877 95.7611C22.7771 95.1139 22.0596 94.9055 22.0379 94.6466C22.2615 93.8036 22.3237 88.4301 22.7119 88.1239C22.8921 87.9818 23.2027 88.2881 23.504 88.1397C24.4171 87.6851 23.153 86.7 22.2305 87.1862C22.0876 87.262 22.0659 87.4419 22.0224 87.4735C21.9975 87.4893 21.4571 87.5872 21.426 87.584C21.1123 87.5556 20.9104 86.6053 20.1308 86.8737C19.6214 87.0473 19.5375 88.0071 19.9662 88.3228C20.2115 88.5028 20.4756 88.2376 20.5843 88.3133C20.8421 88.4901 20.4849 90.577 20.4693 90.9969C20.4383 91.8209 20.6743 94.0783 20.2581 94.6561C20.0718 94.915 19.0561 95.2465 19.1306 95.5622C19.1493 95.6443 19.4412 95.8179 19.5437 95.8242C19.6493 95.8337 20.5687 95.3412 20.4787 95.7895C20.3358 96.4873 18.7672 96.361 18.6803 96.001C18.469 95.1454 19.3574 94.6908 19.9227 94.2867L20.1494 89.0742C17.7764 87.9471 20.1122 84.6731 21.6621 87.0473C22.5939 85.9234 25.2993 86.8705 23.9481 88.3544C23.6096 88.7269 23.0815 88.6669 23.0008 89.2194L22.5131 94.5772L22.5038 94.5677Z" fill="#282626"/>
<path d="M18.0805 97.1278C18.9968 98.0686 16.7604 99.3851 15.9218 99.3883C15.7168 99.3883 14.7135 99.1357 14.6452 99.0221C14.1544 98.217 17.0617 96.0859 18.0805 97.1278ZM17.0617 97.3614C16.4684 97.3772 15.3192 97.9897 15.3503 98.6969C15.8037 99.3094 17.5804 98.4443 17.6674 97.9518C17.7419 97.5287 17.4499 97.3519 17.0617 97.3614Z" fill="#282626"/>
<path d="M20.2182 98.3781C20.827 98.3118 20.7525 98.8074 20.681 99.3157C20.6158 99.7893 19.8145 101.172 19.4013 101.441C18.6807 101.908 17.4973 101.829 17.6837 100.724C17.8328 99.843 19.3423 98.4759 20.2182 98.3781ZM20.2431 98.9242C19.9107 98.4538 17.6775 100.459 18.3267 101.156C19.3454 101.886 20.3394 99.0568 20.2431 98.9242Z" fill="#282626"/>
<path d="M22.7994 97.81C23.3989 97.7216 24.1661 98.0058 24.573 98.4667C25.9614 100.042 23.8306 100.797 22.6721 99.7138C21.967 99.0539 21.4079 98.0152 22.7994 97.81ZM22.495 98.3531C22.6876 99.1455 23.5821 100.093 24.4705 99.6159C24.6786 98.492 23.2467 98.4478 22.495 98.3531Z" fill="#282626"/>
<path d="M41.28 89.6992C41.1931 89.854 41.249 90.8611 41.2148 91.18C41.1806 91.4988 41.0502 91.8145 41.0285 92.1303C40.9601 93.1848 41.0813 94.2677 40.9322 95.3159C40.9881 95.5242 41.8609 95.4895 42.0876 96.1872C42.7803 98.2931 39.901 98.7256 39.3388 96.9797C38.7051 97.9458 37.2049 97.4911 37.4782 96.2883C37.6988 95.3064 38.6523 95.4232 38.6803 94.6402C38.7144 93.671 38.4846 92.3323 38.438 91.3315C38.4069 90.6338 38.5591 89.5445 38.438 88.9321C38.3262 88.3606 37.1397 88.3732 37.7795 86.9999C38.1678 86.1695 39.23 85.9106 40.0469 86.1537C40.283 86.2232 40.4632 86.6494 40.6495 86.6841C40.7644 86.7062 41.0564 86.4916 41.3049 86.4695C42.7492 86.3305 43.2834 87.1198 42.7213 88.4806C42.5225 88.9636 42.1466 88.9036 41.8174 89.1594C41.7708 89.1973 41.2987 89.6614 41.28 89.6961V89.6992ZM40.2457 87.385C40.224 87.3661 40.2426 87.1546 40.1774 87.0598C39.4444 85.9959 37.5062 86.9967 38.2672 87.9691C38.6554 88.4679 39.171 88.1901 39.2363 88.2375C39.5779 88.4837 39.2363 89.1436 39.2238 89.4972C39.1524 91.3883 39.3077 93.2953 39.2052 95.1864C39.1182 95.8273 37.8385 95.7137 37.9038 96.4493C37.9907 97.4343 39.2766 96.7776 39.6214 96.2977C39.8388 96.484 39.7829 96.7808 39.9165 97.0239C40.3047 97.7406 41.6807 97.8637 41.6621 96.8313C41.6434 95.7042 40.5408 96.0515 40.3234 95.5811C40.2861 94.2077 40.1929 92.8312 40.3669 91.4578C40.4135 91.0758 40.8017 88.8784 40.9197 88.7079C41.131 88.408 42.4417 88.2154 42.333 87.325C42.2988 87.0377 41.4291 86.883 41.2179 86.9304C41.1216 86.9525 41.1434 87.1262 41.0005 87.1925C40.8794 87.2461 40.3172 87.4513 40.2457 87.385Z" fill="#282626"/>
<path d="M37.4317 98.2393C37.1987 99.5338 35.9812 101.302 34.5089 100.696C33.4653 100.269 34.7574 99.177 35.2823 98.8518C35.9563 98.4351 36.6272 98.2172 37.4317 98.2393ZM36.6459 98.8108C36.2297 98.6466 34.4095 99.8716 34.6238 100.178C36.0153 100.724 35.9905 99.679 36.6459 98.8108Z" fill="#282626"/>
<path d="M39.5505 99.5116C39.6903 100.497 38.8982 103.341 37.5005 102.454C36.1028 101.567 38.0782 98.6781 39.5505 99.5116ZM39.2306 99.8399C38.1559 99.4958 36.7613 101.535 37.8857 102.066C38.7522 102.476 39.1094 100.386 39.2306 99.8399Z" fill="#282626"/>
<path d="M40.9569 100.825C40.5283 100.408 40.258 99.8844 40.8109 99.4424C40.9103 99.3635 41.6837 98.9751 41.7924 98.9499C42.3515 98.8173 42.9261 99.455 43.1094 99.9507C43.7057 101.567 41.8545 101.703 40.9569 100.825ZM41.0345 99.7297C40.4444 100.595 43.9729 101.738 42.4726 99.796C41.839 98.9783 41.7862 99.6571 41.6371 99.7013C41.5626 99.7234 41.1277 99.5908 41.0345 99.7297Z" fill="#282626"/>
<path d="M50.3925 10.7868C50.2064 11.1929 49.3712 11.9678 49.3786 12.2211C49.588 13.4517 49.8732 14.6529 50.1201 15.8672C50.2011 16.2548 50.1457 16.8485 50.2662 17.186C50.4288 17.6518 51.1709 18.0883 51.2893 18.4995C51.4899 19.1915 50.7785 20.635 50.1128 20.9032C49.5369 21.134 49.0142 20.8747 48.7037 20.9514C48.4996 21.0014 48.2713 21.3589 48.0385 21.4819C46.2747 22.4159 45.0832 20.5886 46.3778 19.2076C46.4657 19.1143 46.9099 18.7127 46.9977 18.6594C47.4614 18.3774 47.5117 18.8319 47.5591 17.8123C47.622 16.4584 47.3973 15.5222 47.2106 14.2805C47.1231 13.6925 47.195 12.7077 46.9616 12.1964C46.7104 11.6513 45.9656 11.5878 45.7549 11.0255C45.3119 9.8452 46.1298 8.3752 47.4539 8.48911C47.782 8.51611 48.2719 8.88627 48.3261 8.88096C48.5725 8.85957 48.7247 8.14952 49.5365 8.22654C50.5443 8.31937 50.7558 9.97781 50.3826 10.7869L50.3925 10.7868ZM47.7549 9.24637C47.2037 8.91049 46.103 9.41765 46.1095 10.1298C46.1204 11.0563 47.1613 11.3604 47.7169 11.9306C47.7287 13.8935 48.4797 16.2539 48.1171 18.179C48.0842 18.3498 47.8214 19.1742 47.7405 19.2584C47.6526 19.3517 47.4294 19.1226 47.1245 19.297C46.6698 19.556 46.4195 20.5189 46.7605 20.9568C46.8225 20.9953 48.1099 20.7564 48.2371 20.6828C48.616 20.4731 48.4505 19.9485 48.83 19.8914C48.8674 19.8852 49.3564 20.2623 49.4066 20.265C49.8066 20.2906 50.6236 19.7711 50.5979 19.3314C50.5683 18.8299 50.2089 19.209 50.0887 19.1738C49.7608 19.077 49.9616 18.234 49.8982 17.9003C49.517 15.8648 48.5004 13.7982 48.6035 11.5634C48.6118 11.3578 48.9119 10.5771 49.1041 10.551C49.521 10.4977 49.1763 11.3835 49.5649 11.2336C50.2625 10.7318 50.3352 8.90607 49.4279 8.81864C48.5205 8.73121 48.6657 10.007 48.2344 9.88589C48.195 9.87615 47.932 9.35505 47.7509 9.2444L47.7549 9.24637Z" fill="#282626"/>
<path d="M48.2881 0.125681C48.9417 -0.321164 49.4981 0.521677 49.5787 1.13882C49.6311 1.54959 49.5853 3.6791 49.5027 4.07969C49.42 4.48028 49.1444 5.22623 48.6583 5.25004C47.687 5.30064 47.6752 1.88136 47.8246 1.16209C47.8733 0.929322 48.1124 0.242453 48.2871 0.122693L48.2881 0.125681ZM48.8454 1.00144C48.5515 1.03909 48.6785 1.12515 48.6446 1.30295C48.5967 1.58859 48.4465 2.70697 48.4609 2.93139C48.4877 3.31437 48.7285 3.68712 48.725 3.96751C48.7246 4.15709 48.5016 4.2502 48.455 4.37918C48.4292 4.45117 48.6343 4.9259 48.8868 4.41057C49.2759 3.60908 48.7804 1.92775 48.8424 1.00246L48.8454 1.00144Z" fill="#282626"/>
<path d="M45.1199 0.609073C46.1105 0.163077 46.7977 2.87002 46.9435 3.50499C47.0892 4.13996 47.1759 5.6796 46.3408 5.82623C45.558 5.96158 44.7292 3.48604 44.5933 2.87098C44.471 2.31772 44.5312 0.874042 45.1199 0.609073ZM46.3183 5.22548C46.4675 5.12778 46.4996 4.88405 46.4831 4.72344C46.4068 3.93834 46.0106 2.19889 45.5925 1.56752C45.3555 1.20658 45.2571 1.05744 45.0656 1.5786C44.7044 2.55691 45.5984 4.51802 46.3163 5.22948L46.3183 5.22548Z" fill="#282626"/>
<path d="M42.6062 4.11855C43.8781 3.19707 45.0036 5.96542 45.0697 6.89002C45.088 7.13638 44.8525 7.99489 44.5999 8.10813C44.0837 8.34166 42.8661 6.74829 42.654 6.29253C42.442 5.83677 42.1223 4.47063 42.6062 4.11855ZM43.3978 4.69464C43.2442 4.61771 42.8753 4.64781 42.8187 4.85669C42.6925 5.33539 43.689 6.96797 44.2271 7.14243C44.0542 6.80618 44.4118 6.50074 44.3454 6.20777C44.2916 5.9736 43.587 4.78932 43.3978 4.69464Z" fill="#282626"/>
<path d="M52.2205 1.90182C52.633 2.79934 52.2502 3.74737 51.8095 4.54924C49.7199 8.36359 49.7344 3.67444 50.9947 2.49502C51.3113 2.19717 51.7951 1.94817 52.2224 1.89782L52.2205 1.90182ZM51.8676 2.62046C50.8293 3.03317 50.5235 4.31661 50.6159 5.33062C50.7821 5.43628 51.9575 2.96476 51.8676 2.62046Z" fill="#282626"/>
<path d="M48.1819 25.4098C48.2036 25.4445 48.2285 26.1328 48.2129 26.2307C48.0825 27.1431 47.4054 26.9947 46.8276 27.342C46.107 27.7745 43.5042 31.5663 43.001 32.4724C42.6251 33.1512 43.3582 33.6942 42.6003 34.4646C41.9387 35.1402 40.8236 35.4465 40.1652 34.594C40.0316 34.4204 39.9601 33.9184 39.8266 33.8205C39.6527 33.6942 39.3079 33.9468 38.8886 33.4353C38.2145 32.6082 38.258 31.3611 39.2768 30.8591C39.808 30.5971 40.4447 30.8528 40.6652 30.7265C40.7118 30.6981 41.1715 29.9814 41.3051 29.8362C41.8642 29.2237 43.7309 27.3483 43.9017 26.6411C43.9639 26.3791 43.7557 26.2433 43.7278 26.0065C43.6222 25.0404 43.9328 24.1091 44.9764 23.9765C46.0201 23.8439 46.076 24.69 46.3804 24.7973C46.6848 24.9047 46.986 24.671 47.3153 24.7468C47.4892 24.7879 48.1042 25.2867 48.1788 25.4098H48.1819ZM40.7242 34.2594C41.156 34.8182 41.8859 34.6698 42.2617 34.1236C42.6593 33.5459 42.2027 33.508 42.1779 33.0754C42.1654 32.8765 43.5445 30.8844 43.7899 30.5371C44.3676 29.7067 45.843 28.1218 46.2033 27.3831C46.3431 27.0989 46.1505 26.72 46.5885 26.6443C46.8991 26.5906 47.4209 26.7832 47.601 26.417C47.7967 26.016 47.5234 25.6592 47.2004 25.4509C46.5916 25.0594 46.3493 25.7098 46.0387 25.615C45.8585 25.5614 45.7032 24.57 44.9112 24.5826C43.6719 24.6016 44.5975 26.1012 44.5167 26.5811C44.4764 26.8242 43.3551 28.2955 43.1128 28.5859C42.4823 29.3405 41.7089 29.9846 41.0845 30.7486C40.8236 31.0706 40.8702 31.4905 40.2739 31.5379C40.0316 31.5568 39.957 31.3706 39.7645 31.3579C38.6929 31.2758 39.0967 33.0817 39.7148 33.3091C39.9602 33.4006 40.2148 33.2112 40.3639 33.3154C40.5255 33.4259 40.5565 34.0352 40.7305 34.2625L40.7242 34.2594Z" fill="#282626"/>
<path d="M46.9531 22.2144C47.3569 22.1323 48.503 22.1196 48.6552 22.609C48.7515 22.9184 48.3011 24.336 47.9128 24.4528C47.2792 24.6391 45.9063 24.0076 46.0182 23.2152C46.0834 22.7416 46.4903 22.3122 46.9531 22.2175V22.2144ZM47.8694 22.7732C47.8166 22.7258 46.981 22.7384 46.8382 22.7826C46.0275 23.0226 47.096 24.0045 47.9191 23.7929C48.2079 23.7172 47.9315 22.83 47.8694 22.7732Z" fill="#282626"/>
<path d="M27.6578 6.42871L32.292 4.285C32.3665 4.32288 32.556 4.34498 32.584 4.38918C32.789 4.71437 31.8603 6.49502 31.705 6.94965C31.4409 7.72947 31.2484 8.70504 31.0247 9.51327L35.7428 7.80208C35.7428 8.00099 35.7677 8.20936 35.7211 8.4051C35.6217 8.81554 33.5841 11.3002 33.1617 11.8559C32.5094 12.7083 31.8168 13.5387 31.1614 14.3911C31.0434 14.9341 31.3322 15.4267 31.3664 15.9634C31.444 17.1378 31.4596 18.9564 30.975 20.0267C29.9966 22.1893 27.7292 24.3267 25.5177 25.1002C25.263 25.1886 24.6573 25.2107 24.5082 25.3275C24.325 25.4728 24.4399 25.9716 24.3157 26.2715C24.1914 26.5715 23.505 27.6733 23.2782 27.9227C21.6786 29.6813 20.1753 28.8225 18.9515 27.2155C17.7029 28.4595 16.1716 28.9457 14.8515 27.4965C14.5813 27.2029 14.3173 26.8367 14.4011 26.4136C14.2458 26.3852 14.2583 26.3884 14.1682 26.4862C13.957 26.7167 13.9321 26.884 13.5873 27.1271C12.1555 28.1311 10.3105 27.5912 10.0496 25.7569C9.99675 25.3844 10.0868 23.7521 10.0154 23.6795C9.98433 23.6479 9.47493 23.5722 9.1985 23.4238C7.39699 22.4577 6.16388 20.3171 6.31297 18.2523C6.52418 15.2972 8.79782 11.7012 11.1522 10.0405C11.5405 9.76584 13.665 8.61032 14.0346 8.5156C14.4042 8.42089 14.8546 8.53455 15.2398 8.48719C16.9761 8.26935 18.7776 7.941 20.5201 8.03256C20.7437 8.04519 21.7407 8.27882 21.7966 8.24725C21.837 8.22515 22.1911 7.61265 22.3185 7.45795C23.2068 6.38136 24.2163 5.35528 25.145 4.33551C25.8842 3.52727 26.5489 2.52961 27.4869 1.86345C27.7851 1.65192 28.3131 1.40881 28.4374 1.9108C28.1951 2.93688 28.0305 3.97875 27.8876 5.02377C27.8597 5.21952 27.9777 5.39632 27.9559 5.55734C27.9404 5.68678 27.5491 6.32769 27.6547 6.43187L27.6578 6.42871ZM29.2294 7.68527C28.1454 7.99783 27.4869 8.17147 27.6578 9.51327C29.0617 9.55747 29.3972 9.07758 29.2294 7.68527ZM23.095 11.0666C22.8372 10.754 21.9613 9.26385 21.7407 9.18808C19.4391 9.10284 16.8642 8.80606 14.5999 9.31437C12.8202 9.71217 10.6273 11.275 9.57122 12.7683C9.31342 13.1345 9.15812 13.6807 8.96865 13.927C8.56797 14.4479 7.88774 14.7321 7.99645 15.7329C8.01509 15.9192 8.21698 16.0581 8.22009 16.077C8.22941 16.3959 7.48706 16.0865 7.43736 16.1339C7.27274 17.2483 6.82547 18.347 6.9932 19.4962C7.11744 20.3392 8.65494 22.2588 9.4594 22.5871C9.87872 22.7576 10.1769 22.685 10.503 22.7829C11.1305 22.9691 10.6397 24.0015 10.5962 24.4277C10.5217 25.1665 10.677 26.3726 11.5436 26.521C12.4102 26.6693 12.7363 26.4957 13.3389 25.959C13.7955 25.5517 14.1682 24.955 14.6217 24.5477C15.159 24.0615 15.0286 25.5738 15.1342 25.959C15.1932 26.1737 15.4603 26.8619 15.5876 26.9914C15.7274 27.1334 15.8889 27.004 15.979 27.0577C16.8425 27.5502 17.0382 27.8754 17.9886 27.1461C18.9391 26.4168 18.5788 25.798 19.0229 25.2297C19.7373 24.3141 20.1287 26.3094 20.3368 26.723C20.7468 27.5281 21.6289 28.3174 22.4831 27.607C22.6229 27.4902 23.5609 26.3568 23.6665 26.1831C23.8994 25.8074 23.8032 25.4696 23.9429 25.0939C24.21 24.3772 24.5113 24.7466 24.9897 24.6835C27.0925 24.4025 30.096 20.9454 30.5495 18.9059C30.7328 18.0881 30.6924 17.1536 30.5681 16.3233C30.506 15.8971 30.3911 15.474 30.2544 15.0667C29.3133 14.8299 28.484 14.3153 27.5708 13.9996C27.1359 13.8512 26.3812 13.8102 26.0426 13.6113C25.7972 13.4692 25.701 13.1282 25.4711 12.9356C24.6635 12.26 23.9088 12.058 23.0981 11.0666H23.095Z" fill="#282626"/>
<path d="M22.4355 29.5696C22.4242 29.9486 22.8197 30.1233 22.8537 30.4328C22.895 30.8157 22.6947 31.1365 22.614 31.482C22.578 31.6376 22.6792 31.8349 22.6149 31.9948C22.5998 32.0317 22.0803 32.462 22.0019 32.5132C20.9262 33.2318 20.4866 32.845 19.358 32.8633C16.9009 32.9075 12.6232 33.4161 10.5244 32.1888C10.336 32.0799 10.1299 32.1313 9.93878 31.7532C9.47706 30.8456 9.88616 29.6475 10.3357 28.8005C10.926 27.6822 11.2172 27.4409 12.4771 27.8089C13.4962 28.1054 13.8658 28.7751 14.4057 29.6346C15.3518 28.3304 16.732 28.3654 18.0944 28.9561C18.3785 29.0783 18.7811 29.5036 19.0356 29.5159C19.2436 29.5249 19.6279 29.1575 20.0716 29.1363C20.5153 29.1151 22.1853 29.279 22.4355 29.5696ZM13.5607 29.4744C13.0503 29.6015 12.396 29.2115 11.9855 29.2478C11.6376 29.2793 11.1152 29.7062 10.7301 29.7792C10.7448 30.3595 10.4531 31.1769 10.9354 31.6207C11.2773 31.937 11.5854 31.7634 11.9691 31.8866C13.8018 32.4771 13.4617 32.1356 15.1322 32.2045C16.6414 32.2648 17.9126 32.4311 19.5051 32.4152C20.2281 32.4082 21.5624 32.8259 21.8105 31.7901C22.0283 30.8723 21.0706 30.3714 20.3069 30.3374C19.4343 30.3018 19.1138 31.4811 18.5728 31.4255C18.0008 31.3676 18.2785 31.0525 18.1593 30.7145C17.901 29.9675 16.0329 29.3934 15.3938 29.9288C15.0295 30.2344 15.08 31.4505 14.3102 31.3275C13.7407 31.2349 13.914 30.4627 13.841 30.1313C13.8011 29.9479 13.506 29.7616 13.5609 29.4713L13.5607 29.4744Z" fill="#282626"/>
<path d="M24.3671 14.3436C24.5907 14.5993 24.5938 15.076 24.7553 15.3759C25.1001 16.0263 25.8269 16.6104 26.0568 17.365C26.3239 18.249 26.15 19.4045 25.5878 20.137C25.1374 20.7274 24.7988 20.4716 24.2832 20.639C22.6991 21.1504 22.3233 21.3304 20.5808 20.8757C18.8383 20.4211 17.9251 18.9183 18.6644 17.2134C18.7482 17.0208 19.8882 15.4454 20.059 15.2623C20.8138 14.4541 23.516 13.3711 24.3671 14.3436Z" fill="#282626"/>
<path d="M14.834 19.7676C14.483 19.6034 14.1196 20.0044 13.896 20.0107C13.6724 20.017 13.2251 19.6666 12.7716 19.6666C11.9019 19.6634 9.93578 20.4369 9.33941 19.395C8.99775 18.8015 9.5382 18.5742 9.56616 18.1259C9.58169 17.8543 9.38911 17.5986 9.35494 17.3239C9.26487 16.5978 9.69972 14.8487 10.2992 14.4193C10.8365 14.0373 10.9701 14.2962 11.4546 14.2236C12.2995 14.0973 12.7654 13.3112 13.6755 13.2733C14.2252 13.248 14.952 13.5922 15.2999 14.0184C16.7411 15.7864 15.3248 17.9301 14.8309 19.7644L14.834 19.7676Z" fill="#282626"/>
<path d="M17.5242 22.6217C17.4901 22.6627 17.0241 22.7637 16.931 22.7543C16.7166 22.7353 16.5676 22.4891 16.3439 22.4354C15.7072 22.287 14.1635 22.7258 14.8748 21.3525C15.1326 20.8536 15.7569 21.0083 15.847 20.9168C16.0178 20.74 15.6109 20.1338 16.5893 20.1212C17.3658 20.1117 17.8535 20.9199 17.7603 21.6619C17.7447 21.7787 17.5553 22.5838 17.5242 22.6217Z" fill="#282626"/>
<path d="M42.7613 69.2817C42.2147 69.8184 40.4815 70.5856 39.7081 70.6993C38.8819 70.8192 37.2761 70.8129 36.5555 71.0245C35.9156 71.2139 35.1267 72.101 34.4464 72.4199C32.4927 73.3292 29.9675 73.4934 27.8492 73.2124C24.8705 72.8177 21.2457 72.019 22.2769 68.0409C22.9137 65.5878 25.5693 65.0195 27.7156 64.8995C29.4177 64.8048 31.1975 64.849 32.8282 65.351C32.7505 65.1553 33.0798 64.407 33.1885 64.3407C33.3252 64.2618 34.1638 64.4702 34.4558 64.4386C36.8319 64.186 37.9345 60.6121 40.8573 60.5458C42.0035 60.5205 43.9168 61.7266 44.1498 62.92C44.3516 63.9429 44.3982 65.7393 44.1435 66.7465C43.9106 67.6652 43.4198 68.6282 42.7582 69.2785L42.7613 69.2817ZM42.3482 61.8402C40.7921 61.2435 39.7143 62.0897 38.3942 62.6169C38.1551 62.7116 37.8476 62.6864 37.6612 62.7842C37.4904 62.8726 37.45 63.1189 37.3195 63.242C36.7325 63.7851 35.7355 64.647 34.9869 64.8648C34.6452 64.9627 33.5768 64.9816 33.5177 65.0258C33.409 65.1048 33.4711 65.7804 32.8593 65.9035C32.4275 65.9919 31.6541 65.5247 31.0888 65.4678C29.4674 65.3068 26.116 65.2973 24.7121 66.0645C24.3518 66.2634 23.5256 67.7663 23.6156 68.1325C23.6374 68.2177 23.8455 68.2083 23.8486 68.2714C23.8548 68.4229 23.6684 68.6503 23.6529 68.8492C23.5659 69.9352 24.0474 71.3844 24.9606 72.0379C25.8737 72.6914 26.6534 72.2684 27.492 72.4357C27.7436 72.4862 27.8088 72.7293 28.0573 72.7767C29.8246 73.1145 32.6201 72.7577 34.2539 72C34.8471 71.7254 35.1702 71.3023 35.751 71.0655C35.2727 70.453 36.074 70.2036 36.602 70.1625C36.6517 70.1594 36.6331 70.3583 36.7263 70.3804C37.5556 70.5825 40.4629 70.1183 41.2239 69.7205C41.9848 69.3227 43.0285 67.8452 43.277 67.0117C43.2956 66.9517 43.308 66.8254 43.2242 66.8444C42.9788 66.9422 42.8048 67.64 42.6029 67.3527C42.2861 66.9012 43.6217 65.3005 43.6652 64.5744C43.7242 63.6367 42.5874 62.74 42.3514 61.8466L42.3482 61.8402Z" fill="#282626"/>
<path d="M30.7662 69.9955C30.4587 70.3459 29.7195 70.7343 29.2629 70.8069C28.0857 70.9931 26.014 70.7311 25.3027 69.6356C24.7405 68.7737 25.7624 68.0286 26.5141 67.7823C27.6322 67.4161 28.6262 67.8928 29.6325 67.8518C30.1295 67.8328 30.1202 67.4129 30.8097 68.0317C31.4993 68.6505 31.3222 69.3609 30.7662 69.9955Z" fill="#282626"/>
<path d="M40.8774 66.6834C40.2127 67.5831 37.7559 68.745 36.9048 67.7158C36.4234 67.1348 37.2558 66.5665 37.526 66.0709C38.0975 65.0227 38.1534 64.0692 39.3772 63.3841C41.9211 61.9571 42.0795 65.0574 40.8774 66.6834Z" fill="#282626"/>
<path d="M11.4622 46.2534C11.4187 46.2787 11.077 46.064 10.8689 46.5154C10.6142 47.4215 10.3875 48.3624 10.0706 49.2432C9.7942 50.0199 8.23807 53.4612 8.3561 53.9569C8.48966 54.5189 9.11708 54.4557 8.86549 55.5544C8.73193 56.1448 7.78459 56.9594 7.18201 56.8773C6.52353 56.7889 5.86505 55.7028 5.56376 55.6681C5.39603 55.6491 5.21899 55.8386 5.0171 55.867C3.27149 56.1132 2.21544 53.6822 4.4052 52.9624C5.0171 52.7603 5.47369 53.1013 6.06384 52.7603C7.2255 49.9662 7.94921 47.0269 8.89966 44.1539C8.72262 43.6424 8.48656 43.5161 8.44618 42.9163C8.34989 41.5176 9.30966 40.5957 10.7012 40.9683C11.633 41.2177 11.3938 42.0922 11.5895 42.2343C11.7572 42.3574 12.4499 42.2185 12.863 42.4237C13.7358 42.8531 13.8321 43.996 13.2668 44.7253C13.0897 44.9558 11.9778 45.7388 11.664 45.9566C11.5429 46.0387 11.4994 46.2345 11.4622 46.2566V46.2534ZM12.2946 44.599C12.4343 44.4412 12.922 44.5138 13.0338 44.1476C13.155 43.7466 12.9965 43.4119 12.7077 43.1499C11.9995 42.5121 11.4746 43.1973 11.2509 43.0394C10.9776 42.8468 10.9807 40.8452 9.46496 41.6692C8.18216 42.3638 9.58299 43.6961 9.55193 44.0402C9.54572 44.1097 9.12019 44.9747 9.04254 45.2336C8.52072 46.9259 8.06103 48.7286 7.48951 50.3924C7.14474 51.3964 6.57323 52.3215 6.37755 53.3728L4.5077 53.6412C3.04475 54.7051 4.92702 56.0122 5.97376 54.8504C6.34027 55.425 7.01739 56.6247 7.81254 56.2048C8.41512 55.8859 8.7164 55.043 8.05481 54.6073C7.83739 54.4652 7.48019 54.7336 7.54542 54.2221C7.57338 54.0042 7.7908 53.9095 7.85913 53.7359C8.8686 51.1502 10.0489 48.3024 10.6484 45.5999C10.7198 45.2778 10.4775 44.6338 11.1453 44.8453C11.5584 44.9747 11.3938 45.4578 11.6454 45.3694C12.0896 45.2147 12.1486 44.7664 12.2946 44.6022V44.599Z" fill="#282626"/>
<path d="M7.2144 65.5786C7.29516 66.0743 7.10569 66.8888 7.20819 67.3308C7.23925 67.4634 8.22698 67.6118 8.10895 68.5968C8.0872 68.7736 7.8263 69.3198 7.71137 69.4556C7.05599 70.2133 5.32282 69.9955 6.25774 68.8968C6.74539 69.4272 7.53122 69.5756 7.64614 68.6916C7.7238 68.0949 6.66153 67.8644 6.64289 67.7949C6.57456 67.5424 6.75471 67.0846 6.76713 66.7846C6.78577 66.2984 6.77645 65.7807 6.76713 65.2913C6.72675 63.438 5.97819 61.5974 7.38834 60.1072C7.5188 59.9683 7.73311 60.0125 7.86978 59.7978C8.35122 59.0275 7.3666 58.6644 6.73296 58.8443C6.66153 58.8633 6.24221 59.4632 5.81047 59.4253C5.58062 59.4063 5.01221 58.396 4.40343 58.6865C3.74184 59.0054 3.8754 59.7947 4.24812 60.3156C4.69539 60.9407 4.66123 60.6629 5.30418 60.5555C5.39426 60.6534 5.38183 62.8729 5.42532 63.2297C5.49986 63.8137 6.13971 65.266 6.09001 65.7491C6.06516 65.989 5.74524 66.3174 5.58062 66.0427C5.43463 65.8027 5.63032 65.0798 5.30418 64.8966C5.26691 65.6923 5.47812 66.4373 5.42221 67.2424C5.40357 67.4855 5.33835 68.1138 4.96873 67.8644C4.8507 67.7855 5.08676 67.3308 4.801 67.4098C4.48418 67.9338 3.71699 68.3032 4.2885 68.9568C4.78858 69.5282 5.40668 68.8115 5.74835 68.7105C6.17698 68.5874 6.09001 68.9189 5.85706 69.1683C5.07433 70.0049 3.51509 69.9386 3.61449 68.4958C3.65176 67.9528 4.36305 66.9299 4.96873 67.1824C4.78858 65.3513 4.87555 63.4601 4.52456 61.6605C3.99343 61.6511 4.1829 61.0196 4.03381 60.8144C3.98411 60.745 3.78843 60.7102 3.67972 60.5587C3.03987 59.6431 3.43123 58.3834 4.51835 58.0993C5.45017 57.8561 5.65827 58.6739 5.94092 58.7212C6.16456 58.7591 7.9847 57.2942 8.40091 58.958C8.755 60.3661 7.06221 60.7544 6.99387 61.5343C6.98456 61.6321 7.2113 63.217 7.24857 63.438C7.33554 63.94 8.16796 65.9227 7.2144 65.5849V65.5786Z" fill="#282626"/>
<path d="M3.37538 70.2826C3.40023 70.2984 3.57106 70.7088 3.57106 70.7751C3.58038 71.1224 2.72001 72.2306 2.44046 72.4326C1.70433 72.963 -0.420213 73.5471 0.073649 71.9685C0.287967 71.2834 2.78523 69.9069 3.37538 70.2826ZM1.34092 72.401C1.41546 72.3505 1.45274 72.1358 1.59251 72.0316C1.9994 71.7286 2.82561 71.7443 3.05235 71.0024C3.01819 70.3615 0.924707 71.5486 0.688647 71.9117C0.362512 72.4137 0.96198 72.6473 1.33781 72.3979L1.34092 72.401Z" fill="#282626"/>
<path d="M6.62837 71.8929C6.65322 71.9056 6.647 72.035 6.67496 72.0508C6.7464 72.0887 7.06943 71.8677 7.19056 72.2844C7.26821 72.5496 7.25579 74.2135 7.20609 74.5387C7.12223 75.0754 6.52587 75.912 5.93261 75.8583C4.41375 75.7226 5.52572 72.537 6.2836 71.9719C6.37988 71.9024 6.50723 71.833 6.62837 71.8929ZM6.65011 72.2024C6.16557 72.6538 5.05049 75.0122 6.05685 75.2711C6.99488 75.5142 6.81473 72.698 6.65011 72.2024Z" fill="#282626"/>
<path d="M10.102 73.1967C8.9341 74.0839 7.21956 72.1107 7.80039 70.9141C7.95259 70.6015 8.18865 70.3616 8.22281 70.8857C8.2694 71.6087 8.22902 72.0159 8.8347 72.5495C9.23228 72.8999 10.0647 73.0483 9.88144 72.398C9.69819 71.7476 9.02417 71.3529 8.56448 70.9962C8.03955 70.5889 8.54274 70.1469 9.28819 70.7152C9.88144 71.1667 10.9033 72.5842 10.0989 73.1936L10.102 73.1967Z" fill="#282626"/>
<path d="M4.51508 71.7475C4.7853 72.0221 3.61121 72.8146 3.44659 73.0009C3.04591 73.446 2.57069 74.0901 3.04902 74.6457C3.26023 74.892 3.79447 74.1027 3.90008 73.9227C4.17652 73.4429 4.35046 72.3284 4.57098 72.0916C5.15803 71.4633 4.86606 72.6757 4.77288 72.9819C4.54614 73.7333 3.2447 76.3506 2.44645 74.8225C1.77554 73.5376 4.26349 71.4917 4.51508 71.7475Z" fill="#282626"/>
</svg>
