<svg width="123" height="128" viewBox="0 0 123 128" fill="none" xmlns="http://www.w3.org/2000/svg">
<path d="M93.3717 37.1298L109.698 35.6562C109.885 35.8488 110.437 36.1166 110.476 36.2785C110.758 37.4688 106.071 41.8026 105.123 42.9962C103.504 45.0461 101.897 47.7572 100.371 49.935L116.498 49.8436C116.29 50.4382 116.147 51.0875 115.801 51.623C115.069 52.744 106.275 58.0016 104.409 59.2128C101.535 61.0664 98.5604 62.8109 95.6762 64.6611C94.7487 66.1587 95.1105 67.9385 94.6521 69.5792C93.6577 73.1725 91.8 78.625 89.2066 81.3083C83.9684 86.7311 74.8402 90.7058 67.3106 90.6632C66.4442 90.6563 64.5807 90.0775 64.0054 90.2679C63.2964 90.5069 63.1231 92.1203 62.4314 92.8846C61.7397 93.6489 58.4999 96.2116 57.5497 96.7157C50.8474 100.269 47.1793 96.1014 45.1444 89.9948C40.0475 92.3836 34.8856 92.2065 32.3928 86.4692C31.8793 85.3038 31.4608 83.928 32.1588 82.7527C31.7167 82.5024 31.7511 82.5251 31.3749 82.7217C30.4917 83.1858 30.241 83.6595 28.9388 84.019C23.5365 85.4955 18.4963 81.9172 19.625 76.1564C19.8548 74.9865 21.8383 70.2034 21.6973 69.9102C21.636 69.7828 20.1677 69.0139 19.4832 68.276C15.0216 63.47 13.5173 55.7586 16.1332 49.7454C19.8704 41.1369 30.5454 32.8087 39.4385 30.3516C40.9059 29.9439 48.5714 28.752 49.7937 28.8625C51.0159 28.9729 52.2653 29.7922 53.4851 30.0607C58.9887 31.2583 64.8063 32.195 70.0047 34.324C70.671 34.5998 73.4556 36.3598 73.6586 36.325C73.8044 36.3019 75.5218 34.8481 76.0708 34.5213C79.8977 32.249 84.0396 30.2567 87.9296 28.1973C91.0223 26.5685 94.087 24.2941 97.6348 23.3016C98.7624 22.9868 100.621 22.8223 100.473 24.4551C98.6621 27.2643 97.0705 30.2033 95.5417 33.1749C95.2518 33.7303 95.4252 34.3844 95.1904 34.8426C95.0077 35.213 93.1472 36.712 93.3589 37.1359L93.3717 37.1298ZM96.8307 42.5593C93.2097 42.3393 91.0271 42.1573 90.1405 46.35C94.3599 47.977 95.8818 46.8997 96.8307 42.5593ZM74.65 46.1349C74.1941 44.9261 73.0938 39.5391 72.5031 39.0778C65.5994 36.3723 58.0868 32.7435 50.6745 31.852C44.8503 31.1461 36.5505 33.4826 31.7775 36.822C30.6106 37.6423 29.5665 39.1096 28.7329 39.6439C26.9698 40.7745 24.6054 40.8995 23.8873 44.0069C23.7488 44.5835 24.2167 45.2137 24.2063 45.2737C23.9006 46.2368 21.9692 44.5215 21.7686 44.6101C20.101 47.7662 17.5911 50.5742 16.8969 54.1879C16.3914 56.84 19.052 64.2149 21.1524 66.0529C22.2478 67.009 23.2298 67.1095 24.1182 67.7493C25.8294 68.9741 23.2569 71.5376 22.6783 72.7653C21.6779 74.8943 20.8864 78.6647 23.364 80.0309C25.8416 81.3972 27.0144 81.2254 29.4074 80.2627C31.2214 79.5314 32.9789 78.1446 34.7834 77.4101C36.9253 76.5289 34.9448 80.9104 34.8622 82.1742C34.8166 82.8788 34.9073 85.2205 35.1586 85.7431C35.4344 86.3166 36.0608 86.1016 36.2782 86.358C38.3859 88.7496 38.6398 89.93 42.2916 88.762C45.9433 87.594 45.4968 85.3606 47.4416 84.1348C50.5713 82.1587 49.6703 88.5397 49.8693 89.9976C50.2717 92.8407 52.1251 96.1392 55.4645 94.9253C56.0115 94.725 60.0488 92.3358 60.5516 91.9291C61.653 91.0541 61.7143 89.9418 62.5325 88.9676C64.0949 87.1098 64.6233 88.5347 66.1428 88.8553C72.8262 90.2544 85.5735 83.1186 89.0877 77.5049C90.5011 75.2558 91.3574 72.4194 91.8497 69.8051C92.1074 68.4649 92.2014 67.078 92.2128 65.715C89.6013 64.0051 87.6206 61.5838 85.1768 59.6678C84.011 58.7612 81.7607 57.8349 80.9404 56.8799C80.3437 56.1939 80.4083 55.0722 79.9117 54.2518C78.1657 51.3723 76.0841 49.9647 74.6595 46.1382L74.65 46.1349Z" fill="#282626"/>
<path d="M53.266 100.742C52.8344 101.863 53.8531 102.806 53.6323 103.767C53.3566 104.956 52.4119 105.701 51.8051 106.648C51.5327 107.075 51.6334 107.773 51.2705 108.182C51.1861 108.276 49.1568 109.009 48.865 109.079C44.8439 110.082 43.9135 108.457 40.4651 107.31C32.9533 104.826 19.4234 101.792 14.3321 95.8883C13.8735 95.3624 13.1936 95.2964 13.009 93.9629C12.5568 90.7583 15.0549 87.6125 17.3079 85.5595C20.2728 82.8452 21.4104 82.4339 24.8532 84.8755C27.6388 86.8467 28.0604 89.2423 28.8004 92.3864C33.0411 89.4951 37.198 91.0692 40.7188 94.2858C41.4538 94.9534 42.2316 96.6533 42.9919 96.9613C43.6145 97.2095 45.1669 96.5204 46.5373 96.9294C47.9077 97.3385 52.8101 99.6066 53.266 100.742ZM26.4008 91.0077C24.7169 90.8441 23.1375 88.9818 21.8521 88.6532C20.7621 88.3767 18.7277 89.0966 17.4811 88.9047C16.918 90.6552 15.1755 92.7879 16.1759 94.6279C16.8832 95.9375 18.0014 95.7468 19.038 96.5234C23.9879 100.24 23.3124 98.8569 28.3158 100.842C32.8381 102.629 36.5264 104.479 41.3815 106.127C43.5855 106.876 47.2019 109.546 49.0408 106.714C50.6642 104.202 48.2788 101.685 45.9941 100.77C43.3803 99.7349 41.171 102.919 39.5854 102.176C37.908 101.394 39.0821 100.748 39.0739 99.6111C39.0717 97.1031 33.9971 93.3978 31.4943 94.3178C30.0673 94.8434 28.9469 98.5322 26.7369 97.3448C25.1034 96.4618 26.4389 94.3378 26.5643 93.2695C26.6352 92.679 25.9338 91.808 26.4048 90.9985L26.4008 91.0077Z" fill="#282626"/>
<path d="M75.0763 57.2835C75.4879 58.286 74.998 59.7144 75.1745 60.7829C75.5408 63.0941 77.1373 65.6139 77.0452 68.1141C76.9308 71.041 75.1919 74.3098 72.7165 75.9007C70.7296 77.1859 69.9688 76.061 68.227 76.0122C62.8782 75.8543 61.5478 75.9921 56.7297 72.7778C51.9116 69.5635 50.7113 64.099 54.7432 59.79C55.1998 59.3036 60.3135 55.8081 61.0244 55.4427C64.1643 53.8304 73.5091 53.4706 75.0763 57.2835Z" fill="#282626"/>
<path d="M40.4313 63.347C39.5369 62.4825 38.0127 63.2941 37.3266 63.0749C36.6405 62.8556 35.6486 61.3318 34.2708 60.849C31.6316 59.9135 24.8476 60.1322 24.127 56.3829C23.7106 54.2449 25.5908 54.1409 26.1454 52.8306C26.477 52.0355 26.1598 51.066 26.3437 50.2086C26.8307 47.9421 29.9841 43.1769 32.2553 42.5317C34.2881 41.9619 34.4227 42.878 35.971 43.1769C38.6702 43.6989 40.9093 41.8451 43.7141 42.7009C45.411 43.2108 47.2588 45.0133 47.8693 46.6577C50.3962 53.4772 43.8472 58.377 40.4252 63.3342L40.4313 63.347Z" fill="#282626"/>
<path d="M45.6253 74.7457C45.4785 74.832 43.9571 74.6379 43.6839 74.5104C43.0525 74.2256 42.8575 73.3307 42.2342 72.9322C40.455 71.8107 35.305 71.4788 38.9048 68.1309C40.2106 66.9143 41.9455 68.0415 42.315 67.8637C43.0193 67.5171 42.418 65.2719 45.404 66.2759C47.7732 67.0744 48.4082 70.0096 47.3479 72.1281C47.1784 72.4608 45.7594 74.6656 45.6253 74.7457Z" fill="#282626"/>
</svg>
