<svg width="264" height="273" viewBox="0 0 264 273" fill="none" xmlns="http://www.w3.org/2000/svg">
<g filter="url(#filter0_g_1730_2694)">
<path d="M2 271H262V1.99999H2V271ZM250.736 13.6315V259.267H138.099V199.786C150.519 198.666 161.291 193.576 171.398 185.507C177.399 191.819 183.302 197.953 189.032 204.24C189.868 205.156 190.114 206.938 190.138 208.312C190.237 215.337 190.163 222.387 190.212 229.412C190.212 230.837 190.384 232.262 190.483 233.764H225.897V196.706C217.535 196.706 209.567 196.732 201.624 196.681C200.369 196.681 198.697 196.732 197.959 195.968C191.737 189.783 185.712 183.446 179.49 177.032C188.786 164.866 193.483 151.453 193.508 136.436C193.532 121.267 188.442 107.854 179.49 95.7899C185.441 89.6814 190.999 83.802 196.828 78.1772C198.033 77.0319 200.123 76.421 201.845 76.3701C208.485 76.1665 215.15 76.2938 221.815 76.2683C223.192 76.2683 224.569 76.1156 225.995 76.0393V39.3887H190.188C190.188 45.9552 189.72 52.1146 190.311 58.1721C190.975 65.0695 188.909 70.109 183.793 74.5122C179.293 78.3808 175.358 82.9621 171.054 87.3653C161.143 79.1444 150.174 74.5885 138.148 73.0359V13.6315H250.736ZM84.3137 177.414C78.4851 183.369 72.9024 189.223 67.0984 194.848C65.9917 195.917 64.0734 196.554 62.524 196.604C55.2936 196.783 48.0632 196.681 40.8082 196.706C39.4309 196.706 38.0537 196.884 36.7995 196.961V233.611H72.6565C72.6565 226.307 72.9024 219.409 72.5581 212.563C72.3367 208.16 73.6402 204.953 76.7635 202C82.2478 196.757 87.4124 191.183 92.7737 185.686C102.734 193.881 113.727 198.411 125.63 199.939V259.343H13.1899V13.7078H125.778V73.0614C113.432 74.5122 102.562 79.3735 92.4048 87.4926C88.101 82.8858 84.3382 78.0754 79.8377 74.1558C74.919 69.9054 73.0991 65.0695 73.6402 58.5539C74.1566 52.2164 73.7386 45.8025 73.7386 39.3632H37.9554V76.2683C46.0957 76.2683 53.8918 76.2174 61.6879 76.3192C63.2126 76.3192 65.2293 76.3447 66.1638 77.2864C72.3367 83.3185 78.2637 89.6051 84.2153 95.7389C66.7541 119.155 65.0325 151.275 84.3137 177.414ZM131.631 85.1256C159.225 84.7947 181.482 107.625 181.703 136.462C181.924 164.23 159.913 187.467 132.984 187.9C105.365 188.333 82.6659 165.833 82.2724 137.658C81.8789 108.567 103.619 85.4564 131.631 85.1256Z" fill="#FAFAF7"/>
<path d="M142.302 125.842H121.698V147.158H142.302V125.842Z" fill="#FAFBF7"/>
</g>
<defs>
<filter id="filter0_g_1730_2694" x="0" y="0" width="264" height="273" filterUnits="userSpaceOnUse" color-interpolation-filters="sRGB">
<feFlood flood-opacity="0" result="BackgroundImageFix"/>
<feBlend mode="normal" in="SourceGraphic" in2="BackgroundImageFix" result="shape"/>
<feTurbulence type="fractalNoise" baseFrequency="0.5 0.5" numOctaves="3" seed="8264" />
<feDisplacementMap in="shape" scale="4" xChannelSelector="R" yChannelSelector="G" result="displacedImage" width="100%" height="100%" />
<feMerge result="effect1_texture_1730_2694">
<feMergeNode in="displacedImage"/>
</feMerge>
</filter>
</defs>
</svg>
