<svg xmlns="http://www.w3.org/2000/svg" width="719" height="83" fill="none"><path fill="#282626" d="M105.826 12.371c.736.776 1.124 3.528-.737 3.412-12.483 1.435-25.548 2.21-37.838 4.885-12.29 2.675-14.499 5.35-22.408 13.763-9.963 10.583-20.857 25.276-29.541 36.868-1.008 1.318-7.637 13.608-10.118 9.653-1.668-2.597 5.388-8.296 7.016-10.312 10.197-12.638 19.423-26.013 29.697-38.536.581-.736 4.885-4.38 4.148-5.04-3.8 0-7.21 2.017-10.816 3.14-7.676 2.327-15.469 4.188-23.145 6.553-3.877 1.163-7.56 3.721-11.747 3.372-2.248-2.093 7.444-5.31 8.297-5.62 10.933-4.11 22.757-6.436 33.96-9.964 3.955-1.24 10.7-5.66 14.539-6.28 2.403-.389 4.652 0 8.219-.621 9.537-1.667 17.484-3.14 27.176-4.265 2.714-.31 11.282-3.062 13.259-.969l.039-.039ZM173.597.183c1.55 1.124-.427 8.141-1.008 9.963-2.985 9.615-8.025 19.889-11.282 29.658-2.791 8.49-5.233 17.252-7.288 25.936 3.45.93 6.397-3.49 9.847-3.838 7.831-.776 8.18 17.988 5.195 18.919-7.521 2.403.853-14.965-6.436-14.228-.62.077-9.42 6.823-10.118 7.715-1.512 1.86-1.9 7.055-3.877 6.9-6.474-.581-1.008-8.025-.116-10.312 2.403-6.358 3.76-14.693 5.931-21.361 4.42-13.53 9.615-26.518 14.81-39.776.969-2.481 1.589-6.203 2.713-8.568.311-.62.931-1.55 1.629-1.047v.039ZM429.158 60.826c-3.799 3.954-7.792 3.024-2.753 9.382.504.659 2.753 3.024 3.334 3.14 1.784.35 9.033-6.668 6.475 1.357-1.551 4.846-10.739 3.916-13.375.271-1.474-2.016-1.086-5.31-4.459-3.295-1.124.66-1.744 2.481-2.675 3.257-.581.465-7.211 4.73-7.637 4.884-.892.233-4.109-1.977-4.458-2.752-2.947-5.97 8.412-12.445 13.336-12.483 1.085-1.28-7.482-15.469-4.071-17.718 3.993-2.675 6.785 10.894 7.754 12.6.93 1.59 1.744 1.047 3.063.31 1.124-.581 6.125-6.28 7.172-7.637 1.008-1.28.659-3.334 2.675-3.916 1.434-.387 3.256 1.59 2.907 2.908-2.713 2.985-4.458 6.784-7.249 9.692h-.039ZM197.941 75.634c.931 0 2.288.62 3.14.078 1.668-1.086-.542-3.373 3.955-1.822-1.357 2.21-5.389 5.195-7.986 4.768-1.28-.233-1.706-1.473-2.52-1.706-2.21-.62-3.063 1.745-4.73 2.792-9.886 6.203-20.819 3.683-12.328-8.762 4.807-7.017 12.871-9.382 20.741-11.282 3.14-8.722 6.241-17.755 11.049-25.742 1.783-2.946 7.443-11.397 9.653-13.452 1.667-1.55 3.605-1.706 3.295.892-.155 1.473-1.744 1.938-2.404 2.985-10.118 16.244-16.088 25.82-20.198 45.048-.387 1.861-2.21 3.955-1.744 6.242l.077-.039Zm-4.148-10.661c-5.854.814-13.801 5.931-15.158 11.863-.776 3.45 1.667 3.606 4.613 2.83 1.745-.465 10.816-6.28 11.127-7.87.736-3.76-.892-2.17-1.202-2.365-1.706-1.24.969-2.752.581-4.458h.039ZM387.793 57.17c-.194.271-4.885 1.667-5.854 2.17-5.312 2.753-10.119 7.87-13.026 13.066-.815 1.434-2.598 7.56-3.412 7.87-3.334 1.201-5.04-1.551-4.381-4.653-3.877 1.745-7.521 4.73-12.057 4.536-6.513-.271-12.716-6.242-8.025-12.444 2.908-3.839 11.282-8.956 16.205-8.103 1.047.194 2.714 1.59 2.714 2.675 0 3.722-14.887 7.792-15.74 9.188-1.473 2.404 1.086 4.575 3.218 5.079 5.738 1.357 8.296-1.629 12.522-4.148.853-.505 2.055-.156 2.908-.66 2.21-1.279 4.613-6.513 6.319-8.528 2.016-2.404 12.057-8.568 14.848-8.917 1.9-.233 5.001 1.163 3.761 2.907v-.038ZM291.446 73.783c-2.442 3.334-9.381 9.072-13.685 8.49-6.048-.814-5.582-10.855-1.861-13.646 4.653-3.49 1.241 4.264 1.086 5.233-.969 5.583 1.434 6.28 5.738 3.373 3.217-2.17 8.994-9.343 9.498-13.065 1.202-8.684-13.336-5.97-12.328-12.25.387-2.365 6.241-8.53 8.257-10.197 1.512-1.201 8.374-5.737 9.886-6.125.543-.155 5.428-.775 5.699-.698.698.194 1.241 1.628 1.318 2.288.194 2.326-3.644 1.59-5.117 2.093-2.83.93-9.072 4.536-11.282 6.513-.543.465-4.536 5.156-4.652 5.466-1.008 3.528 6.087 4.11 8.18 5.273 3.683 2.055 4.148 5.311 3.334 9.188-.31 1.512-3.14 6.746-4.109 8.064h.038Z"/><path fill="#282626" d="M43.255 55.376c2.83-1.783 12.329-5.234 15.546-4.962 3.218.27 5.428 3.295 4.808 6.59-1.125 6.01-13.492 18.144-19.113 20.664-4.264 1.938-8.296 3.256-12.096-.233-6.939-6.358 1.551-15.236 6.94-19.19.814-.62 3.411-2.559 3.954-2.87h-.038Zm16.942-.698c-1.434-2.287-10.196 1.124-12.29 2.094-4.806 2.17-18.57 11.048-13.995 17.406 1.512 2.133 4.653 2.094 6.979 1.668.969-.194 8.955-4.265 9.227-4.692.27-.504.038-1.124.116-1.666l-1.784-.31c1.629-1.086 3.18-1.668 4.73-2.947 1.55-1.28 6.59-7.405 6.978-9.072.155-.659.388-1.938.078-2.442l-.039-.039ZM314.828 57.938c.31.348 6.591-2.714 8.103-2.753 4.497-.194 8.761 4.73 8.916 9.072.039 1.744-4.691 12.87-5.699 13.569-.891.62-2.558.465-2.946-.698-.543-1.706 4.226-10.545 4.148-13.608-.039-1.395-3.179-5-4.381-4.923-3.295.31-9.188 7.56-11.01 10.39-1.938 3.023-5.466 15.7-9.498 9.498 2.52-4.769 4.691-9.847 6.474-14.926.659-1.9 1.745-8.296 2.947-8.956 3.024-1.589 2.791 3.102 2.985 3.296l-.039.039ZM233.527 73.605l-4.73 3.877c-4.419 1.667-10.234 5.233-15.003 3.101-3.295-1.512-4.613-3.489-3.877-7.133 1.318-6.28 12.949-17.33 19.19-18.764 2.404-.543 5.467-.93 6.824 1.434 1.357 2.365-2.908 6.669-4.808 8.297-3.179 2.714-16.902 8.49-17.484 9.847-.582 1.357.504 3.605 1.9 4.032 5.892 1.783 12.522-3.838 17.988-4.614v-.077Zm-1.783-15.43c-2.714-1.395-14.151 8.025-14.228 9.188-.039.814.891.66 1.551.388 1.473-.504 6.047-2.985 7.404-3.877 2.21-1.473 3.955-3.412 5.234-5.699h.039ZM241.25 79.76c3.062-.426 6.203.698 8.219-2.17 4.69-6.552-3.102-12.794-4.032-18.92-1.28-8.218 2.326-12.91 9.924-14.925 3.722-.97 10.855-2.404 13.181 1.318 1.629 2.597-2.675.504-3.411.426-3.412-.387-11.243 1.396-13.763 3.76-2.675 2.52-2.985 6.281-2.171 9.77 1.628 7.056 8.994 11.825 4.032 19.966-2.636 4.303-9.653 5.699-12.018.737l.039.038ZM132.538 58.446c1.202.698 1.396 2.752.388 3.993-3.024 3.566-7.25.814-10.468 3.605-2.675 2.288-6.552 8.878-3.14 11.902 5.234 4.652 8.994-4.846 13.957-2.093-1.9 1.938-4.226 3.993-6.707 5.156-3.993 1.86-8.49 1.977-11.398-1.9-5.001-6.745 4.148-17.213 10.351-19.888 1.589-.698 5.621-1.55 7.017-.736v-.04ZM82.027 74.01c1.512-1.008 3.566-5.002 5.544-2.443.349 1.318-4.381 5.195-5.738 6.087-9.615 6.28-18.182 3.373-13.957-9.188.776-2.288 5.428-10.972 8.142-10.274.426.427 1.046.737.891 1.473-.077.31-3.179 3.993-3.799 5.118-6.203 10.971-2.597 16.864 8.917 9.227ZM263.809 81.701c-2.016-2.093 9.343-18.647 10.894-21.438.814-1.473 1.202-3.18 1.861-4.691.233-.504.039-1.628 1.124-1.202 3.024 1.202-.62 7.676-1.628 9.614-2.83 5.39-7.172 10.7-9.653 16.438l-2.637 1.202.039.078ZM100.597 58.263c1.667 3.412-1.24 6.63-2.132 9.925-.349 1.28-1.357 6.009-1.318 6.978.077 1.124 3.838 3.877.232 4.42-7.792 1.163-1.008-15.857-.542-19.578.891-1.319 2.17-2.171 3.799-1.745h-.039ZM286.177 81.7c-2.171 1.861-4.807-.62-5.698-2.52 2.132-3.76 8.955-.271 5.698 2.52ZM582.834 67.694c2.443-3.567-1.512-7.87 1.124-11.088 4.11.659 2.171 4.652 2.908 7.753.349 1.512 4.032 5.428.543 6.436-2.404.698-2.947-2.714-4.032-2.326-3.334 5.66-9.576 6.784-13.957 1.473-1.357-1.667-3.566-8.645-5.039-8.645-.815 0-5.389 5.854-6.785 6.862-4.187 3.101-8.839 3.217-13.685 1.744-.931-.271-1.745-1.473-2.675-1.473-.504 0-6.746 3.954-9.072 4.575-4.109 1.085-8.606-.194-10.39.271-1.318.31-2.248 3.14-4.729 2.791-2.869-.426-9.77-7.327-11.592-9.808-3.102-4.187-5.932-10.971-7.095-16.05-.349-1.473.466-5.544-1.938-3.334-2.016 1.86-5.156 9.653-9.072 8.452-1.899-.582.892-4.536 1.745-5.816 1.783-2.752 5.234-7.172 7.366-9.808.736-.892 1.899-2.326 3.14-2.016 2.365.582 1.279 3.993 1.628 5.544 1.939 8.606 3.528 16.903 9.188 24.036 1.008 1.28 6.32 6.978 7.987 5.389.426-1.977-1.512-2.52-2.249-3.993-3.45-6.978 7.172-17.756 14.228-16.632 6.435 1.008.465 9.42-2.559 11.398-2.597 1.706-5.815 1.28-8.257 3.024-.194.93 2.442 2.946 3.217 3.295 1.939.892 9.188-.232 11.514-1.047.815-.27 4.149-1.9 4.808-2.326 2.597-1.783 3.024-7.25 5.97-10.04 8.878-8.413 13.414 4.419 7.095 7.094-6.32 2.675 0-3.838-1.163-5.04-2.172-2.21-9.731 10.468-1.047 8.8 4.807-.93 14.499-9.226 14.732-14.421.349-7.095-2.249-16.283.698-23.571 1.395-3.49 4.225-2.133 4.613 1.008 1.551 12.057-3.45 23.455.698 34.891 1.628 4.497 3.915 8.219 9.188 5.35.232-.116 2.791-2.559 2.907-2.714l.039-.038Zm-54.585-8.917c.426-.543 1.046-2.753-.078-2.753-.659 0-6.203 4.459-6.203 5.04-.077 2.365 5.777-1.59 6.319-2.248l-.038-.04ZM608.341 44.316c.736.543 3.527 5.001 3.721 6.087 1.086 6.707-6.203 15.12 1.667 19.694 5.505 3.18 9.692-.93 12.91-5.195 3.179 1.047.814 4.265-.581 5.932-3.063 3.644-7.521 5-12.212 3.876-2.482-.581-2.947-2.636-5.04-3.256-4.226-1.24-7.095.775-11.127-1.357-3.14-1.628-3.334-3.101-2.752-6.668.504-3.102 3.605-3.838 5.078-6.28 3.606 1.434 4.381 2.17 5.854-1.784 4.304-11.436-6.358-1.977-10.312-5.699-1.085-3.101 4.148-3.799 5.621-4.923.737-.543.97-2.094 1.861-2.365.465-.155 4.924 1.59 5.35 1.9l-.038.038Zm-3.373 18.221c-1.939-.116-4.691-.31-5.622 1.784-2.248 4.962 6.475 3.062 5.622-1.784ZM634.628 62.536c-1.047 2.791 3.218 14.034-.388 14.693-4.807.892-2.946-7.753-3.179-10.855-.232-2.636-3.721-15.158.892-15.158 2.869 0 .504 8.141 2.365 10.118 6.048-2.52 11.436-6.241 13.065-13.026 1.861-7.87-8.335-9.808-13.957-7.443-2.597 1.085-4.303 5.35-7.443 3.295-1.822-2.597 4.923-6.746 6.978-7.366 8.374-2.442 20.896 2.443 18.764 12.832-.427 1.977-4.807 8.8-6.436 10.196-2.016 1.745-8.451 5.04-10.622 2.714h-.039Z"/><path fill="#282626" d="M488.781 70.134c-1.473-.853-7.948-15.158-9.343-17.64-.31-.658-1.163-.813-1.745-.62-.775.272-3.915 13.298-4.264 15.314-.659 3.644-.388 9.266-1.473 12.173-.582 1.55-3.49 1.434-3.955 0-.814-2.365 3.451-18.531 4.342-22.175.31-1.28 1.9-4.459 1.861-5.04 0-1.628-2.481-1.745-.969-5.932.194-.504 2.132-4.07 2.326-4.225 1.124-.814 2.481.426 3.256.232 1.086-.232 1.125-3.605 3.645-1.744.465.349 1.55 2.132 1.434 2.713-.31 1.474-4.148-.155-3.295 3.296.426 1.744 4.846 10.235 6.009 12.406.93 1.705 7.482 9.459 5.001 11.048-.62.388-2.249.504-2.869.156l.039.038ZM703.091 61.57c-1.473 1.357-2.869 4.304-5.544 3.063.543-4.11 6.397-5.35 5.621-9.808-7.831 2.016-14.693 14.15-8.335 20.818 3.063 3.18 12.6 2.83 16.516 1.629 1.356-.427 6.086-6.669 6.9-3.102 1.008 4.42-10.738 7.405-13.917 7.405-14.539.155-20.315-12.251-11.825-23.726 2.714-3.683 12.367-11.204 15.624-5.001 1.744 3.372-2.791 6.629-5.04 8.722ZM687.545 53.157c.117-.233 3.141-2.288 4.032-3.335 4.769-5.582 6.746-13.22-3.722-11.436-3.372.581-7.249 4.652-9.033 4.652-3.45.039-2.287-3.179.078-4.691 4.691-3.024 11.32-4.962 16.748-2.714 9.459 3.877-1.512 22.02-7.289 20.353-1.007-.27-1.318-2.015-.852-2.83h.038ZM678.937 51.45c2.016 1.512 2.133 10.467 1.9 13.104-.194 2.21-.814 6.668-1.241 8.839-.271 1.357-1.473 5.893-2.636 6.28-5.854 1.9-1.279-8.955-.853-12.134.155-1.24.737-9.188.543-9.964-.155-.581-.698-1.085-1.357-.969-1.512.31.155 4.497-2.985 4.187-4.691-.465 2.055-12.755 6.629-9.343ZM664.244 62.033c.737.62 1.551 10.584 1.241 12.095-.466 2.56-4.846 2.714-5.234.504-.155-.853 1.434-2.713 1.667-4.109.232-1.512-.271-8.258.039-8.568.077-.077 2.093-.077 2.287.078ZM588.768 41.255c5.466-1.55 3.295 8.452 1.047 10.584-1.977.465-1.357-3.528-1.551-4.38-.349-1.823-2.249-5.428.504-6.204ZM662.732 36.602c3.993-4.535 8.49 4.924.969 2.52-1.59-.504-2.094-1.24-.969-2.52Z"/></svg>